%TF.GenerationSoftware,KiCad,Pcbnew,(6.0.2)*%
%TF.CreationDate,2022-04-27T15:01:22+08:00*%
%TF.ProjectId,USBtoTTL,55534274-6f54-4544-9c2e-6b696361645f,rev?*%
%TF.SameCoordinates,Original*%
%TF.FileFunction,Soldermask,Top*%
%TF.FilePolarity,Negative*%
%FSLAX45Y45*%
G04 Gerber Fmt 4.5, Leading zero omitted, Abs format (unit mm)*
G04 Created by KiCad (PCBNEW (6.0.2)) date 2022-04-27 15:01:22*
%MOMM*%
%LPD*%
G01*
G04 APERTURE LIST*
G04 Aperture macros list*
%AMRoundRect*
0 Rectangle with rounded corners*
0 $1 Rounding radius*
0 $2 $3 $4 $5 $6 $7 $8 $9 X,Y pos of 4 corners*
0 Add a 4 corners polygon primitive as box body*
4,1,4,$2,$3,$4,$5,$6,$7,$8,$9,$2,$3,0*
0 Add four circle primitives for the rounded corners*
1,1,$1+$1,$2,$3*
1,1,$1+$1,$4,$5*
1,1,$1+$1,$6,$7*
1,1,$1+$1,$8,$9*
0 Add four rect primitives between the rounded corners*
20,1,$1+$1,$2,$3,$4,$5,0*
20,1,$1+$1,$4,$5,$6,$7,0*
20,1,$1+$1,$6,$7,$8,$9,0*
20,1,$1+$1,$8,$9,$2,$3,0*%
G04 Aperture macros list end*
%ADD10RoundRect,0.135000X-0.135000X-0.185000X0.135000X-0.185000X0.135000X0.185000X-0.135000X0.185000X0*%
%ADD11RoundRect,0.250000X0.425000X-0.450000X0.425000X0.450000X-0.425000X0.450000X-0.425000X-0.450000X0*%
%ADD12RoundRect,0.140000X-0.140000X-0.170000X0.140000X-0.170000X0.140000X0.170000X-0.140000X0.170000X0*%
%ADD13RoundRect,0.062500X-0.350000X-0.062500X0.350000X-0.062500X0.350000X0.062500X-0.350000X0.062500X0*%
%ADD14RoundRect,0.062500X-0.062500X-0.350000X0.062500X-0.350000X0.062500X0.350000X-0.062500X0.350000X0*%
%ADD15R,2.600000X2.600000*%
%ADD16RoundRect,0.243750X0.243750X0.456250X-0.243750X0.456250X-0.243750X-0.456250X0.243750X-0.456250X0*%
%ADD17R,0.500000X0.320000*%
%ADD18R,2.500000X1.000000*%
%ADD19RoundRect,0.140000X0.170000X-0.140000X0.170000X0.140000X-0.170000X0.140000X-0.170000X-0.140000X0*%
%ADD20RoundRect,0.150000X-0.512500X-0.150000X0.512500X-0.150000X0.512500X0.150000X-0.512500X0.150000X0*%
%ADD21RoundRect,0.147500X-0.147500X-0.172500X0.147500X-0.172500X0.147500X0.172500X-0.147500X0.172500X0*%
%ADD22RoundRect,0.147500X0.147500X0.172500X-0.147500X0.172500X-0.147500X-0.172500X0.147500X-0.172500X0*%
%ADD23R,0.500000X0.200000*%
%ADD24R,0.700000X0.200000*%
%ADD25RoundRect,0.225000X-0.250000X0.225000X-0.250000X-0.225000X0.250000X-0.225000X0.250000X0.225000X0*%
%ADD26RoundRect,0.225000X0.250000X-0.225000X0.250000X0.225000X-0.250000X0.225000X-0.250000X-0.225000X0*%
%ADD27RoundRect,0.225000X0.225000X0.250000X-0.225000X0.250000X-0.225000X-0.250000X0.225000X-0.250000X0*%
%ADD28C,0.650000*%
%ADD29R,1.450000X0.600000*%
%ADD30R,1.450000X0.300000*%
%ADD31O,1.600000X1.000000*%
%ADD32O,2.100000X1.000000*%
%ADD33RoundRect,0.135000X0.185000X-0.135000X0.185000X0.135000X-0.185000X0.135000X-0.185000X-0.135000X0*%
G04 APERTURE END LIST*
D10*
%TO.C,R6*%
X6611620Y-6924040D03*
X6713620Y-6924040D03*
%TD*%
D11*
%TO.C,C1*%
X6670040Y-6421500D03*
X6670040Y-6151500D03*
%TD*%
D10*
%TO.C,R1*%
X7132120Y-7472680D03*
X7234120Y-7472680D03*
%TD*%
D12*
%TO.C,C4*%
X6947160Y-7183120D03*
X7043160Y-7183120D03*
%TD*%
D13*
%TO.C,U3*%
X6854750Y-6656800D03*
X6854750Y-6706800D03*
X6854750Y-6756800D03*
X6854750Y-6806800D03*
X6854750Y-6856800D03*
X6854750Y-6906800D03*
D14*
X6923500Y-6975550D03*
X6973500Y-6975550D03*
X7023500Y-6975550D03*
X7073500Y-6975550D03*
X7123500Y-6975550D03*
X7173500Y-6975550D03*
D13*
X7242250Y-6906800D03*
X7242250Y-6856800D03*
X7242250Y-6806800D03*
X7242250Y-6756800D03*
X7242250Y-6706800D03*
X7242250Y-6656800D03*
D14*
X7173500Y-6588050D03*
X7123500Y-6588050D03*
X7073500Y-6588050D03*
X7023500Y-6588050D03*
X6973500Y-6588050D03*
X6923500Y-6588050D03*
D15*
X7048500Y-6781800D03*
%TD*%
D12*
%TO.C,C9*%
X7389120Y-6756400D03*
X7485120Y-6756400D03*
%TD*%
D16*
%TO.C,F1*%
X6827290Y-7137400D03*
X6639790Y-7137400D03*
%TD*%
D17*
%TO.C,RN1*%
X7733500Y-6856800D03*
X7733500Y-6806800D03*
X7733500Y-6756800D03*
X7733500Y-6706800D03*
X7633500Y-6706800D03*
X7633500Y-6756800D03*
X7633500Y-6806800D03*
X7633500Y-6856800D03*
%TD*%
D18*
%TO.C,J1*%
X8147000Y-6144260D03*
X8147000Y-6398260D03*
X8147000Y-6652260D03*
X8147000Y-6906260D03*
X8147000Y-7160260D03*
X8147000Y-7414260D03*
%TD*%
D10*
%TO.C,R3*%
X7322620Y-6278880D03*
X7424620Y-6278880D03*
%TD*%
D19*
%TO.C,C2*%
X6822440Y-6197340D03*
X6822440Y-6101340D03*
%TD*%
D20*
%TO.C,U1*%
X7369090Y-7263380D03*
X7369090Y-7358380D03*
X7369090Y-7453380D03*
X7596590Y-7453380D03*
X7596590Y-7263380D03*
%TD*%
D21*
%TO.C,D4*%
X7325120Y-6090920D03*
X7422120Y-6090920D03*
%TD*%
D22*
%TO.C,D3*%
X7925990Y-6906260D03*
X7828990Y-6906260D03*
%TD*%
D23*
%TO.C,U4*%
X6702340Y-6841800D03*
X6702340Y-6801800D03*
X6702340Y-6761800D03*
X6702340Y-6721800D03*
D24*
X6622340Y-6731800D03*
X6622340Y-6831800D03*
%TD*%
D12*
%TO.C,C8*%
X7327620Y-6184900D03*
X7423620Y-6184900D03*
%TD*%
D10*
%TO.C,R5*%
X6608880Y-6639560D03*
X6710880Y-6639560D03*
%TD*%
%TO.C,R4*%
X6944160Y-7089140D03*
X7046160Y-7089140D03*
%TD*%
D25*
%TO.C,C3*%
X7203440Y-7197060D03*
X7203440Y-7352060D03*
%TD*%
D26*
%TO.C,C5*%
X7853880Y-7413020D03*
X7853880Y-7258020D03*
%TD*%
D27*
%TO.C,C7*%
X6811040Y-7305040D03*
X6656040Y-7305040D03*
%TD*%
D20*
%TO.C,U2*%
X6960150Y-6183880D03*
X6960150Y-6278880D03*
X6960150Y-6373880D03*
X7187650Y-6373880D03*
X7187650Y-6278880D03*
X7187650Y-6183880D03*
%TD*%
D19*
%TO.C,C6*%
X7734500Y-7327640D03*
X7734500Y-7231640D03*
%TD*%
D28*
%TO.C,J2*%
X6297460Y-6492800D03*
X6297460Y-7070800D03*
D29*
X6441960Y-6456800D03*
X6441960Y-6536800D03*
D30*
X6441960Y-6656800D03*
X6441960Y-6756800D03*
X6441960Y-6806800D03*
X6441960Y-6906800D03*
D29*
X6441960Y-7026800D03*
X6441960Y-7106800D03*
X6441960Y-7106800D03*
X6441960Y-7026800D03*
D30*
X6441960Y-6956800D03*
X6441960Y-6856800D03*
X6441960Y-6706800D03*
X6441960Y-6606800D03*
D29*
X6441960Y-6536800D03*
X6441960Y-6456800D03*
D31*
X5932460Y-6349800D03*
X5932460Y-7213800D03*
D32*
X6350460Y-6349800D03*
X6350460Y-7213800D03*
%TD*%
D21*
%TO.C,D1*%
X7325120Y-6375400D03*
X7422120Y-6375400D03*
%TD*%
D22*
%TO.C,D2*%
X7925990Y-6652260D03*
X7828990Y-6652260D03*
%TD*%
D33*
%TO.C,R2*%
X6822440Y-6408620D03*
X6822440Y-6306620D03*
%TD*%
M02*
