%TF.GenerationSoftware,KiCad,Pcbnew,(6.0.2)*%
%TF.CreationDate,2022-04-27T15:01:22+08:00*%
%TF.ProjectId,USBtoTTL,55534274-6f54-4544-9c2e-6b696361645f,rev?*%
%TF.SameCoordinates,Original*%
%TF.FileFunction,Legend,Bot*%
%TF.FilePolarity,Positive*%
%FSLAX45Y45*%
G04 Gerber Fmt 4.5, Leading zero omitted, Abs format (unit mm)*
G04 Created by KiCad (PCBNEW (6.0.2)) date 2022-04-27 15:01:22*
%MOMM*%
%LPD*%
G01*
G04 APERTURE LIST*
%ADD10C,0.150000*%
%ADD11C,0.203200*%
%ADD12C,0.120000*%
G04 APERTURE END LIST*
D10*
X7940040Y-7284720D02*
X8270240Y-7284720D01*
X7940040Y-7030720D02*
X8270240Y-7030720D01*
X7940040Y-6057900D02*
X7940040Y-7505700D01*
X7940040Y-6261100D02*
X8270240Y-6261100D01*
X7940040Y-6780728D02*
X8270240Y-6780728D01*
X7940040Y-6525260D02*
X8270240Y-6525260D01*
X8204190Y-6101880D02*
X8213714Y-6097118D01*
X8228000Y-6097118D01*
X8242286Y-6101880D01*
X8251809Y-6111404D01*
X8256571Y-6120928D01*
X8261333Y-6139975D01*
X8261333Y-6154261D01*
X8256571Y-6173308D01*
X8251809Y-6182832D01*
X8242286Y-6192356D01*
X8228000Y-6197118D01*
X8218476Y-6197118D01*
X8204190Y-6192356D01*
X8199428Y-6187594D01*
X8199428Y-6154261D01*
X8218476Y-6154261D01*
X8156571Y-6197118D02*
X8156571Y-6097118D01*
X8099428Y-6197118D01*
X8099428Y-6097118D01*
X8051809Y-6197118D02*
X8051809Y-6097118D01*
X8028000Y-6097118D01*
X8013714Y-6101880D01*
X8004190Y-6111404D01*
X7999428Y-6120928D01*
X7994667Y-6139975D01*
X7994667Y-6154261D01*
X7999428Y-6173308D01*
X8004190Y-6182832D01*
X8013714Y-6192356D01*
X8028000Y-6197118D01*
X8051809Y-6197118D01*
X8254190Y-6607658D02*
X8197048Y-6607658D01*
X8225619Y-6707658D02*
X8225619Y-6607658D01*
X8173238Y-6607658D02*
X8106571Y-6707658D01*
X8106571Y-6607658D02*
X8173238Y-6707658D01*
X8068476Y-6707658D02*
X8068476Y-6607658D01*
X8044667Y-6607658D01*
X8030381Y-6612420D01*
X8020857Y-6621944D01*
X8016095Y-6631468D01*
X8011333Y-6650515D01*
X8011333Y-6664801D01*
X8016095Y-6683848D01*
X8020857Y-6693372D01*
X8030381Y-6702896D01*
X8044667Y-6707658D01*
X8068476Y-6707658D01*
D11*
X7475462Y-6321939D02*
X7475462Y-6379996D01*
X7577062Y-6350968D02*
X7475462Y-6350968D01*
X7509328Y-6457406D02*
X7577062Y-6457406D01*
X7509328Y-6413863D02*
X7562548Y-6413863D01*
X7572224Y-6418701D01*
X7577062Y-6428377D01*
X7577062Y-6442891D01*
X7572224Y-6452568D01*
X7567386Y-6457406D01*
X7577062Y-6505787D02*
X7509328Y-6505787D01*
X7528681Y-6505787D02*
X7519005Y-6510625D01*
X7514167Y-6515463D01*
X7509328Y-6525139D01*
X7509328Y-6534815D01*
X7577062Y-6568682D02*
X7475462Y-6568682D01*
X7514167Y-6568682D02*
X7509328Y-6578358D01*
X7509328Y-6597710D01*
X7514167Y-6607387D01*
X7519005Y-6612225D01*
X7528681Y-6617063D01*
X7557709Y-6617063D01*
X7567386Y-6612225D01*
X7572224Y-6607387D01*
X7577062Y-6597710D01*
X7577062Y-6578358D01*
X7572224Y-6568682D01*
X7577062Y-6675120D02*
X7572224Y-6665444D01*
X7567386Y-6660606D01*
X7557709Y-6655768D01*
X7528681Y-6655768D01*
X7519005Y-6660606D01*
X7514167Y-6665444D01*
X7509328Y-6675120D01*
X7509328Y-6689634D01*
X7514167Y-6699310D01*
X7519005Y-6704148D01*
X7528681Y-6708987D01*
X7557709Y-6708987D01*
X7567386Y-6704148D01*
X7572224Y-6699310D01*
X7577062Y-6689634D01*
X7577062Y-6675120D01*
X7572224Y-6747691D02*
X7577062Y-6762206D01*
X7577062Y-6786396D01*
X7572224Y-6796072D01*
X7567386Y-6800910D01*
X7557709Y-6805748D01*
X7548033Y-6805748D01*
X7538357Y-6800910D01*
X7533519Y-6796072D01*
X7528681Y-6786396D01*
X7523843Y-6767044D01*
X7519005Y-6757368D01*
X7514167Y-6752529D01*
X7504490Y-6747691D01*
X7494814Y-6747691D01*
X7485138Y-6752529D01*
X7480300Y-6757368D01*
X7475462Y-6767044D01*
X7475462Y-6791234D01*
X7480300Y-6805748D01*
X7509328Y-6834777D02*
X7509328Y-6873482D01*
X7475462Y-6849291D02*
X7562548Y-6849291D01*
X7572224Y-6854129D01*
X7577062Y-6863806D01*
X7577062Y-6873482D01*
X7509328Y-6950891D02*
X7577062Y-6950891D01*
X7509328Y-6907348D02*
X7562548Y-6907348D01*
X7572224Y-6912187D01*
X7577062Y-6921863D01*
X7577062Y-6936377D01*
X7572224Y-6946053D01*
X7567386Y-6950891D01*
X7577062Y-7042815D02*
X7475462Y-7042815D01*
X7572224Y-7042815D02*
X7577062Y-7033139D01*
X7577062Y-7013787D01*
X7572224Y-7004110D01*
X7567386Y-6999272D01*
X7557709Y-6994434D01*
X7528681Y-6994434D01*
X7519005Y-6999272D01*
X7514167Y-7004110D01*
X7509328Y-7013787D01*
X7509328Y-7033139D01*
X7514167Y-7042815D01*
X7577062Y-7091196D02*
X7509328Y-7091196D01*
X7475462Y-7091196D02*
X7480300Y-7086358D01*
X7485138Y-7091196D01*
X7480300Y-7096034D01*
X7475462Y-7091196D01*
X7485138Y-7091196D01*
X7577062Y-7154091D02*
X7572224Y-7144415D01*
X7567386Y-7139577D01*
X7557709Y-7134739D01*
X7528681Y-7134739D01*
X7519005Y-7139577D01*
X7514167Y-7144415D01*
X7509328Y-7154091D01*
X7509328Y-7168606D01*
X7514167Y-7178282D01*
X7519005Y-7183120D01*
X7528681Y-7187958D01*
X7557709Y-7187958D01*
X7567386Y-7183120D01*
X7572224Y-7178282D01*
X7577062Y-7168606D01*
X7577062Y-7154091D01*
D10*
X8251809Y-7364578D02*
X8189905Y-7364578D01*
X8223238Y-7402673D01*
X8208952Y-7402673D01*
X8199428Y-7407435D01*
X8194667Y-7412197D01*
X8189905Y-7421721D01*
X8189905Y-7445530D01*
X8194667Y-7455054D01*
X8199428Y-7459816D01*
X8208952Y-7464578D01*
X8237524Y-7464578D01*
X8247048Y-7459816D01*
X8251809Y-7455054D01*
X8161333Y-7364578D02*
X8128000Y-7464578D01*
X8094667Y-7364578D01*
X8070857Y-7364578D02*
X8008952Y-7364578D01*
X8042286Y-7402673D01*
X8028000Y-7402673D01*
X8018476Y-7407435D01*
X8013714Y-7412197D01*
X8008952Y-7421721D01*
X8008952Y-7445530D01*
X8013714Y-7455054D01*
X8018476Y-7459816D01*
X8028000Y-7464578D01*
X8056571Y-7464578D01*
X8066095Y-7459816D01*
X8070857Y-7455054D01*
X8194667Y-6948958D02*
X8228000Y-6901339D01*
X8251809Y-6948958D02*
X8251809Y-6848958D01*
X8213714Y-6848958D01*
X8204190Y-6853720D01*
X8199428Y-6858482D01*
X8194667Y-6868006D01*
X8194667Y-6882291D01*
X8199428Y-6891815D01*
X8204190Y-6896577D01*
X8213714Y-6901339D01*
X8251809Y-6901339D01*
X8161333Y-6848958D02*
X8094667Y-6948958D01*
X8094667Y-6848958D02*
X8161333Y-6948958D01*
X8056571Y-6948958D02*
X8056571Y-6848958D01*
X8032762Y-6848958D01*
X8018476Y-6853720D01*
X8008952Y-6863244D01*
X8004190Y-6872768D01*
X7999428Y-6891815D01*
X7999428Y-6906101D01*
X8004190Y-6925148D01*
X8008952Y-6934672D01*
X8018476Y-6944196D01*
X8032762Y-6948958D01*
X8056571Y-6948958D01*
D11*
X7697318Y-6363543D02*
X7778270Y-6363543D01*
X7787794Y-6368305D01*
X7792556Y-6373067D01*
X7797318Y-6382590D01*
X7797318Y-6401638D01*
X7792556Y-6411162D01*
X7787794Y-6415924D01*
X7778270Y-6420686D01*
X7697318Y-6420686D01*
X7792556Y-6463543D02*
X7797318Y-6477828D01*
X7797318Y-6501638D01*
X7792556Y-6511162D01*
X7787794Y-6515924D01*
X7778270Y-6520686D01*
X7768747Y-6520686D01*
X7759223Y-6515924D01*
X7754461Y-6511162D01*
X7749699Y-6501638D01*
X7744937Y-6482590D01*
X7740175Y-6473067D01*
X7735413Y-6468305D01*
X7725889Y-6463543D01*
X7716366Y-6463543D01*
X7706842Y-6468305D01*
X7702080Y-6473067D01*
X7697318Y-6482590D01*
X7697318Y-6506400D01*
X7702080Y-6520686D01*
X7744937Y-6596876D02*
X7749699Y-6611162D01*
X7754461Y-6615924D01*
X7763985Y-6620686D01*
X7778270Y-6620686D01*
X7787794Y-6615924D01*
X7792556Y-6611162D01*
X7797318Y-6601638D01*
X7797318Y-6563543D01*
X7697318Y-6563543D01*
X7697318Y-6596876D01*
X7702080Y-6606400D01*
X7706842Y-6611162D01*
X7716366Y-6615924D01*
X7725889Y-6615924D01*
X7735413Y-6611162D01*
X7740175Y-6606400D01*
X7744937Y-6596876D01*
X7744937Y-6563543D01*
X7730651Y-6725448D02*
X7730651Y-6763543D01*
X7697318Y-6739733D02*
X7783032Y-6739733D01*
X7792556Y-6744495D01*
X7797318Y-6754019D01*
X7797318Y-6763543D01*
X7797318Y-6811162D02*
X7792556Y-6801638D01*
X7787794Y-6796876D01*
X7778270Y-6792114D01*
X7749699Y-6792114D01*
X7740175Y-6796876D01*
X7735413Y-6801638D01*
X7730651Y-6811162D01*
X7730651Y-6825448D01*
X7735413Y-6834971D01*
X7740175Y-6839733D01*
X7749699Y-6844495D01*
X7778270Y-6844495D01*
X7787794Y-6839733D01*
X7792556Y-6834971D01*
X7797318Y-6825448D01*
X7797318Y-6811162D01*
X7697318Y-6949257D02*
X7697318Y-7006400D01*
X7797318Y-6977828D02*
X7697318Y-6977828D01*
X7697318Y-7025448D02*
X7697318Y-7082590D01*
X7797318Y-7054019D02*
X7697318Y-7054019D01*
X7797318Y-7163543D02*
X7797318Y-7115924D01*
X7697318Y-7115924D01*
D10*
X8242286Y-7210578D02*
X8242286Y-7110578D01*
X8218476Y-7110578D01*
X8204190Y-7115340D01*
X8194667Y-7124864D01*
X8189905Y-7134388D01*
X8185143Y-7153435D01*
X8185143Y-7167721D01*
X8189905Y-7186768D01*
X8194667Y-7196292D01*
X8204190Y-7205816D01*
X8218476Y-7210578D01*
X8242286Y-7210578D01*
X8156571Y-7110578D02*
X8099428Y-7110578D01*
X8128000Y-7210578D02*
X8128000Y-7110578D01*
X8008952Y-7210578D02*
X8042286Y-7162959D01*
X8066095Y-7210578D02*
X8066095Y-7110578D01*
X8028000Y-7110578D01*
X8018476Y-7115340D01*
X8013714Y-7120102D01*
X8008952Y-7129626D01*
X8008952Y-7143911D01*
X8013714Y-7153435D01*
X8018476Y-7158197D01*
X8028000Y-7162959D01*
X8066095Y-7162959D01*
X8256571Y-6410483D02*
X8180381Y-6410483D01*
X8218476Y-6448578D02*
X8218476Y-6372388D01*
X8085143Y-6348578D02*
X8132762Y-6348578D01*
X8137524Y-6396197D01*
X8132762Y-6391435D01*
X8123238Y-6386673D01*
X8099428Y-6386673D01*
X8089905Y-6391435D01*
X8085143Y-6396197D01*
X8080381Y-6405721D01*
X8080381Y-6429530D01*
X8085143Y-6439054D01*
X8089905Y-6443816D01*
X8099428Y-6448578D01*
X8123238Y-6448578D01*
X8132762Y-6443816D01*
X8137524Y-6439054D01*
X8051809Y-6348578D02*
X8018476Y-6448578D01*
X7985143Y-6348578D01*
D12*
%TO.C,TP3*%
X7461400Y-6756400D02*
G75*
G03*
X7461400Y-6756400I-70000J0D01*
G01*
%TO.C,TP2*%
X7461400Y-6906260D02*
G75*
G03*
X7461400Y-6906260I-70000J0D01*
G01*
%TO.C,TP1*%
X7461400Y-6609080D02*
G75*
G03*
X7461400Y-6609080I-70000J0D01*
G01*
%TO.C,G\u002A\u002A\u002A*%
G36*
X6952618Y-6431455D02*
G01*
X6956387Y-6431455D01*
X6991496Y-6431506D01*
X7047798Y-6431588D01*
X7119877Y-6432059D01*
X7175097Y-6433006D01*
X7215930Y-6434562D01*
X7244848Y-6436861D01*
X7264325Y-6440040D01*
X7276832Y-6444233D01*
X7284843Y-6449574D01*
X7287924Y-6452654D01*
X7293130Y-6460599D01*
X7297151Y-6472969D01*
X7300138Y-6492261D01*
X7302243Y-6520971D01*
X7303617Y-6561593D01*
X7304411Y-6616625D01*
X7304777Y-6688561D01*
X7304865Y-6779898D01*
X7304865Y-6783667D01*
X7304732Y-6875078D01*
X7304260Y-6947157D01*
X7303314Y-7002377D01*
X7301758Y-7043210D01*
X7299458Y-7072128D01*
X7296280Y-7091605D01*
X7292087Y-7104112D01*
X7286745Y-7112123D01*
X7283666Y-7115204D01*
X7275721Y-7120410D01*
X7263351Y-7124431D01*
X7244059Y-7127418D01*
X7215349Y-7129523D01*
X7174726Y-7130897D01*
X7119695Y-7131691D01*
X7047759Y-7132057D01*
X6956422Y-7132145D01*
X6952653Y-7132145D01*
X6861242Y-7132012D01*
X6789163Y-7131540D01*
X6733943Y-7130594D01*
X6693110Y-7129038D01*
X6664191Y-7126738D01*
X6644715Y-7123560D01*
X6632207Y-7119367D01*
X6624197Y-7114025D01*
X6621116Y-7110946D01*
X6615910Y-7103001D01*
X6611889Y-7090631D01*
X6608902Y-7071339D01*
X6606797Y-7042629D01*
X6605423Y-7002006D01*
X6604629Y-6946975D01*
X6604263Y-6875039D01*
X6604185Y-6793582D01*
X6723968Y-6793582D01*
X6731004Y-6864686D01*
X6756631Y-6930336D01*
X6756844Y-6930706D01*
X6798274Y-6987141D01*
X6848537Y-7031052D01*
X6903979Y-7060992D01*
X6960949Y-7075514D01*
X7015793Y-7073169D01*
X7064860Y-7052509D01*
X7067644Y-7050579D01*
X7099768Y-7022560D01*
X7126695Y-6990675D01*
X7138535Y-6969938D01*
X7148700Y-6935371D01*
X7151589Y-6888701D01*
X7151589Y-6823668D01*
X7105059Y-6832203D01*
X7036631Y-6839206D01*
X6974967Y-6831199D01*
X6923979Y-6806206D01*
X6881185Y-6763466D01*
X6877860Y-6759053D01*
X6863271Y-6736567D01*
X6855016Y-6713674D01*
X6851346Y-6683219D01*
X6850511Y-6638050D01*
X6850511Y-6623212D01*
X6867169Y-6623212D01*
X6868887Y-6674256D01*
X6884760Y-6723234D01*
X6914605Y-6765562D01*
X6958243Y-6796658D01*
X6994194Y-6809534D01*
X7050189Y-6814714D01*
X7102455Y-6803124D01*
X7146317Y-6776082D01*
X7177099Y-6734908D01*
X7190983Y-6694312D01*
X7192614Y-6638750D01*
X7173605Y-6587468D01*
X7159852Y-6567035D01*
X7145242Y-6553744D01*
X7137933Y-6560807D01*
X7138331Y-6588217D01*
X7135381Y-6622064D01*
X7116191Y-6658321D01*
X7084649Y-6684284D01*
X7045765Y-6694214D01*
X7045228Y-6694212D01*
X7007829Y-6685973D01*
X6976888Y-6664894D01*
X6954917Y-6635717D01*
X6944423Y-6603186D01*
X6947916Y-6572043D01*
X6967904Y-6547033D01*
X6985107Y-6536989D01*
X7018178Y-6531408D01*
X7046798Y-6547194D01*
X7057788Y-6560165D01*
X7062351Y-6579250D01*
X7046179Y-6592258D01*
X7030458Y-6591772D01*
X7008893Y-6573294D01*
X6999057Y-6561292D01*
X6986070Y-6554233D01*
X6971271Y-6562562D01*
X6964930Y-6569023D01*
X6956632Y-6593788D01*
X6964119Y-6621158D01*
X6984113Y-6646474D01*
X7013337Y-6665080D01*
X7048512Y-6672317D01*
X7060855Y-6671831D01*
X7084892Y-6663494D01*
X7102040Y-6640016D01*
X7113340Y-6612532D01*
X7117168Y-6568435D01*
X7100665Y-6531361D01*
X7064222Y-6502732D01*
X7030432Y-6489613D01*
X6991496Y-6488790D01*
X6946671Y-6504480D01*
X6906925Y-6533255D01*
X6879788Y-6574684D01*
X6867169Y-6623212D01*
X6850511Y-6623212D01*
X6850511Y-6552887D01*
X6813589Y-6587968D01*
X6806523Y-6594937D01*
X6762516Y-6653968D01*
X6734735Y-6721763D01*
X6723968Y-6793582D01*
X6604185Y-6793582D01*
X6604175Y-6783702D01*
X6604175Y-6779933D01*
X6604308Y-6688522D01*
X6604779Y-6616443D01*
X6605726Y-6561223D01*
X6607282Y-6520390D01*
X6609581Y-6491471D01*
X6612760Y-6471995D01*
X6616953Y-6459487D01*
X6622294Y-6451477D01*
X6625374Y-6448396D01*
X6633319Y-6443190D01*
X6645689Y-6439169D01*
X6664981Y-6436182D01*
X6693691Y-6434077D01*
X6734313Y-6432703D01*
X6789345Y-6431909D01*
X6850511Y-6431598D01*
X6861281Y-6431543D01*
X6952618Y-6431455D01*
G37*
%TD*%
M02*
