%TF.GenerationSoftware,KiCad,Pcbnew,(6.0.2)*%
%TF.CreationDate,2022-04-27T15:01:21+08:00*%
%TF.ProjectId,USBtoTTL,55534274-6f54-4544-9c2e-6b696361645f,rev?*%
%TF.SameCoordinates,Original*%
%TF.FileFunction,Copper,L3,Inr*%
%TF.FilePolarity,Positive*%
%FSLAX45Y45*%
G04 Gerber Fmt 4.5, Leading zero omitted, Abs format (unit mm)*
G04 Created by KiCad (PCBNEW (6.0.2)) date 2022-04-27 15:01:21*
%MOMM*%
%LPD*%
G01*
G04 APERTURE LIST*
%TA.AperFunction,ComponentPad*%
%ADD10O,1.600000X1.000000*%
%TD*%
%TA.AperFunction,ComponentPad*%
%ADD11O,2.100000X1.000000*%
%TD*%
%TA.AperFunction,ViaPad*%
%ADD12C,0.457200*%
%TD*%
G04 APERTURE END LIST*
D10*
%TO.N,GND*%
%TO.C,J2*%
X5932460Y-6349800D03*
X5932460Y-7213800D03*
D11*
X6350460Y-6349800D03*
X6350460Y-7213800D03*
%TD*%
D12*
%TO.N,VBUS*%
X6876800Y-6183880D03*
X6544420Y-7026800D03*
X6617970Y-7026910D03*
X6554740Y-6536800D03*
X6670040Y-6332220D03*
X6768855Y-6851856D03*
%TO.N,GND*%
X6464680Y-6151500D03*
X7015480Y-6814820D03*
X7165080Y-6101340D03*
X6951980Y-6687820D03*
X6551040Y-6151500D03*
X7538720Y-6278880D03*
X7078980Y-6814820D03*
X6888220Y-6101340D03*
X7015480Y-6687820D03*
X7015480Y-6751320D03*
X7279640Y-7358380D03*
X8077200Y-6146800D03*
X7061200Y-6278880D03*
X8229600Y-6146800D03*
X7142480Y-6878320D03*
X7332980Y-7025640D03*
X6982200Y-6101340D03*
X7078980Y-6878320D03*
X7251700Y-6090920D03*
X7078980Y-6751320D03*
X7520940Y-7160260D03*
X7228840Y-7078980D03*
X7693660Y-7160260D03*
X6570980Y-7305040D03*
X6951980Y-6814820D03*
X7477760Y-6548070D03*
X7015480Y-6878320D03*
X6951980Y-6751320D03*
X7475220Y-6830060D03*
X8148320Y-6146800D03*
X6490970Y-7303770D03*
X7485380Y-6278880D03*
X6873240Y-6278880D03*
X7073640Y-6101340D03*
X7142480Y-6751320D03*
X7078980Y-6687820D03*
X7142480Y-6814820D03*
X6761480Y-6101080D03*
X7480300Y-7287260D03*
X6951980Y-6878320D03*
X6713220Y-6982508D03*
X7152640Y-7078980D03*
X6766660Y-6695340D03*
X7142480Y-6687820D03*
%TO.N,+5V*%
X8147000Y-6398260D03*
X6906260Y-7472680D03*
X6967220Y-7305040D03*
X6813550Y-7230110D03*
X7134210Y-7266290D03*
X8232140Y-6398260D03*
X7561580Y-6939280D03*
X7270500Y-7263380D03*
X7038340Y-7472680D03*
X7278620Y-6183880D03*
X6811040Y-7407880D03*
X7633500Y-6629400D03*
X7428230Y-7072630D03*
X8074660Y-6398260D03*
%TO.N,+3V3*%
X8147000Y-7414260D03*
X8074660Y-7414260D03*
X8221980Y-7414260D03*
%TO.N,Net-(C9-Pad1)*%
X7389120Y-6756400D03*
%TO.N,Net-(D1-Pad2)*%
X7696950Y-6856800D03*
X7541260Y-6375400D03*
%TO.N,/CP_TXD*%
X8067040Y-6652260D03*
X8147000Y-6652260D03*
X8229600Y-6652260D03*
%TO.N,/CP_RXD*%
X8147000Y-6906260D03*
X8069580Y-6906260D03*
X8232140Y-6906260D03*
%TO.N,/CP_~DTR*%
X8229600Y-7160260D03*
X7955280Y-6482080D03*
X8147000Y-7160260D03*
X8074660Y-7160260D03*
%TO.N,Net-(J2-PadA6)*%
X6548120Y-6850380D03*
X6548120Y-6756400D03*
%TO.N,Net-(JP1-Pad2)*%
X6868160Y-6975480D03*
%TO.N,Net-(JP2-Pad1)*%
X7584440Y-7376160D03*
X6786880Y-7030720D03*
%TO.N,Net-(TP1-Pad1)*%
X7391400Y-6609080D03*
%TO.N,Net-(TP2-Pad1)*%
X7391400Y-6906260D03*
%TO.N,Net-(RN1-Pad4)*%
X7734300Y-6405880D03*
X7734300Y-6543040D03*
%TD*%
%TA.AperFunction,Conductor*%
%TO.N,+5V*%
G36*
X6723934Y-6058959D02*
G01*
X6726506Y-6063414D01*
X6725613Y-6068480D01*
X6724737Y-6069698D01*
X6720687Y-6074284D01*
X6720459Y-6074769D01*
X6720459Y-6074769D01*
X6718181Y-6079622D01*
X6714806Y-6086810D01*
X6712677Y-6100484D01*
X6712746Y-6101014D01*
X6712746Y-6101015D01*
X6713297Y-6105231D01*
X6714471Y-6114205D01*
X6720044Y-6126871D01*
X6728949Y-6137464D01*
X6729395Y-6137761D01*
X6729395Y-6137761D01*
X6740022Y-6144835D01*
X6740022Y-6144835D01*
X6740468Y-6145132D01*
X6753677Y-6149259D01*
X6760827Y-6149390D01*
X6766976Y-6149503D01*
X6766977Y-6149503D01*
X6767513Y-6149512D01*
X6768030Y-6149371D01*
X6768030Y-6149371D01*
X6776314Y-6147113D01*
X6780863Y-6145873D01*
X6788262Y-6141330D01*
X6792199Y-6138912D01*
X6792200Y-6138912D01*
X6792656Y-6138632D01*
X6801943Y-6128372D01*
X6802316Y-6127601D01*
X6805997Y-6120004D01*
X6807976Y-6115919D01*
X6808326Y-6113842D01*
X6810224Y-6102559D01*
X6810272Y-6102272D01*
X6810287Y-6101080D01*
X6810246Y-6100792D01*
X6808401Y-6087912D01*
X6808401Y-6087911D01*
X6808325Y-6087382D01*
X6808065Y-6086810D01*
X6802819Y-6075272D01*
X6802597Y-6074784D01*
X6802044Y-6074142D01*
X6800178Y-6071977D01*
X6798155Y-6069629D01*
X6796333Y-6064818D01*
X6798028Y-6059962D01*
X6802449Y-6057332D01*
X6803852Y-6057200D01*
X6846070Y-6057200D01*
X6850904Y-6058959D01*
X6853476Y-6063414D01*
X6852583Y-6068480D01*
X6851707Y-6069698D01*
X6847427Y-6074544D01*
X6847199Y-6075029D01*
X6847199Y-6075029D01*
X6845984Y-6077617D01*
X6841546Y-6087070D01*
X6839417Y-6100744D01*
X6839486Y-6101274D01*
X6839486Y-6101275D01*
X6840003Y-6105231D01*
X6841211Y-6114465D01*
X6846784Y-6127131D01*
X6849941Y-6130887D01*
X6851432Y-6132660D01*
X6853196Y-6137493D01*
X6851441Y-6142328D01*
X6849688Y-6143859D01*
X6845620Y-6146426D01*
X6845620Y-6146426D01*
X6845167Y-6146712D01*
X6836007Y-6157084D01*
X6830126Y-6169610D01*
X6827997Y-6183284D01*
X6828066Y-6183814D01*
X6828066Y-6183815D01*
X6828598Y-6187884D01*
X6829791Y-6197005D01*
X6835364Y-6209671D01*
X6844269Y-6220264D01*
X6844715Y-6220561D01*
X6844715Y-6220561D01*
X6849857Y-6223984D01*
X6852906Y-6228127D01*
X6852578Y-6233261D01*
X6849703Y-6236604D01*
X6841607Y-6241712D01*
X6832447Y-6252084D01*
X6826566Y-6264610D01*
X6824437Y-6278284D01*
X6824506Y-6278814D01*
X6824506Y-6278815D01*
X6825177Y-6283946D01*
X6826231Y-6292005D01*
X6831804Y-6304671D01*
X6840709Y-6315264D01*
X6841155Y-6315561D01*
X6841155Y-6315561D01*
X6851782Y-6322635D01*
X6851782Y-6322635D01*
X6852228Y-6322932D01*
X6865437Y-6327059D01*
X6872587Y-6327190D01*
X6878736Y-6327303D01*
X6878737Y-6327303D01*
X6879273Y-6327312D01*
X6879790Y-6327171D01*
X6879790Y-6327171D01*
X6887071Y-6325186D01*
X6892623Y-6323673D01*
X6899404Y-6319510D01*
X6903959Y-6316712D01*
X6903960Y-6316712D01*
X6904416Y-6316432D01*
X6913703Y-6306172D01*
X6914430Y-6304671D01*
X6917495Y-6298345D01*
X6919736Y-6293719D01*
X6920146Y-6291284D01*
X6921688Y-6282116D01*
X6922032Y-6280072D01*
X6922047Y-6278880D01*
X6922006Y-6278592D01*
X6921961Y-6278284D01*
X7012397Y-6278284D01*
X7012466Y-6278814D01*
X7012466Y-6278815D01*
X7013137Y-6283946D01*
X7014191Y-6292005D01*
X7019764Y-6304671D01*
X7028669Y-6315264D01*
X7029115Y-6315561D01*
X7029115Y-6315561D01*
X7039742Y-6322635D01*
X7039742Y-6322635D01*
X7040188Y-6322932D01*
X7053397Y-6327059D01*
X7060547Y-6327190D01*
X7066696Y-6327303D01*
X7066697Y-6327303D01*
X7067233Y-6327312D01*
X7067750Y-6327171D01*
X7067750Y-6327171D01*
X7075031Y-6325186D01*
X7080583Y-6323673D01*
X7087364Y-6319510D01*
X7091919Y-6316712D01*
X7091920Y-6316712D01*
X7092376Y-6316432D01*
X7101663Y-6306172D01*
X7102390Y-6304671D01*
X7105455Y-6298345D01*
X7107696Y-6293719D01*
X7108106Y-6291284D01*
X7109648Y-6282116D01*
X7109992Y-6280072D01*
X7110007Y-6278880D01*
X7109966Y-6278592D01*
X7109921Y-6278284D01*
X7436577Y-6278284D01*
X7436646Y-6278814D01*
X7436646Y-6278815D01*
X7437317Y-6283946D01*
X7438371Y-6292005D01*
X7443944Y-6304671D01*
X7452849Y-6315264D01*
X7453295Y-6315561D01*
X7453295Y-6315561D01*
X7463922Y-6322635D01*
X7463922Y-6322635D01*
X7464368Y-6322932D01*
X7477577Y-6327059D01*
X7484727Y-6327190D01*
X7490876Y-6327303D01*
X7490877Y-6327303D01*
X7491413Y-6327312D01*
X7491930Y-6327171D01*
X7491930Y-6327171D01*
X7497257Y-6325719D01*
X7504763Y-6323673D01*
X7505025Y-6323512D01*
X7510065Y-6323213D01*
X7514195Y-6326280D01*
X7515387Y-6331284D01*
X7513083Y-6335883D01*
X7511929Y-6336779D01*
X7510080Y-6337946D01*
X7510080Y-6337946D01*
X7509627Y-6338232D01*
X7500467Y-6348604D01*
X7494586Y-6361130D01*
X7492457Y-6374804D01*
X7492526Y-6375334D01*
X7492526Y-6375335D01*
X7493198Y-6380469D01*
X7494251Y-6388525D01*
X7499824Y-6401191D01*
X7508729Y-6411784D01*
X7509175Y-6412081D01*
X7509175Y-6412081D01*
X7519802Y-6419155D01*
X7519802Y-6419155D01*
X7520248Y-6419452D01*
X7533457Y-6423579D01*
X7540607Y-6423710D01*
X7546756Y-6423823D01*
X7546757Y-6423823D01*
X7547293Y-6423832D01*
X7547810Y-6423691D01*
X7547810Y-6423691D01*
X7557304Y-6421103D01*
X7560643Y-6420193D01*
X7565718Y-6417077D01*
X7571979Y-6413232D01*
X7571980Y-6413232D01*
X7572436Y-6412952D01*
X7579377Y-6405284D01*
X7685497Y-6405284D01*
X7685566Y-6405814D01*
X7685566Y-6405815D01*
X7686469Y-6412715D01*
X7687291Y-6419005D01*
X7692864Y-6431671D01*
X7701769Y-6442264D01*
X7702215Y-6442561D01*
X7702215Y-6442561D01*
X7712842Y-6449635D01*
X7712842Y-6449635D01*
X7713288Y-6449932D01*
X7726497Y-6454059D01*
X7733647Y-6454190D01*
X7739796Y-6454303D01*
X7739797Y-6454303D01*
X7740333Y-6454312D01*
X7740850Y-6454171D01*
X7740850Y-6454171D01*
X7751860Y-6451170D01*
X7753683Y-6450673D01*
X7758758Y-6447557D01*
X7765019Y-6443712D01*
X7765020Y-6443712D01*
X7765476Y-6443432D01*
X7774763Y-6433172D01*
X7775490Y-6431671D01*
X7779293Y-6423823D01*
X7780796Y-6420719D01*
X7781059Y-6419155D01*
X7783044Y-6407359D01*
X7783092Y-6407072D01*
X7783107Y-6405880D01*
X7782650Y-6402692D01*
X7781221Y-6392712D01*
X7781221Y-6392711D01*
X7781145Y-6392182D01*
X7780885Y-6391610D01*
X7775899Y-6380643D01*
X7775417Y-6379584D01*
X7768581Y-6371650D01*
X7766734Y-6369506D01*
X7766733Y-6369506D01*
X7766384Y-6369101D01*
X7765935Y-6368810D01*
X7755221Y-6361865D01*
X7755221Y-6361865D01*
X7754772Y-6361574D01*
X7750143Y-6360190D01*
X7742027Y-6357763D01*
X7742027Y-6357763D01*
X7741514Y-6357609D01*
X7740979Y-6357606D01*
X7740978Y-6357606D01*
X7734792Y-6357568D01*
X7727676Y-6357525D01*
X7714371Y-6361327D01*
X7702667Y-6368712D01*
X7693507Y-6379084D01*
X7693279Y-6379569D01*
X7693279Y-6379569D01*
X7693043Y-6380072D01*
X7687626Y-6391610D01*
X7685497Y-6405284D01*
X7579377Y-6405284D01*
X7581723Y-6402692D01*
X7582450Y-6401191D01*
X7586558Y-6392712D01*
X7587756Y-6390239D01*
X7587999Y-6388797D01*
X7589393Y-6380511D01*
X7590052Y-6376592D01*
X7590056Y-6376272D01*
X7590063Y-6375691D01*
X7590067Y-6375400D01*
X7589906Y-6374275D01*
X7588181Y-6362232D01*
X7588181Y-6362231D01*
X7588105Y-6361702D01*
X7587868Y-6361180D01*
X7582599Y-6349592D01*
X7582377Y-6349104D01*
X7578326Y-6344402D01*
X7573694Y-6339026D01*
X7573693Y-6339026D01*
X7573344Y-6338621D01*
X7572895Y-6338330D01*
X7564088Y-6332621D01*
X7560989Y-6328516D01*
X7561254Y-6323379D01*
X7564243Y-6319903D01*
X7567423Y-6317950D01*
X7569439Y-6316712D01*
X7569440Y-6316712D01*
X7569896Y-6316432D01*
X7579183Y-6306172D01*
X7579910Y-6304671D01*
X7582975Y-6298345D01*
X7585216Y-6293719D01*
X7585626Y-6291284D01*
X7587168Y-6282116D01*
X7587512Y-6280072D01*
X7587527Y-6278880D01*
X7587486Y-6278592D01*
X7585641Y-6265712D01*
X7585641Y-6265711D01*
X7585565Y-6265182D01*
X7585305Y-6264610D01*
X7580059Y-6253072D01*
X7579837Y-6252584D01*
X7575786Y-6247882D01*
X7571154Y-6242506D01*
X7571153Y-6242506D01*
X7570804Y-6242101D01*
X7570355Y-6241810D01*
X7559641Y-6234865D01*
X7559641Y-6234865D01*
X7559192Y-6234574D01*
X7554563Y-6233190D01*
X7546447Y-6230763D01*
X7546447Y-6230763D01*
X7545934Y-6230609D01*
X7545399Y-6230606D01*
X7545398Y-6230606D01*
X7539212Y-6230568D01*
X7532096Y-6230525D01*
X7518791Y-6234327D01*
X7518338Y-6234613D01*
X7516109Y-6236020D01*
X7511082Y-6237111D01*
X7508006Y-6235970D01*
X7506301Y-6234865D01*
X7506301Y-6234865D01*
X7505852Y-6234574D01*
X7501223Y-6233190D01*
X7493107Y-6230763D01*
X7493107Y-6230763D01*
X7492594Y-6230609D01*
X7492059Y-6230606D01*
X7492058Y-6230606D01*
X7485872Y-6230568D01*
X7478756Y-6230525D01*
X7465451Y-6234327D01*
X7453747Y-6241712D01*
X7444587Y-6252084D01*
X7438706Y-6264610D01*
X7436577Y-6278284D01*
X7109921Y-6278284D01*
X7108121Y-6265712D01*
X7108121Y-6265711D01*
X7108045Y-6265182D01*
X7107785Y-6264610D01*
X7102539Y-6253072D01*
X7102317Y-6252584D01*
X7098266Y-6247882D01*
X7093634Y-6242506D01*
X7093633Y-6242506D01*
X7093284Y-6242101D01*
X7092835Y-6241810D01*
X7082121Y-6234865D01*
X7082121Y-6234865D01*
X7081672Y-6234574D01*
X7077043Y-6233190D01*
X7068927Y-6230763D01*
X7068927Y-6230763D01*
X7068414Y-6230609D01*
X7067879Y-6230606D01*
X7067878Y-6230606D01*
X7061692Y-6230568D01*
X7054576Y-6230525D01*
X7041271Y-6234327D01*
X7029567Y-6241712D01*
X7020407Y-6252084D01*
X7014526Y-6264610D01*
X7012397Y-6278284D01*
X6921961Y-6278284D01*
X6920161Y-6265712D01*
X6920161Y-6265711D01*
X6920085Y-6265182D01*
X6919825Y-6264610D01*
X6914579Y-6253072D01*
X6914357Y-6252584D01*
X6910306Y-6247882D01*
X6905674Y-6242506D01*
X6905673Y-6242506D01*
X6905324Y-6242101D01*
X6900240Y-6238805D01*
X6897141Y-6234700D01*
X6897405Y-6229563D01*
X6900395Y-6226087D01*
X6907519Y-6221712D01*
X6907520Y-6221712D01*
X6907976Y-6221432D01*
X6917263Y-6211172D01*
X6917990Y-6209671D01*
X6922708Y-6199932D01*
X6923296Y-6198719D01*
X6923752Y-6196012D01*
X6925069Y-6188181D01*
X6925592Y-6185072D01*
X6925607Y-6183880D01*
X6925507Y-6183184D01*
X6923721Y-6170712D01*
X6923721Y-6170711D01*
X6923645Y-6170182D01*
X6923385Y-6169610D01*
X6918139Y-6158072D01*
X6917917Y-6157584D01*
X6913663Y-6152647D01*
X6911841Y-6147837D01*
X6913537Y-6142980D01*
X6915425Y-6141330D01*
X6918939Y-6139172D01*
X6918940Y-6139172D01*
X6919396Y-6138892D01*
X6920824Y-6137314D01*
X6928323Y-6129030D01*
X6928323Y-6129030D01*
X6928683Y-6128632D01*
X6928916Y-6128150D01*
X6928997Y-6128031D01*
X6933159Y-6125007D01*
X6938290Y-6125366D01*
X6940988Y-6127397D01*
X6949669Y-6137724D01*
X6950115Y-6138021D01*
X6950115Y-6138021D01*
X6960742Y-6145095D01*
X6960742Y-6145095D01*
X6961188Y-6145392D01*
X6974397Y-6149519D01*
X6981547Y-6149650D01*
X6987696Y-6149763D01*
X6987697Y-6149763D01*
X6988233Y-6149772D01*
X6988750Y-6149631D01*
X6988750Y-6149631D01*
X6996031Y-6147646D01*
X7001583Y-6146133D01*
X7009405Y-6141330D01*
X7012919Y-6139172D01*
X7012920Y-6139172D01*
X7013376Y-6138892D01*
X7014805Y-6137314D01*
X7022479Y-6128835D01*
X7027027Y-6126432D01*
X7032056Y-6127514D01*
X7033811Y-6129042D01*
X7041109Y-6137724D01*
X7041555Y-6138021D01*
X7041555Y-6138021D01*
X7052182Y-6145095D01*
X7052182Y-6145095D01*
X7052628Y-6145392D01*
X7065837Y-6149519D01*
X7072987Y-6149650D01*
X7079136Y-6149763D01*
X7079137Y-6149763D01*
X7079673Y-6149772D01*
X7080190Y-6149631D01*
X7080190Y-6149631D01*
X7087471Y-6147646D01*
X7093023Y-6146133D01*
X7100845Y-6141330D01*
X7104359Y-6139172D01*
X7104360Y-6139172D01*
X7104816Y-6138892D01*
X7106245Y-6137314D01*
X7113919Y-6128835D01*
X7118467Y-6126432D01*
X7123496Y-6127514D01*
X7125251Y-6129042D01*
X7132549Y-6137724D01*
X7132995Y-6138021D01*
X7132995Y-6138021D01*
X7143622Y-6145095D01*
X7143622Y-6145095D01*
X7144068Y-6145392D01*
X7157277Y-6149519D01*
X7164427Y-6149650D01*
X7170576Y-6149763D01*
X7170577Y-6149763D01*
X7171113Y-6149772D01*
X7171630Y-6149631D01*
X7171630Y-6149631D01*
X7178911Y-6147646D01*
X7184463Y-6146133D01*
X7192285Y-6141330D01*
X7195799Y-6139172D01*
X7195800Y-6139172D01*
X7196256Y-6138892D01*
X7197685Y-6137314D01*
X7205183Y-6129030D01*
X7205543Y-6128632D01*
X7205875Y-6127947D01*
X7205986Y-6127839D01*
X7206076Y-6127706D01*
X7206104Y-6127725D01*
X7209565Y-6124365D01*
X7214696Y-6123992D01*
X7218398Y-6126388D01*
X7219169Y-6127304D01*
X7219615Y-6127601D01*
X7219615Y-6127601D01*
X7230242Y-6134675D01*
X7230242Y-6134675D01*
X7230688Y-6134972D01*
X7243897Y-6139099D01*
X7251047Y-6139230D01*
X7257196Y-6139343D01*
X7257197Y-6139343D01*
X7257733Y-6139352D01*
X7258250Y-6139211D01*
X7258250Y-6139211D01*
X7266163Y-6137054D01*
X7271083Y-6135713D01*
X7277456Y-6131800D01*
X7282419Y-6128752D01*
X7282420Y-6128752D01*
X7282876Y-6128472D01*
X7283276Y-6128031D01*
X7286201Y-6124798D01*
X7292163Y-6118212D01*
X7294043Y-6114332D01*
X7295795Y-6110716D01*
X7298196Y-6105759D01*
X7298499Y-6103961D01*
X7300444Y-6092399D01*
X7300492Y-6092112D01*
X7300507Y-6090920D01*
X7300344Y-6089782D01*
X7298621Y-6077752D01*
X7298621Y-6077751D01*
X7298545Y-6077222D01*
X7297555Y-6075044D01*
X7294276Y-6067832D01*
X7293877Y-6062704D01*
X7296868Y-6058519D01*
X7301122Y-6057200D01*
X8265580Y-6057200D01*
X8270414Y-6058959D01*
X8272986Y-6063414D01*
X8273100Y-6064720D01*
X8273100Y-6103584D01*
X8271341Y-6108418D01*
X8266886Y-6110990D01*
X8261490Y-6109895D01*
X8250072Y-6102494D01*
X8244218Y-6100744D01*
X8237327Y-6098683D01*
X8237327Y-6098683D01*
X8236814Y-6098529D01*
X8236279Y-6098526D01*
X8236278Y-6098526D01*
X8230092Y-6098488D01*
X8222976Y-6098445D01*
X8209671Y-6102247D01*
X8197967Y-6109632D01*
X8197010Y-6110716D01*
X8194614Y-6113428D01*
X8190096Y-6115887D01*
X8185054Y-6114866D01*
X8183281Y-6113359D01*
X8180404Y-6110021D01*
X8179955Y-6109730D01*
X8169241Y-6102785D01*
X8169241Y-6102785D01*
X8168792Y-6102494D01*
X8162938Y-6100744D01*
X8156047Y-6098683D01*
X8156047Y-6098683D01*
X8155534Y-6098529D01*
X8154999Y-6098526D01*
X8154998Y-6098526D01*
X8148812Y-6098488D01*
X8141696Y-6098445D01*
X8128391Y-6102247D01*
X8116699Y-6109624D01*
X8111672Y-6110716D01*
X8108596Y-6109575D01*
X8097672Y-6102494D01*
X8091818Y-6100744D01*
X8084927Y-6098683D01*
X8084927Y-6098683D01*
X8084414Y-6098529D01*
X8083879Y-6098526D01*
X8083878Y-6098526D01*
X8077692Y-6098488D01*
X8070576Y-6098445D01*
X8057271Y-6102247D01*
X8045567Y-6109632D01*
X8036407Y-6120004D01*
X8036179Y-6120489D01*
X8036179Y-6120489D01*
X8034200Y-6124704D01*
X8030526Y-6132530D01*
X8028397Y-6146204D01*
X8028466Y-6146734D01*
X8028466Y-6146735D01*
X8028775Y-6149099D01*
X8030191Y-6159925D01*
X8035764Y-6172591D01*
X8044669Y-6183184D01*
X8045115Y-6183481D01*
X8045115Y-6183481D01*
X8055742Y-6190555D01*
X8055742Y-6190555D01*
X8056188Y-6190852D01*
X8069397Y-6194979D01*
X8076547Y-6195110D01*
X8082696Y-6195223D01*
X8082697Y-6195223D01*
X8083233Y-6195232D01*
X8083750Y-6195091D01*
X8083750Y-6195091D01*
X8091031Y-6193106D01*
X8096583Y-6191593D01*
X8102623Y-6187884D01*
X8107919Y-6184632D01*
X8107920Y-6184632D01*
X8108376Y-6184352D01*
X8108397Y-6184385D01*
X8112923Y-6182765D01*
X8117051Y-6184025D01*
X8120599Y-6186386D01*
X8126862Y-6190555D01*
X8126862Y-6190555D01*
X8127308Y-6190852D01*
X8140517Y-6194979D01*
X8147667Y-6195110D01*
X8153816Y-6195223D01*
X8153817Y-6195223D01*
X8154353Y-6195232D01*
X8154870Y-6195091D01*
X8154870Y-6195091D01*
X8162151Y-6193106D01*
X8167703Y-6191593D01*
X8173743Y-6187884D01*
X8179039Y-6184632D01*
X8179040Y-6184632D01*
X8179496Y-6184352D01*
X8179856Y-6183954D01*
X8183331Y-6180115D01*
X8187880Y-6177712D01*
X8192908Y-6178794D01*
X8194663Y-6180322D01*
X8197069Y-6183184D01*
X8197515Y-6183481D01*
X8197515Y-6183481D01*
X8208142Y-6190555D01*
X8208142Y-6190555D01*
X8208588Y-6190852D01*
X8221797Y-6194979D01*
X8228947Y-6195110D01*
X8235096Y-6195223D01*
X8235097Y-6195223D01*
X8235633Y-6195232D01*
X8236150Y-6195091D01*
X8236150Y-6195091D01*
X8243431Y-6193106D01*
X8248983Y-6191593D01*
X8260776Y-6184352D01*
X8260908Y-6184206D01*
X8265619Y-6182519D01*
X8270444Y-6184303D01*
X8272992Y-6188771D01*
X8273100Y-6190039D01*
X8273100Y-6609044D01*
X8271341Y-6613878D01*
X8266886Y-6616450D01*
X8261490Y-6615355D01*
X8252258Y-6609371D01*
X8250521Y-6608245D01*
X8250521Y-6608245D01*
X8250072Y-6607954D01*
X8245443Y-6606570D01*
X8237327Y-6604143D01*
X8237327Y-6604143D01*
X8236814Y-6603989D01*
X8236279Y-6603986D01*
X8236278Y-6603986D01*
X8230092Y-6603948D01*
X8222976Y-6603905D01*
X8209671Y-6607707D01*
X8197967Y-6615092D01*
X8197613Y-6615493D01*
X8197612Y-6615493D01*
X8193946Y-6619645D01*
X8189428Y-6622103D01*
X8184386Y-6621082D01*
X8182613Y-6619576D01*
X8179434Y-6615887D01*
X8179434Y-6615886D01*
X8179084Y-6615481D01*
X8178635Y-6615190D01*
X8167921Y-6608245D01*
X8167921Y-6608245D01*
X8167472Y-6607954D01*
X8162843Y-6606570D01*
X8154727Y-6604143D01*
X8154727Y-6604143D01*
X8154214Y-6603989D01*
X8153679Y-6603986D01*
X8153678Y-6603986D01*
X8147492Y-6603948D01*
X8140376Y-6603905D01*
X8127071Y-6607707D01*
X8115367Y-6615092D01*
X8115013Y-6615493D01*
X8115013Y-6615493D01*
X8112682Y-6618132D01*
X8108164Y-6620590D01*
X8103122Y-6619569D01*
X8101349Y-6618063D01*
X8099474Y-6615887D01*
X8099474Y-6615886D01*
X8099124Y-6615481D01*
X8098675Y-6615190D01*
X8087961Y-6608245D01*
X8087961Y-6608245D01*
X8087512Y-6607954D01*
X8082883Y-6606570D01*
X8074767Y-6604143D01*
X8074767Y-6604143D01*
X8074254Y-6603989D01*
X8073719Y-6603986D01*
X8073718Y-6603986D01*
X8067532Y-6603948D01*
X8060416Y-6603905D01*
X8047111Y-6607707D01*
X8035407Y-6615092D01*
X8026247Y-6625464D01*
X8026019Y-6625949D01*
X8026019Y-6625949D01*
X8023552Y-6631205D01*
X8020366Y-6637990D01*
X8018237Y-6651664D01*
X8018306Y-6652194D01*
X8018306Y-6652195D01*
X8018983Y-6657371D01*
X8020031Y-6665385D01*
X8025604Y-6678051D01*
X8034509Y-6688644D01*
X8034955Y-6688941D01*
X8034955Y-6688941D01*
X8045582Y-6696015D01*
X8045582Y-6696015D01*
X8046028Y-6696312D01*
X8059237Y-6700439D01*
X8066387Y-6700570D01*
X8072536Y-6700683D01*
X8072537Y-6700683D01*
X8073073Y-6700692D01*
X8073590Y-6700551D01*
X8073590Y-6700551D01*
X8080871Y-6698566D01*
X8086423Y-6697053D01*
X8091498Y-6693937D01*
X8097759Y-6690092D01*
X8097760Y-6690092D01*
X8098216Y-6689812D01*
X8100280Y-6687532D01*
X8101367Y-6686331D01*
X8105915Y-6683928D01*
X8110944Y-6685011D01*
X8112699Y-6686538D01*
X8114469Y-6688644D01*
X8114915Y-6688941D01*
X8114915Y-6688941D01*
X8125542Y-6696015D01*
X8125542Y-6696015D01*
X8125988Y-6696312D01*
X8139197Y-6700439D01*
X8146347Y-6700570D01*
X8152496Y-6700683D01*
X8152497Y-6700683D01*
X8153033Y-6700692D01*
X8153550Y-6700551D01*
X8153550Y-6700551D01*
X8160831Y-6698566D01*
X8166383Y-6697053D01*
X8171458Y-6693937D01*
X8177719Y-6690092D01*
X8177720Y-6690092D01*
X8178176Y-6689812D01*
X8180240Y-6687532D01*
X8182696Y-6684819D01*
X8187244Y-6682416D01*
X8192273Y-6683498D01*
X8194027Y-6685026D01*
X8197069Y-6688644D01*
X8197515Y-6688941D01*
X8197515Y-6688941D01*
X8208142Y-6696015D01*
X8208142Y-6696015D01*
X8208588Y-6696312D01*
X8221797Y-6700439D01*
X8228947Y-6700570D01*
X8235096Y-6700683D01*
X8235097Y-6700683D01*
X8235633Y-6700692D01*
X8236150Y-6700551D01*
X8236150Y-6700551D01*
X8243431Y-6698566D01*
X8248983Y-6697053D01*
X8260776Y-6689812D01*
X8260908Y-6689666D01*
X8265619Y-6687979D01*
X8270444Y-6689763D01*
X8272992Y-6694231D01*
X8273100Y-6695499D01*
X8273100Y-6861398D01*
X8271341Y-6866232D01*
X8266886Y-6868804D01*
X8261490Y-6867708D01*
X8253061Y-6862245D01*
X8253061Y-6862245D01*
X8252612Y-6861954D01*
X8247983Y-6860570D01*
X8239867Y-6858143D01*
X8239867Y-6858143D01*
X8239354Y-6857989D01*
X8238819Y-6857986D01*
X8238818Y-6857986D01*
X8232632Y-6857948D01*
X8225516Y-6857905D01*
X8212211Y-6861707D01*
X8200507Y-6869092D01*
X8200153Y-6869493D01*
X8195200Y-6875101D01*
X8190682Y-6877559D01*
X8185640Y-6876538D01*
X8183867Y-6875031D01*
X8179434Y-6869887D01*
X8179434Y-6869886D01*
X8179084Y-6869481D01*
X8178635Y-6869190D01*
X8167921Y-6862245D01*
X8167921Y-6862245D01*
X8167472Y-6861954D01*
X8162843Y-6860570D01*
X8154727Y-6858143D01*
X8154727Y-6858143D01*
X8154214Y-6857989D01*
X8153679Y-6857986D01*
X8153678Y-6857986D01*
X8147492Y-6857948D01*
X8140376Y-6857905D01*
X8127071Y-6861707D01*
X8115367Y-6869092D01*
X8115013Y-6869493D01*
X8113968Y-6870676D01*
X8109449Y-6873135D01*
X8104408Y-6872113D01*
X8102635Y-6870607D01*
X8102014Y-6869887D01*
X8102014Y-6869887D01*
X8101664Y-6869481D01*
X8101215Y-6869190D01*
X8090501Y-6862245D01*
X8090501Y-6862245D01*
X8090052Y-6861954D01*
X8085423Y-6860570D01*
X8077307Y-6858143D01*
X8077307Y-6858143D01*
X8076794Y-6857989D01*
X8076259Y-6857986D01*
X8076258Y-6857986D01*
X8070072Y-6857948D01*
X8062956Y-6857905D01*
X8049651Y-6861707D01*
X8037947Y-6869092D01*
X8028787Y-6879464D01*
X8022906Y-6891990D01*
X8020777Y-6905664D01*
X8020846Y-6906194D01*
X8020846Y-6906195D01*
X8020893Y-6906551D01*
X8022571Y-6919385D01*
X8028144Y-6932051D01*
X8037049Y-6942644D01*
X8037495Y-6942941D01*
X8037495Y-6942941D01*
X8048122Y-6950015D01*
X8048122Y-6950015D01*
X8048568Y-6950312D01*
X8061777Y-6954439D01*
X8068927Y-6954570D01*
X8075076Y-6954683D01*
X8075077Y-6954683D01*
X8075613Y-6954692D01*
X8076130Y-6954551D01*
X8076130Y-6954551D01*
X8083411Y-6952566D01*
X8088963Y-6951053D01*
X8100756Y-6943812D01*
X8101116Y-6943415D01*
X8101116Y-6943415D01*
X8102590Y-6941786D01*
X8107138Y-6939383D01*
X8112167Y-6940465D01*
X8113922Y-6941993D01*
X8114469Y-6942644D01*
X8114915Y-6942941D01*
X8114915Y-6942941D01*
X8125542Y-6950015D01*
X8125542Y-6950015D01*
X8125988Y-6950312D01*
X8139197Y-6954439D01*
X8146347Y-6954570D01*
X8152496Y-6954683D01*
X8152497Y-6954683D01*
X8153033Y-6954692D01*
X8153550Y-6954551D01*
X8153550Y-6954551D01*
X8160831Y-6952566D01*
X8166383Y-6951053D01*
X8174394Y-6946134D01*
X8177719Y-6944092D01*
X8177720Y-6944092D01*
X8178176Y-6943812D01*
X8179604Y-6942234D01*
X8184013Y-6937364D01*
X8188561Y-6934961D01*
X8193590Y-6936043D01*
X8195344Y-6937571D01*
X8199609Y-6942644D01*
X8200055Y-6942941D01*
X8200055Y-6942941D01*
X8210682Y-6950015D01*
X8210682Y-6950015D01*
X8211128Y-6950312D01*
X8224337Y-6954439D01*
X8231487Y-6954570D01*
X8237636Y-6954683D01*
X8237637Y-6954683D01*
X8238173Y-6954692D01*
X8238690Y-6954551D01*
X8238690Y-6954551D01*
X8245971Y-6952566D01*
X8251523Y-6951053D01*
X8261645Y-6944838D01*
X8266685Y-6943808D01*
X8271208Y-6946258D01*
X8273100Y-6951246D01*
X8273100Y-7117044D01*
X8271341Y-7121878D01*
X8266886Y-7124450D01*
X8261490Y-7123355D01*
X8251754Y-7117044D01*
X8250521Y-7116245D01*
X8250521Y-7116245D01*
X8250072Y-7115954D01*
X8243128Y-7113878D01*
X8237327Y-7112143D01*
X8237327Y-7112143D01*
X8236814Y-7111989D01*
X8236279Y-7111986D01*
X8236278Y-7111986D01*
X8230092Y-7111948D01*
X8222976Y-7111905D01*
X8209671Y-7115707D01*
X8197967Y-7123092D01*
X8197613Y-7123493D01*
X8197612Y-7123493D01*
X8193946Y-7127645D01*
X8189428Y-7130103D01*
X8184386Y-7129082D01*
X8182613Y-7127576D01*
X8179434Y-7123887D01*
X8179434Y-7123886D01*
X8179084Y-7123481D01*
X8178635Y-7123190D01*
X8167921Y-7116245D01*
X8167921Y-7116245D01*
X8167472Y-7115954D01*
X8160528Y-7113878D01*
X8154727Y-7112143D01*
X8154727Y-7112143D01*
X8154214Y-7111989D01*
X8153679Y-7111986D01*
X8153678Y-7111986D01*
X8147492Y-7111948D01*
X8140376Y-7111905D01*
X8127071Y-7115707D01*
X8115367Y-7123092D01*
X8115334Y-7123039D01*
X8110889Y-7124692D01*
X8106909Y-7123227D01*
X8106744Y-7123481D01*
X8095581Y-7116245D01*
X8095581Y-7116245D01*
X8095132Y-7115954D01*
X8088188Y-7113878D01*
X8082387Y-7112143D01*
X8082387Y-7112143D01*
X8081874Y-7111989D01*
X8081339Y-7111986D01*
X8081338Y-7111986D01*
X8075152Y-7111948D01*
X8068036Y-7111905D01*
X8054731Y-7115707D01*
X8043027Y-7123092D01*
X8033867Y-7133464D01*
X8033639Y-7133949D01*
X8033639Y-7133949D01*
X8031421Y-7138673D01*
X8027986Y-7145990D01*
X8025857Y-7159664D01*
X8025926Y-7160194D01*
X8025926Y-7160195D01*
X8026128Y-7161739D01*
X8027651Y-7173385D01*
X8033224Y-7186051D01*
X8042129Y-7196644D01*
X8042575Y-7196941D01*
X8042575Y-7196941D01*
X8053202Y-7204015D01*
X8053202Y-7204015D01*
X8053648Y-7204312D01*
X8066857Y-7208439D01*
X8074007Y-7208570D01*
X8080156Y-7208683D01*
X8080157Y-7208683D01*
X8080693Y-7208692D01*
X8081210Y-7208551D01*
X8081210Y-7208551D01*
X8088491Y-7206566D01*
X8094043Y-7205053D01*
X8105836Y-7197812D01*
X8106125Y-7197493D01*
X8110926Y-7195774D01*
X8115054Y-7197034D01*
X8116644Y-7198092D01*
X8125542Y-7204015D01*
X8125542Y-7204015D01*
X8125988Y-7204312D01*
X8139197Y-7208439D01*
X8146347Y-7208570D01*
X8152496Y-7208683D01*
X8152497Y-7208683D01*
X8153033Y-7208692D01*
X8153550Y-7208551D01*
X8153550Y-7208551D01*
X8160831Y-7206566D01*
X8166383Y-7205053D01*
X8171458Y-7201937D01*
X8177719Y-7198092D01*
X8177720Y-7198092D01*
X8178176Y-7197812D01*
X8180021Y-7195774D01*
X8182696Y-7192819D01*
X8187244Y-7190416D01*
X8192273Y-7191498D01*
X8194027Y-7193026D01*
X8197069Y-7196644D01*
X8197515Y-7196941D01*
X8197515Y-7196941D01*
X8208142Y-7204015D01*
X8208142Y-7204015D01*
X8208588Y-7204312D01*
X8221797Y-7208439D01*
X8228947Y-7208570D01*
X8235096Y-7208683D01*
X8235097Y-7208683D01*
X8235633Y-7208692D01*
X8236150Y-7208551D01*
X8236150Y-7208551D01*
X8243431Y-7206566D01*
X8248983Y-7205053D01*
X8260776Y-7197812D01*
X8260908Y-7197666D01*
X8265619Y-7195979D01*
X8270444Y-7197763D01*
X8272992Y-7202231D01*
X8273100Y-7203499D01*
X8273100Y-7379325D01*
X8271341Y-7384159D01*
X8266886Y-7386731D01*
X8261820Y-7385838D01*
X8259883Y-7384234D01*
X8254414Y-7377886D01*
X8254413Y-7377886D01*
X8254064Y-7377481D01*
X8253615Y-7377190D01*
X8242901Y-7370245D01*
X8242901Y-7370245D01*
X8242452Y-7369954D01*
X8237823Y-7368570D01*
X8229707Y-7366143D01*
X8229707Y-7366143D01*
X8229194Y-7365989D01*
X8228659Y-7365986D01*
X8228658Y-7365986D01*
X8222472Y-7365948D01*
X8215356Y-7365905D01*
X8202051Y-7369707D01*
X8190347Y-7377092D01*
X8189993Y-7377493D01*
X8189585Y-7377840D01*
X8189458Y-7377692D01*
X8185631Y-7379774D01*
X8180589Y-7378753D01*
X8179569Y-7378005D01*
X8179434Y-7377887D01*
X8179084Y-7377481D01*
X8167472Y-7369954D01*
X8162843Y-7368570D01*
X8154727Y-7366143D01*
X8154727Y-7366143D01*
X8154214Y-7365989D01*
X8153679Y-7365986D01*
X8153678Y-7365986D01*
X8147492Y-7365948D01*
X8140376Y-7365905D01*
X8127071Y-7369707D01*
X8115367Y-7377092D01*
X8115334Y-7377039D01*
X8110889Y-7378692D01*
X8106909Y-7377227D01*
X8106744Y-7377481D01*
X8095581Y-7370245D01*
X8095581Y-7370245D01*
X8095132Y-7369954D01*
X8090503Y-7368570D01*
X8082387Y-7366143D01*
X8082387Y-7366143D01*
X8081874Y-7365989D01*
X8081339Y-7365986D01*
X8081338Y-7365986D01*
X8075152Y-7365948D01*
X8068036Y-7365905D01*
X8054731Y-7369707D01*
X8043027Y-7377092D01*
X8033867Y-7387464D01*
X8033639Y-7387949D01*
X8033639Y-7387949D01*
X8031981Y-7391481D01*
X8027986Y-7399990D01*
X8025857Y-7413664D01*
X8025926Y-7414194D01*
X8025926Y-7414195D01*
X8026091Y-7415452D01*
X8027651Y-7427385D01*
X8033224Y-7440051D01*
X8042129Y-7450644D01*
X8042575Y-7450941D01*
X8042575Y-7450941D01*
X8053202Y-7458015D01*
X8053202Y-7458015D01*
X8053648Y-7458312D01*
X8066857Y-7462439D01*
X8074007Y-7462570D01*
X8080156Y-7462683D01*
X8080157Y-7462683D01*
X8080693Y-7462692D01*
X8081210Y-7462551D01*
X8081210Y-7462551D01*
X8089292Y-7460348D01*
X8094043Y-7459053D01*
X8105836Y-7451812D01*
X8106125Y-7451493D01*
X8110926Y-7449774D01*
X8115054Y-7451034D01*
X8116644Y-7452092D01*
X8125542Y-7458015D01*
X8125542Y-7458015D01*
X8125988Y-7458312D01*
X8139197Y-7462439D01*
X8146347Y-7462570D01*
X8152496Y-7462683D01*
X8152497Y-7462683D01*
X8153033Y-7462692D01*
X8153550Y-7462551D01*
X8153550Y-7462551D01*
X8161632Y-7460348D01*
X8166383Y-7459053D01*
X8171458Y-7455937D01*
X8177719Y-7452092D01*
X8177720Y-7452092D01*
X8178176Y-7451812D01*
X8178838Y-7451081D01*
X8183386Y-7448678D01*
X8188415Y-7449761D01*
X8189208Y-7450358D01*
X8189449Y-7450644D01*
X8189895Y-7450941D01*
X8189895Y-7450941D01*
X8200522Y-7458015D01*
X8200522Y-7458015D01*
X8200968Y-7458312D01*
X8214177Y-7462439D01*
X8221327Y-7462570D01*
X8227476Y-7462683D01*
X8227477Y-7462683D01*
X8228013Y-7462692D01*
X8228530Y-7462551D01*
X8228530Y-7462551D01*
X8236612Y-7460348D01*
X8241363Y-7459053D01*
X8246438Y-7455937D01*
X8252699Y-7452092D01*
X8252700Y-7452092D01*
X8253156Y-7451812D01*
X8260005Y-7444246D01*
X8264553Y-7441843D01*
X8269582Y-7442925D01*
X8272738Y-7446987D01*
X8273100Y-7449292D01*
X8273100Y-7498880D01*
X8271341Y-7503714D01*
X8266886Y-7506286D01*
X8265580Y-7506400D01*
X5901742Y-7506400D01*
X5900275Y-7506255D01*
X5900173Y-7506235D01*
X5898500Y-7505902D01*
X5897773Y-7506047D01*
X5897325Y-7506047D01*
X5895717Y-7506126D01*
X5887037Y-7505271D01*
X5884683Y-7505039D01*
X5883237Y-7504752D01*
X5870661Y-7500936D01*
X5869299Y-7500372D01*
X5857708Y-7494177D01*
X5856482Y-7493358D01*
X5846322Y-7485020D01*
X5845280Y-7483978D01*
X5836942Y-7473818D01*
X5836123Y-7472592D01*
X5829928Y-7461001D01*
X5829364Y-7459639D01*
X5825548Y-7447062D01*
X5825261Y-7445617D01*
X5824174Y-7434583D01*
X5824253Y-7432975D01*
X5824253Y-7432526D01*
X5824398Y-7431800D01*
X5824044Y-7430025D01*
X5823900Y-7428558D01*
X5823900Y-7357784D01*
X7230837Y-7357784D01*
X7230906Y-7358314D01*
X7230906Y-7358315D01*
X7231841Y-7365461D01*
X7232631Y-7371505D01*
X7238204Y-7384171D01*
X7247109Y-7394764D01*
X7247555Y-7395061D01*
X7247555Y-7395061D01*
X7258182Y-7402135D01*
X7258182Y-7402135D01*
X7258628Y-7402432D01*
X7271837Y-7406559D01*
X7278987Y-7406690D01*
X7285136Y-7406803D01*
X7285137Y-7406803D01*
X7285673Y-7406812D01*
X7286190Y-7406671D01*
X7286190Y-7406671D01*
X7296541Y-7403850D01*
X7299023Y-7403173D01*
X7304997Y-7399505D01*
X7310359Y-7396212D01*
X7310360Y-7396212D01*
X7310816Y-7395932D01*
X7320103Y-7385672D01*
X7320830Y-7384171D01*
X7323995Y-7377639D01*
X7325000Y-7375564D01*
X7535637Y-7375564D01*
X7535706Y-7376094D01*
X7535706Y-7376095D01*
X7536187Y-7379774D01*
X7537431Y-7389285D01*
X7543004Y-7401951D01*
X7551909Y-7412544D01*
X7552355Y-7412841D01*
X7552355Y-7412841D01*
X7562982Y-7419915D01*
X7562982Y-7419915D01*
X7563428Y-7420212D01*
X7576637Y-7424339D01*
X7583787Y-7424470D01*
X7589936Y-7424583D01*
X7589937Y-7424583D01*
X7590473Y-7424592D01*
X7590990Y-7424451D01*
X7590990Y-7424451D01*
X7598271Y-7422466D01*
X7603823Y-7420953D01*
X7612781Y-7415452D01*
X7615159Y-7413992D01*
X7615160Y-7413992D01*
X7615616Y-7413712D01*
X7624903Y-7403452D01*
X7625397Y-7402432D01*
X7630703Y-7391481D01*
X7630936Y-7390999D01*
X7631599Y-7387062D01*
X7632412Y-7382226D01*
X7633232Y-7377352D01*
X7633236Y-7377039D01*
X7633243Y-7376451D01*
X7633247Y-7376160D01*
X7632826Y-7373219D01*
X7631361Y-7362992D01*
X7631361Y-7362991D01*
X7631285Y-7362462D01*
X7631025Y-7361890D01*
X7626620Y-7352202D01*
X7625557Y-7349864D01*
X7620599Y-7344110D01*
X7616874Y-7339786D01*
X7616873Y-7339786D01*
X7616524Y-7339381D01*
X7616075Y-7339090D01*
X7605361Y-7332145D01*
X7605361Y-7332145D01*
X7604912Y-7331854D01*
X7600283Y-7330470D01*
X7592167Y-7328043D01*
X7592167Y-7328043D01*
X7591654Y-7327889D01*
X7591119Y-7327886D01*
X7591118Y-7327886D01*
X7584932Y-7327848D01*
X7577816Y-7327805D01*
X7564511Y-7331607D01*
X7552807Y-7338992D01*
X7543647Y-7349364D01*
X7543419Y-7349849D01*
X7543419Y-7349849D01*
X7540901Y-7355212D01*
X7537766Y-7361890D01*
X7535637Y-7375564D01*
X7325000Y-7375564D01*
X7326136Y-7373219D01*
X7326727Y-7369707D01*
X7327857Y-7362992D01*
X7328432Y-7359572D01*
X7328447Y-7358380D01*
X7327561Y-7352193D01*
X7326561Y-7345212D01*
X7326561Y-7345211D01*
X7326485Y-7344682D01*
X7326225Y-7344110D01*
X7320979Y-7332572D01*
X7320757Y-7332084D01*
X7314148Y-7324414D01*
X7312074Y-7322006D01*
X7312073Y-7322006D01*
X7311724Y-7321601D01*
X7311275Y-7321310D01*
X7300561Y-7314365D01*
X7300561Y-7314365D01*
X7300112Y-7314074D01*
X7295053Y-7312561D01*
X7287367Y-7310263D01*
X7287367Y-7310263D01*
X7286854Y-7310109D01*
X7286319Y-7310106D01*
X7286318Y-7310106D01*
X7280132Y-7310068D01*
X7273016Y-7310025D01*
X7259711Y-7313827D01*
X7248007Y-7321212D01*
X7238847Y-7331584D01*
X7238619Y-7332069D01*
X7238619Y-7332069D01*
X7236764Y-7336021D01*
X7232966Y-7344110D01*
X7230837Y-7357784D01*
X5823900Y-7357784D01*
X5823900Y-7257254D01*
X5825659Y-7252421D01*
X5830114Y-7249849D01*
X5835180Y-7250742D01*
X5837477Y-7252797D01*
X5843487Y-7260964D01*
X5846904Y-7265607D01*
X5860312Y-7276998D01*
X5875981Y-7284999D01*
X5893071Y-7289181D01*
X5893405Y-7289202D01*
X5893405Y-7289202D01*
X5893740Y-7289223D01*
X5894181Y-7289250D01*
X5966865Y-7289250D01*
X5967081Y-7289225D01*
X5967082Y-7289225D01*
X5971367Y-7288725D01*
X5979935Y-7287726D01*
X5980346Y-7287577D01*
X5980346Y-7287577D01*
X5996063Y-7281872D01*
X5996063Y-7281872D01*
X5996473Y-7281723D01*
X6008922Y-7273562D01*
X6010822Y-7272316D01*
X6010822Y-7272316D01*
X6011187Y-7272077D01*
X6012923Y-7270244D01*
X6022098Y-7260558D01*
X6023286Y-7259304D01*
X6024806Y-7256688D01*
X6027667Y-7251762D01*
X6032123Y-7244090D01*
X6032514Y-7242801D01*
X6037096Y-7227670D01*
X6037096Y-7227670D01*
X6037223Y-7227252D01*
X6037803Y-7217908D01*
X6219608Y-7217908D01*
X6222587Y-7235248D01*
X6222758Y-7235650D01*
X6229074Y-7250493D01*
X6229476Y-7251437D01*
X6239904Y-7265607D01*
X6253312Y-7276998D01*
X6268981Y-7284999D01*
X6286071Y-7289181D01*
X6286405Y-7289202D01*
X6286405Y-7289202D01*
X6286740Y-7289223D01*
X6287181Y-7289250D01*
X6409865Y-7289250D01*
X6410081Y-7289225D01*
X6410082Y-7289225D01*
X6414367Y-7288725D01*
X6422935Y-7287726D01*
X6423346Y-7287577D01*
X6423346Y-7287577D01*
X6430995Y-7284801D01*
X6433916Y-7283741D01*
X6439059Y-7283745D01*
X6442997Y-7287055D01*
X6443912Y-7291966D01*
X6442684Y-7299853D01*
X6442167Y-7303174D01*
X6443961Y-7316895D01*
X6449534Y-7329561D01*
X6458439Y-7340154D01*
X6458885Y-7340451D01*
X6458885Y-7340451D01*
X6469512Y-7347525D01*
X6469512Y-7347525D01*
X6469958Y-7347822D01*
X6483167Y-7351949D01*
X6490317Y-7352080D01*
X6496466Y-7352193D01*
X6496467Y-7352193D01*
X6497003Y-7352202D01*
X6497520Y-7352061D01*
X6497520Y-7352061D01*
X6507414Y-7349364D01*
X6510353Y-7348563D01*
X6522146Y-7341322D01*
X6522506Y-7340925D01*
X6522506Y-7340925D01*
X6524769Y-7338424D01*
X6529318Y-7336021D01*
X6534346Y-7337103D01*
X6536101Y-7338631D01*
X6538449Y-7341424D01*
X6538895Y-7341721D01*
X6538895Y-7341721D01*
X6549522Y-7348795D01*
X6549522Y-7348795D01*
X6549968Y-7349092D01*
X6563177Y-7353219D01*
X6570327Y-7353350D01*
X6576476Y-7353463D01*
X6576477Y-7353463D01*
X6577013Y-7353472D01*
X6577530Y-7353331D01*
X6577530Y-7353331D01*
X6588457Y-7350352D01*
X6590363Y-7349833D01*
X6595438Y-7346717D01*
X6601699Y-7342872D01*
X6601700Y-7342872D01*
X6602156Y-7342592D01*
X6611443Y-7332332D01*
X6611937Y-7331312D01*
X6617243Y-7320361D01*
X6617476Y-7319879D01*
X6618404Y-7314365D01*
X6619724Y-7306519D01*
X6619772Y-7306232D01*
X6619787Y-7305040D01*
X6619596Y-7303705D01*
X6617901Y-7291872D01*
X6617901Y-7291871D01*
X6617825Y-7291342D01*
X6616988Y-7289500D01*
X6615698Y-7286664D01*
X7431497Y-7286664D01*
X7431566Y-7287194D01*
X7431566Y-7287195D01*
X7432190Y-7291966D01*
X7433291Y-7300385D01*
X7438864Y-7313051D01*
X7447769Y-7323644D01*
X7448215Y-7323941D01*
X7448215Y-7323941D01*
X7458842Y-7331015D01*
X7458842Y-7331015D01*
X7459288Y-7331312D01*
X7472497Y-7335439D01*
X7479647Y-7335570D01*
X7485796Y-7335683D01*
X7485797Y-7335683D01*
X7486333Y-7335692D01*
X7486850Y-7335551D01*
X7486850Y-7335551D01*
X7497777Y-7332572D01*
X7499683Y-7332053D01*
X7506596Y-7327808D01*
X7511019Y-7325092D01*
X7511020Y-7325092D01*
X7511476Y-7324812D01*
X7520763Y-7314552D01*
X7521490Y-7313051D01*
X7526018Y-7303705D01*
X7526796Y-7302099D01*
X7529092Y-7288452D01*
X7529107Y-7287260D01*
X7528798Y-7285103D01*
X7527221Y-7274092D01*
X7527221Y-7274091D01*
X7527145Y-7273562D01*
X7526885Y-7272990D01*
X7521639Y-7261452D01*
X7521417Y-7260964D01*
X7516762Y-7255562D01*
X7512734Y-7250886D01*
X7512733Y-7250886D01*
X7512384Y-7250481D01*
X7511935Y-7250190D01*
X7501221Y-7243245D01*
X7501221Y-7243245D01*
X7500772Y-7242954D01*
X7496143Y-7241570D01*
X7488027Y-7239143D01*
X7488027Y-7239143D01*
X7487514Y-7238989D01*
X7486979Y-7238986D01*
X7486978Y-7238986D01*
X7480792Y-7238948D01*
X7473676Y-7238905D01*
X7460371Y-7242707D01*
X7448667Y-7250092D01*
X7439507Y-7260464D01*
X7439279Y-7260949D01*
X7439279Y-7260949D01*
X7439043Y-7261452D01*
X7433626Y-7272990D01*
X7431497Y-7286664D01*
X6615698Y-7286664D01*
X6612319Y-7279232D01*
X6612097Y-7278744D01*
X6606951Y-7272772D01*
X6603414Y-7268666D01*
X6603413Y-7268666D01*
X6603064Y-7268261D01*
X6602615Y-7267970D01*
X6591901Y-7261025D01*
X6591901Y-7261025D01*
X6591452Y-7260734D01*
X6585406Y-7258926D01*
X6578707Y-7256923D01*
X6578707Y-7256923D01*
X6578194Y-7256769D01*
X6577659Y-7256766D01*
X6577658Y-7256766D01*
X6571472Y-7256728D01*
X6564356Y-7256685D01*
X6551051Y-7260487D01*
X6539347Y-7267872D01*
X6538646Y-7268666D01*
X6537191Y-7270313D01*
X6532673Y-7272772D01*
X6527631Y-7271751D01*
X6525858Y-7270244D01*
X6523404Y-7267397D01*
X6523404Y-7267396D01*
X6523054Y-7266991D01*
X6514509Y-7261452D01*
X6511891Y-7259755D01*
X6511891Y-7259755D01*
X6511442Y-7259464D01*
X6506813Y-7258080D01*
X6498697Y-7255653D01*
X6498697Y-7255653D01*
X6498184Y-7255499D01*
X6497649Y-7255496D01*
X6497648Y-7255496D01*
X6491462Y-7255458D01*
X6484346Y-7255415D01*
X6483831Y-7255562D01*
X6483831Y-7255562D01*
X6483342Y-7255702D01*
X6478210Y-7255339D01*
X6474513Y-7251762D01*
X6473980Y-7246646D01*
X6474772Y-7244695D01*
X6475123Y-7244090D01*
X6475514Y-7242801D01*
X6480096Y-7227670D01*
X6480096Y-7227670D01*
X6480223Y-7227252D01*
X6480830Y-7217472D01*
X6481285Y-7210128D01*
X6481285Y-7210127D01*
X6481312Y-7209692D01*
X6478333Y-7192352D01*
X6471444Y-7176163D01*
X6461016Y-7161993D01*
X6458275Y-7159664D01*
X7472137Y-7159664D01*
X7472206Y-7160194D01*
X7472206Y-7160195D01*
X7472408Y-7161739D01*
X7473931Y-7173385D01*
X7479504Y-7186051D01*
X7488409Y-7196644D01*
X7488855Y-7196941D01*
X7488855Y-7196941D01*
X7499482Y-7204015D01*
X7499482Y-7204015D01*
X7499928Y-7204312D01*
X7513137Y-7208439D01*
X7520287Y-7208570D01*
X7526436Y-7208683D01*
X7526437Y-7208683D01*
X7526973Y-7208692D01*
X7527490Y-7208551D01*
X7527490Y-7208551D01*
X7534771Y-7206566D01*
X7540323Y-7205053D01*
X7545398Y-7201937D01*
X7551659Y-7198092D01*
X7551660Y-7198092D01*
X7552116Y-7197812D01*
X7561403Y-7187552D01*
X7562130Y-7186051D01*
X7567203Y-7175581D01*
X7567436Y-7175099D01*
X7568634Y-7167979D01*
X7569684Y-7161739D01*
X7569732Y-7161452D01*
X7569747Y-7160260D01*
X7569661Y-7159664D01*
X7644857Y-7159664D01*
X7644926Y-7160194D01*
X7644926Y-7160195D01*
X7645128Y-7161739D01*
X7646651Y-7173385D01*
X7652224Y-7186051D01*
X7661129Y-7196644D01*
X7661575Y-7196941D01*
X7661575Y-7196941D01*
X7672202Y-7204015D01*
X7672202Y-7204015D01*
X7672648Y-7204312D01*
X7685857Y-7208439D01*
X7693007Y-7208570D01*
X7699156Y-7208683D01*
X7699157Y-7208683D01*
X7699693Y-7208692D01*
X7700210Y-7208551D01*
X7700210Y-7208551D01*
X7707491Y-7206566D01*
X7713043Y-7205053D01*
X7718118Y-7201937D01*
X7724379Y-7198092D01*
X7724380Y-7198092D01*
X7724836Y-7197812D01*
X7734123Y-7187552D01*
X7734850Y-7186051D01*
X7739923Y-7175581D01*
X7740156Y-7175099D01*
X7741354Y-7167979D01*
X7742404Y-7161739D01*
X7742452Y-7161452D01*
X7742467Y-7160260D01*
X7741754Y-7155284D01*
X7740581Y-7147092D01*
X7740581Y-7147091D01*
X7740505Y-7146562D01*
X7740245Y-7145990D01*
X7735971Y-7136591D01*
X7734777Y-7133964D01*
X7729332Y-7127645D01*
X7726094Y-7123886D01*
X7726093Y-7123886D01*
X7725744Y-7123481D01*
X7725295Y-7123190D01*
X7714581Y-7116245D01*
X7714581Y-7116245D01*
X7714132Y-7115954D01*
X7707188Y-7113878D01*
X7701387Y-7112143D01*
X7701387Y-7112143D01*
X7700874Y-7111989D01*
X7700339Y-7111986D01*
X7700338Y-7111986D01*
X7694152Y-7111948D01*
X7687036Y-7111905D01*
X7673731Y-7115707D01*
X7662027Y-7123092D01*
X7652867Y-7133464D01*
X7652639Y-7133949D01*
X7652639Y-7133949D01*
X7650421Y-7138673D01*
X7646986Y-7145990D01*
X7644857Y-7159664D01*
X7569661Y-7159664D01*
X7569034Y-7155284D01*
X7567861Y-7147092D01*
X7567861Y-7147091D01*
X7567785Y-7146562D01*
X7567525Y-7145990D01*
X7563251Y-7136591D01*
X7562057Y-7133964D01*
X7556612Y-7127645D01*
X7553374Y-7123886D01*
X7553373Y-7123886D01*
X7553024Y-7123481D01*
X7552575Y-7123190D01*
X7541861Y-7116245D01*
X7541861Y-7116245D01*
X7541412Y-7115954D01*
X7534468Y-7113878D01*
X7528667Y-7112143D01*
X7528667Y-7112143D01*
X7528154Y-7111989D01*
X7527619Y-7111986D01*
X7527618Y-7111986D01*
X7521432Y-7111948D01*
X7514316Y-7111905D01*
X7501011Y-7115707D01*
X7489307Y-7123092D01*
X7480147Y-7133464D01*
X7479919Y-7133949D01*
X7479919Y-7133949D01*
X7477701Y-7138673D01*
X7474266Y-7145990D01*
X7472137Y-7159664D01*
X6458275Y-7159664D01*
X6447608Y-7150602D01*
X6431939Y-7142601D01*
X6414849Y-7138419D01*
X6414515Y-7138398D01*
X6414515Y-7138398D01*
X6414180Y-7138377D01*
X6413739Y-7138350D01*
X6323616Y-7138350D01*
X6318782Y-7136591D01*
X6316210Y-7132136D01*
X6317104Y-7127070D01*
X6320738Y-7123882D01*
X6326685Y-7121419D01*
X6336513Y-7113878D01*
X6338400Y-7112430D01*
X6338790Y-7112130D01*
X6348079Y-7100025D01*
X6351156Y-7092596D01*
X6353730Y-7086383D01*
X6353730Y-7086383D01*
X6353918Y-7085928D01*
X6355910Y-7070800D01*
X6353918Y-7055672D01*
X6352948Y-7053330D01*
X6349729Y-7045559D01*
X6348079Y-7041575D01*
X6339724Y-7030687D01*
X6339090Y-7029860D01*
X6338790Y-7029470D01*
X6334534Y-7026204D01*
X6495617Y-7026204D01*
X6495686Y-7026734D01*
X6495686Y-7026735D01*
X6496410Y-7032272D01*
X6497411Y-7039925D01*
X6502984Y-7052591D01*
X6511889Y-7063184D01*
X6512335Y-7063481D01*
X6512335Y-7063481D01*
X6522962Y-7070555D01*
X6522962Y-7070555D01*
X6523408Y-7070852D01*
X6536617Y-7074979D01*
X6543767Y-7075110D01*
X6549916Y-7075223D01*
X6549917Y-7075223D01*
X6550453Y-7075232D01*
X6550970Y-7075091D01*
X6550970Y-7075091D01*
X6558251Y-7073106D01*
X6563803Y-7071593D01*
X6573218Y-7065812D01*
X6575139Y-7064632D01*
X6575140Y-7064632D01*
X6575596Y-7064352D01*
X6575956Y-7063954D01*
X6576329Y-7063644D01*
X6581172Y-7061910D01*
X6585302Y-7063500D01*
X6585439Y-7063294D01*
X6596512Y-7070665D01*
X6596512Y-7070665D01*
X6596958Y-7070962D01*
X6610167Y-7075089D01*
X6617317Y-7075220D01*
X6623466Y-7075333D01*
X6623467Y-7075333D01*
X6624003Y-7075342D01*
X6624520Y-7075201D01*
X6624520Y-7075201D01*
X6631801Y-7073216D01*
X6637353Y-7071703D01*
X6643589Y-7067874D01*
X6648689Y-7064742D01*
X6648690Y-7064742D01*
X6649146Y-7064462D01*
X6658433Y-7054202D01*
X6658932Y-7053172D01*
X6662387Y-7046041D01*
X6664466Y-7041749D01*
X6664769Y-7039951D01*
X6666714Y-7028389D01*
X6666762Y-7028102D01*
X6666777Y-7026910D01*
X6666266Y-7023343D01*
X6667322Y-7018309D01*
X6671367Y-7015131D01*
X6676509Y-7015297D01*
X6679466Y-7017438D01*
X6680689Y-7018892D01*
X6681135Y-7019189D01*
X6681135Y-7019189D01*
X6691762Y-7026263D01*
X6691762Y-7026263D01*
X6692208Y-7026560D01*
X6705417Y-7030687D01*
X6712567Y-7030818D01*
X6718716Y-7030931D01*
X6718717Y-7030931D01*
X6719253Y-7030940D01*
X6719770Y-7030799D01*
X6719770Y-7030799D01*
X6724648Y-7029470D01*
X6729215Y-7028224D01*
X6734341Y-7028650D01*
X6737995Y-7032272D01*
X6738650Y-7034504D01*
X6739871Y-7043845D01*
X6743364Y-7051782D01*
X6745075Y-7055672D01*
X6745444Y-7056511D01*
X6754349Y-7067104D01*
X6754795Y-7067401D01*
X6754795Y-7067401D01*
X6765422Y-7074475D01*
X6765422Y-7074475D01*
X6765868Y-7074772D01*
X6779077Y-7078899D01*
X6786227Y-7079030D01*
X6792376Y-7079143D01*
X6792377Y-7079143D01*
X6792913Y-7079152D01*
X6793430Y-7079011D01*
X6793430Y-7079011D01*
X6795733Y-7078384D01*
X7103837Y-7078384D01*
X7103906Y-7078914D01*
X7103906Y-7078915D01*
X7103937Y-7079152D01*
X7105631Y-7092105D01*
X7111204Y-7104771D01*
X7120109Y-7115364D01*
X7120555Y-7115661D01*
X7120555Y-7115661D01*
X7131182Y-7122735D01*
X7131182Y-7122735D01*
X7131628Y-7123032D01*
X7144837Y-7127159D01*
X7151987Y-7127290D01*
X7158136Y-7127403D01*
X7158137Y-7127403D01*
X7158673Y-7127412D01*
X7159190Y-7127271D01*
X7159190Y-7127271D01*
X7166471Y-7125286D01*
X7172023Y-7123773D01*
X7182981Y-7117044D01*
X7183359Y-7116812D01*
X7183360Y-7116812D01*
X7183816Y-7116532D01*
X7185023Y-7115198D01*
X7189572Y-7112795D01*
X7194600Y-7113878D01*
X7195611Y-7114639D01*
X7195964Y-7114954D01*
X7196309Y-7115364D01*
X7196755Y-7115661D01*
X7196755Y-7115661D01*
X7207382Y-7122735D01*
X7207382Y-7122735D01*
X7207828Y-7123032D01*
X7221037Y-7127159D01*
X7228187Y-7127290D01*
X7234336Y-7127403D01*
X7234337Y-7127403D01*
X7234873Y-7127412D01*
X7235390Y-7127271D01*
X7235390Y-7127271D01*
X7242671Y-7125286D01*
X7248223Y-7123773D01*
X7259181Y-7117044D01*
X7259559Y-7116812D01*
X7259560Y-7116812D01*
X7260016Y-7116532D01*
X7269303Y-7106272D01*
X7270030Y-7104771D01*
X7272330Y-7100025D01*
X7275336Y-7093819D01*
X7277632Y-7080172D01*
X7277647Y-7078980D01*
X7277486Y-7077855D01*
X7275761Y-7065812D01*
X7275761Y-7065811D01*
X7275685Y-7065282D01*
X7275425Y-7064710D01*
X7271316Y-7055672D01*
X7269957Y-7052684D01*
X7265906Y-7047982D01*
X7261274Y-7042606D01*
X7261273Y-7042606D01*
X7260924Y-7042201D01*
X7260475Y-7041910D01*
X7249761Y-7034965D01*
X7249761Y-7034965D01*
X7249312Y-7034674D01*
X7244683Y-7033290D01*
X7236567Y-7030863D01*
X7236567Y-7030863D01*
X7236054Y-7030709D01*
X7235519Y-7030706D01*
X7235518Y-7030706D01*
X7229332Y-7030668D01*
X7222216Y-7030625D01*
X7208911Y-7034427D01*
X7197207Y-7041812D01*
X7196853Y-7042213D01*
X7196852Y-7042213D01*
X7196425Y-7042697D01*
X7191907Y-7045155D01*
X7186865Y-7044134D01*
X7185480Y-7042957D01*
X7185478Y-7042959D01*
X7185317Y-7042819D01*
X7185092Y-7042627D01*
X7185074Y-7042607D01*
X7185074Y-7042606D01*
X7184724Y-7042201D01*
X7184275Y-7041910D01*
X7173561Y-7034965D01*
X7173561Y-7034965D01*
X7173112Y-7034674D01*
X7168483Y-7033290D01*
X7160367Y-7030863D01*
X7160367Y-7030863D01*
X7159854Y-7030709D01*
X7159319Y-7030706D01*
X7159318Y-7030706D01*
X7153132Y-7030668D01*
X7146016Y-7030625D01*
X7132711Y-7034427D01*
X7121007Y-7041812D01*
X7111847Y-7052184D01*
X7111619Y-7052669D01*
X7111619Y-7052669D01*
X7110713Y-7054600D01*
X7105966Y-7064710D01*
X7103837Y-7078384D01*
X6795733Y-7078384D01*
X6800711Y-7077026D01*
X6806263Y-7075513D01*
X6812418Y-7071734D01*
X6817599Y-7068552D01*
X6817600Y-7068552D01*
X6818056Y-7068272D01*
X6827343Y-7058012D01*
X6828070Y-7056511D01*
X6833143Y-7046041D01*
X6833376Y-7045559D01*
X6833814Y-7042957D01*
X6835274Y-7034280D01*
X6835672Y-7031912D01*
X6835687Y-7030720D01*
X6835091Y-7026561D01*
X6835410Y-7025044D01*
X7284177Y-7025044D01*
X7284246Y-7025574D01*
X7284246Y-7025575D01*
X7284916Y-7030697D01*
X7285971Y-7038765D01*
X7291544Y-7051431D01*
X7300449Y-7062024D01*
X7300895Y-7062321D01*
X7300895Y-7062321D01*
X7311522Y-7069395D01*
X7311522Y-7069395D01*
X7311968Y-7069692D01*
X7325177Y-7073819D01*
X7332327Y-7073950D01*
X7338476Y-7074063D01*
X7338477Y-7074063D01*
X7339013Y-7074072D01*
X7339530Y-7073931D01*
X7339530Y-7073931D01*
X7347188Y-7071844D01*
X7352363Y-7070433D01*
X7358452Y-7066694D01*
X7363699Y-7063472D01*
X7363700Y-7063472D01*
X7364156Y-7063192D01*
X7373443Y-7052932D01*
X7374170Y-7051431D01*
X7379243Y-7040961D01*
X7379476Y-7040479D01*
X7380404Y-7034965D01*
X7381134Y-7030625D01*
X7381772Y-7026832D01*
X7381787Y-7025640D01*
X7381538Y-7023903D01*
X7379901Y-7012472D01*
X7379901Y-7012471D01*
X7379825Y-7011942D01*
X7379565Y-7011370D01*
X7375837Y-7003170D01*
X7374097Y-6999344D01*
X7367944Y-6992203D01*
X7365414Y-6989266D01*
X7365413Y-6989266D01*
X7365064Y-6988861D01*
X7364615Y-6988570D01*
X7353901Y-6981625D01*
X7353901Y-6981625D01*
X7353452Y-6981334D01*
X7345119Y-6978842D01*
X7340707Y-6977523D01*
X7340707Y-6977523D01*
X7340194Y-6977369D01*
X7339659Y-6977366D01*
X7339658Y-6977366D01*
X7333472Y-6977328D01*
X7326356Y-6977285D01*
X7313051Y-6981087D01*
X7301347Y-6988472D01*
X7292187Y-6998844D01*
X7291959Y-6999329D01*
X7291959Y-6999329D01*
X7290342Y-7002772D01*
X7286306Y-7011370D01*
X7284177Y-7025044D01*
X6835410Y-7025044D01*
X6836147Y-7021527D01*
X6840193Y-7018350D01*
X6845334Y-7018516D01*
X6846701Y-7019235D01*
X6846702Y-7019235D01*
X6847148Y-7019532D01*
X6860357Y-7023659D01*
X6867507Y-7023790D01*
X6873656Y-7023903D01*
X6873657Y-7023903D01*
X6874193Y-7023912D01*
X6874710Y-7023771D01*
X6874710Y-7023771D01*
X6881991Y-7021786D01*
X6887543Y-7020273D01*
X6892838Y-7017022D01*
X6898879Y-7013312D01*
X6898880Y-7013312D01*
X6899336Y-7013032D01*
X6908623Y-7002772D01*
X6909350Y-7001271D01*
X6914423Y-6990801D01*
X6914656Y-6990319D01*
X6914756Y-6989730D01*
X6916904Y-6976959D01*
X6916952Y-6976672D01*
X6916967Y-6975480D01*
X6916087Y-6969339D01*
X6915081Y-6962312D01*
X6915081Y-6962311D01*
X6915005Y-6961782D01*
X6914745Y-6961210D01*
X6909863Y-6950472D01*
X6909277Y-6949184D01*
X6904306Y-6943415D01*
X6900594Y-6939106D01*
X6900593Y-6939106D01*
X6900244Y-6938701D01*
X6899795Y-6938410D01*
X6889081Y-6931465D01*
X6889081Y-6931465D01*
X6888632Y-6931174D01*
X6882471Y-6929332D01*
X6875887Y-6927363D01*
X6875887Y-6927363D01*
X6875374Y-6927209D01*
X6874839Y-6927206D01*
X6874838Y-6927206D01*
X6868652Y-6927168D01*
X6861536Y-6927125D01*
X6848231Y-6930927D01*
X6836527Y-6938312D01*
X6827367Y-6948684D01*
X6821486Y-6961210D01*
X6819357Y-6974884D01*
X6819426Y-6975414D01*
X6819426Y-6975415D01*
X6820006Y-6979846D01*
X6818888Y-6984867D01*
X6814804Y-6987995D01*
X6809665Y-6987766D01*
X6808459Y-6987132D01*
X6807352Y-6986414D01*
X6802180Y-6984867D01*
X6794607Y-6982603D01*
X6794607Y-6982603D01*
X6794094Y-6982449D01*
X6793559Y-6982446D01*
X6793558Y-6982446D01*
X6787372Y-6982408D01*
X6780256Y-6982365D01*
X6771012Y-6985007D01*
X6765881Y-6984643D01*
X6762184Y-6981067D01*
X6761502Y-6978843D01*
X6760065Y-6968810D01*
X6759805Y-6968238D01*
X6754559Y-6956700D01*
X6754337Y-6956212D01*
X6748268Y-6949169D01*
X6745654Y-6946134D01*
X6745653Y-6946134D01*
X6745304Y-6945729D01*
X6744855Y-6945438D01*
X6734141Y-6938493D01*
X6734141Y-6938493D01*
X6733692Y-6938202D01*
X6726473Y-6936043D01*
X6720947Y-6934391D01*
X6720947Y-6934391D01*
X6720434Y-6934237D01*
X6719899Y-6934234D01*
X6719898Y-6934234D01*
X6713712Y-6934196D01*
X6706596Y-6934153D01*
X6693291Y-6937955D01*
X6681587Y-6945340D01*
X6672427Y-6955712D01*
X6666546Y-6968238D01*
X6664417Y-6981912D01*
X6664486Y-6982442D01*
X6664486Y-6982443D01*
X6664993Y-6986319D01*
X6663875Y-6991340D01*
X6659792Y-6994468D01*
X6654653Y-6994239D01*
X6651840Y-6992203D01*
X6650054Y-6990131D01*
X6649529Y-6989791D01*
X6638891Y-6982895D01*
X6638891Y-6982895D01*
X6638442Y-6982604D01*
X6629220Y-6979846D01*
X6625697Y-6978793D01*
X6625697Y-6978793D01*
X6625184Y-6978639D01*
X6624649Y-6978636D01*
X6624648Y-6978636D01*
X6618462Y-6978598D01*
X6611346Y-6978555D01*
X6598041Y-6982357D01*
X6586337Y-6989742D01*
X6586077Y-6990037D01*
X6581311Y-6991809D01*
X6576511Y-6990029D01*
X6576504Y-6990021D01*
X6568208Y-6984643D01*
X6565341Y-6982785D01*
X6565341Y-6982785D01*
X6564892Y-6982494D01*
X6556038Y-6979846D01*
X6552147Y-6978683D01*
X6552147Y-6978683D01*
X6551634Y-6978529D01*
X6551099Y-6978526D01*
X6551098Y-6978526D01*
X6544912Y-6978488D01*
X6537796Y-6978445D01*
X6524491Y-6982247D01*
X6512787Y-6989632D01*
X6503627Y-7000004D01*
X6503399Y-7000489D01*
X6503399Y-7000489D01*
X6501552Y-7004424D01*
X6497746Y-7012530D01*
X6495617Y-7026204D01*
X6334534Y-7026204D01*
X6326685Y-7020181D01*
X6319058Y-7017022D01*
X6313043Y-7014530D01*
X6313043Y-7014530D01*
X6312588Y-7014342D01*
X6301258Y-7012850D01*
X6293662Y-7012850D01*
X6282332Y-7014342D01*
X6281877Y-7014530D01*
X6281877Y-7014530D01*
X6275862Y-7017022D01*
X6268235Y-7020181D01*
X6256130Y-7029470D01*
X6255830Y-7029860D01*
X6255195Y-7030687D01*
X6246841Y-7041575D01*
X6245191Y-7045559D01*
X6241972Y-7053330D01*
X6241002Y-7055672D01*
X6239010Y-7070800D01*
X6241002Y-7085928D01*
X6241190Y-7086383D01*
X6241190Y-7086383D01*
X6243763Y-7092596D01*
X6246841Y-7100025D01*
X6256130Y-7112130D01*
X6256520Y-7112430D01*
X6258407Y-7113878D01*
X6268235Y-7121419D01*
X6274257Y-7123914D01*
X6278713Y-7125759D01*
X6282505Y-7129234D01*
X6283176Y-7134334D01*
X6280413Y-7138673D01*
X6277970Y-7139833D01*
X6277985Y-7139874D01*
X6261857Y-7145728D01*
X6261857Y-7145728D01*
X6261447Y-7145877D01*
X6246733Y-7155523D01*
X6234634Y-7168296D01*
X6225797Y-7183510D01*
X6225670Y-7183928D01*
X6225670Y-7183928D01*
X6221819Y-7196644D01*
X6220697Y-7200348D01*
X6220670Y-7200784D01*
X6220670Y-7200784D01*
X6219635Y-7217472D01*
X6219608Y-7217908D01*
X6037803Y-7217908D01*
X6037830Y-7217472D01*
X6038285Y-7210128D01*
X6038285Y-7210127D01*
X6038312Y-7209692D01*
X6035333Y-7192352D01*
X6028444Y-7176163D01*
X6018016Y-7161993D01*
X6004608Y-7150602D01*
X5988939Y-7142601D01*
X5971849Y-7138419D01*
X5971515Y-7138398D01*
X5971515Y-7138398D01*
X5971180Y-7138377D01*
X5970739Y-7138350D01*
X5898055Y-7138350D01*
X5897839Y-7138375D01*
X5897838Y-7138375D01*
X5895286Y-7138673D01*
X5884985Y-7139874D01*
X5884574Y-7140023D01*
X5884573Y-7140023D01*
X5868857Y-7145728D01*
X5868857Y-7145728D01*
X5868447Y-7145877D01*
X5853733Y-7155523D01*
X5841634Y-7168296D01*
X5837923Y-7174685D01*
X5833973Y-7177981D01*
X5828829Y-7177968D01*
X5824898Y-7174651D01*
X5823900Y-7170908D01*
X5823900Y-6849784D01*
X6499317Y-6849784D01*
X6499386Y-6850314D01*
X6499386Y-6850315D01*
X6500156Y-6856204D01*
X6501111Y-6863505D01*
X6506684Y-6876171D01*
X6515589Y-6886764D01*
X6516035Y-6887061D01*
X6516035Y-6887061D01*
X6526662Y-6894135D01*
X6526662Y-6894135D01*
X6527108Y-6894432D01*
X6540317Y-6898559D01*
X6547467Y-6898690D01*
X6553616Y-6898803D01*
X6553617Y-6898803D01*
X6554153Y-6898812D01*
X6554670Y-6898671D01*
X6554670Y-6898671D01*
X6564219Y-6896068D01*
X6567503Y-6895173D01*
X6573477Y-6891505D01*
X6578839Y-6888212D01*
X6578840Y-6888212D01*
X6579296Y-6887932D01*
X6588583Y-6877672D01*
X6589310Y-6876171D01*
X6592098Y-6870416D01*
X6594616Y-6865219D01*
X6594724Y-6864580D01*
X6596192Y-6855851D01*
X6596912Y-6851572D01*
X6596916Y-6851260D01*
X6720052Y-6851260D01*
X6720122Y-6851790D01*
X6720122Y-6851791D01*
X6720777Y-6856800D01*
X6721847Y-6864981D01*
X6727420Y-6877647D01*
X6736324Y-6888240D01*
X6736770Y-6888537D01*
X6736770Y-6888537D01*
X6747397Y-6895611D01*
X6747398Y-6895611D01*
X6747844Y-6895908D01*
X6761052Y-6900035D01*
X6768203Y-6900166D01*
X6774352Y-6900279D01*
X6774352Y-6900279D01*
X6774888Y-6900288D01*
X6775405Y-6900147D01*
X6775405Y-6900147D01*
X6782687Y-6898162D01*
X6788239Y-6896649D01*
X6795690Y-6892074D01*
X6799575Y-6889688D01*
X6799575Y-6889688D01*
X6800032Y-6889408D01*
X6809318Y-6879148D01*
X6809636Y-6878492D01*
X6810008Y-6877724D01*
X6903177Y-6877724D01*
X6903246Y-6878254D01*
X6903246Y-6878255D01*
X6904181Y-6885401D01*
X6904971Y-6891445D01*
X6910544Y-6904111D01*
X6919449Y-6914704D01*
X6919895Y-6915001D01*
X6919895Y-6915001D01*
X6930522Y-6922075D01*
X6930522Y-6922075D01*
X6930968Y-6922372D01*
X6944177Y-6926499D01*
X6951327Y-6926630D01*
X6957476Y-6926743D01*
X6957477Y-6926743D01*
X6958013Y-6926752D01*
X6958530Y-6926611D01*
X6958530Y-6926611D01*
X6965811Y-6924626D01*
X6971363Y-6923113D01*
X6979862Y-6917894D01*
X6984902Y-6916864D01*
X6987964Y-6918043D01*
X6994022Y-6922075D01*
X6994022Y-6922075D01*
X6994468Y-6922372D01*
X7007677Y-6926499D01*
X7014827Y-6926630D01*
X7020976Y-6926743D01*
X7020977Y-6926743D01*
X7021513Y-6926752D01*
X7022030Y-6926611D01*
X7022030Y-6926611D01*
X7029311Y-6924626D01*
X7034863Y-6923113D01*
X7043362Y-6917894D01*
X7048402Y-6916864D01*
X7051464Y-6918043D01*
X7057522Y-6922075D01*
X7057522Y-6922075D01*
X7057968Y-6922372D01*
X7071177Y-6926499D01*
X7078327Y-6926630D01*
X7084476Y-6926743D01*
X7084477Y-6926743D01*
X7085013Y-6926752D01*
X7085530Y-6926611D01*
X7085530Y-6926611D01*
X7092811Y-6924626D01*
X7098363Y-6923113D01*
X7106862Y-6917894D01*
X7111902Y-6916864D01*
X7114964Y-6918043D01*
X7121022Y-6922075D01*
X7121022Y-6922075D01*
X7121468Y-6922372D01*
X7134677Y-6926499D01*
X7141827Y-6926630D01*
X7147976Y-6926743D01*
X7147977Y-6926743D01*
X7148513Y-6926752D01*
X7149030Y-6926611D01*
X7149030Y-6926611D01*
X7156311Y-6924626D01*
X7161863Y-6923113D01*
X7167135Y-6919876D01*
X7173199Y-6916152D01*
X7173200Y-6916152D01*
X7173656Y-6915872D01*
X7182896Y-6905664D01*
X7342597Y-6905664D01*
X7342666Y-6906194D01*
X7342666Y-6906195D01*
X7342713Y-6906551D01*
X7344391Y-6919385D01*
X7349964Y-6932051D01*
X7358869Y-6942644D01*
X7359315Y-6942941D01*
X7359315Y-6942941D01*
X7369942Y-6950015D01*
X7369942Y-6950015D01*
X7370388Y-6950312D01*
X7383597Y-6954439D01*
X7390747Y-6954570D01*
X7396896Y-6954683D01*
X7396897Y-6954683D01*
X7397433Y-6954692D01*
X7397950Y-6954551D01*
X7397950Y-6954551D01*
X7405231Y-6952566D01*
X7410783Y-6951053D01*
X7418794Y-6946134D01*
X7422119Y-6944092D01*
X7422120Y-6944092D01*
X7422576Y-6943812D01*
X7431863Y-6933552D01*
X7432590Y-6932051D01*
X7434706Y-6927683D01*
X7437896Y-6921099D01*
X7438922Y-6915001D01*
X7440144Y-6907739D01*
X7440192Y-6907452D01*
X7440207Y-6906260D01*
X7440114Y-6905612D01*
X7438321Y-6893092D01*
X7438321Y-6893091D01*
X7438245Y-6892562D01*
X7437985Y-6891990D01*
X7433898Y-6883001D01*
X7432517Y-6879964D01*
X7428466Y-6875262D01*
X7423834Y-6869886D01*
X7423833Y-6869886D01*
X7423484Y-6869481D01*
X7423035Y-6869190D01*
X7412321Y-6862245D01*
X7412321Y-6862245D01*
X7411872Y-6861954D01*
X7407243Y-6860570D01*
X7399127Y-6858143D01*
X7399127Y-6858143D01*
X7398614Y-6857989D01*
X7398079Y-6857986D01*
X7398078Y-6857986D01*
X7391892Y-6857948D01*
X7384776Y-6857905D01*
X7371471Y-6861707D01*
X7359767Y-6869092D01*
X7350607Y-6879464D01*
X7344726Y-6891990D01*
X7342597Y-6905664D01*
X7182896Y-6905664D01*
X7182943Y-6905612D01*
X7183245Y-6904989D01*
X7186242Y-6898803D01*
X7188976Y-6893159D01*
X7189084Y-6892520D01*
X7191224Y-6879799D01*
X7191272Y-6879512D01*
X7191287Y-6878320D01*
X7191190Y-6877647D01*
X7189401Y-6865152D01*
X7189401Y-6865151D01*
X7189325Y-6864622D01*
X7189065Y-6864050D01*
X7183819Y-6852512D01*
X7183597Y-6852024D01*
X7183179Y-6851538D01*
X7183153Y-6851470D01*
X7182959Y-6851167D01*
X7183023Y-6851126D01*
X7181356Y-6846728D01*
X7182631Y-6842457D01*
X7182943Y-6842112D01*
X7183184Y-6841615D01*
X7186086Y-6835625D01*
X7188976Y-6829659D01*
X7189009Y-6829464D01*
X7426417Y-6829464D01*
X7426486Y-6829994D01*
X7426486Y-6829995D01*
X7427297Y-6836194D01*
X7428211Y-6843185D01*
X7433784Y-6855851D01*
X7442689Y-6866444D01*
X7443135Y-6866741D01*
X7443135Y-6866741D01*
X7453762Y-6873815D01*
X7453762Y-6873815D01*
X7454208Y-6874112D01*
X7467417Y-6878239D01*
X7474567Y-6878370D01*
X7480716Y-6878483D01*
X7480717Y-6878483D01*
X7481253Y-6878492D01*
X7481770Y-6878351D01*
X7481770Y-6878351D01*
X7493948Y-6875031D01*
X7494603Y-6874853D01*
X7500698Y-6871111D01*
X7505939Y-6867892D01*
X7505940Y-6867892D01*
X7506396Y-6867612D01*
X7515683Y-6857352D01*
X7515950Y-6856800D01*
X7516239Y-6856204D01*
X7648147Y-6856204D01*
X7648216Y-6856734D01*
X7648216Y-6856735D01*
X7649102Y-6863505D01*
X7649941Y-6869925D01*
X7655514Y-6882591D01*
X7664419Y-6893184D01*
X7664865Y-6893481D01*
X7664865Y-6893481D01*
X7675492Y-6900555D01*
X7675492Y-6900555D01*
X7675938Y-6900852D01*
X7689147Y-6904979D01*
X7696297Y-6905110D01*
X7702446Y-6905223D01*
X7702447Y-6905223D01*
X7702983Y-6905232D01*
X7703500Y-6905091D01*
X7703500Y-6905091D01*
X7710781Y-6903106D01*
X7716333Y-6901593D01*
X7721535Y-6898399D01*
X7727669Y-6894632D01*
X7727670Y-6894632D01*
X7728126Y-6894352D01*
X7737413Y-6884092D01*
X7737843Y-6883205D01*
X7741803Y-6875031D01*
X7743446Y-6871639D01*
X7743809Y-6869481D01*
X7745117Y-6861707D01*
X7745742Y-6857992D01*
X7745757Y-6856800D01*
X7745671Y-6856204D01*
X7743871Y-6843632D01*
X7743871Y-6843631D01*
X7743795Y-6843102D01*
X7743535Y-6842530D01*
X7738289Y-6830992D01*
X7738067Y-6830504D01*
X7733376Y-6825060D01*
X7729384Y-6820426D01*
X7729383Y-6820426D01*
X7729034Y-6820021D01*
X7728585Y-6819730D01*
X7717871Y-6812785D01*
X7717871Y-6812785D01*
X7717422Y-6812494D01*
X7712793Y-6811110D01*
X7704677Y-6808683D01*
X7704677Y-6808683D01*
X7704164Y-6808529D01*
X7703629Y-6808526D01*
X7703628Y-6808526D01*
X7697442Y-6808488D01*
X7690326Y-6808445D01*
X7677021Y-6812247D01*
X7665317Y-6819632D01*
X7656157Y-6830004D01*
X7650276Y-6842530D01*
X7648147Y-6856204D01*
X7516239Y-6856204D01*
X7519061Y-6850380D01*
X7521716Y-6844899D01*
X7522269Y-6841615D01*
X7523964Y-6831539D01*
X7524012Y-6831252D01*
X7524027Y-6830060D01*
X7523866Y-6828935D01*
X7522141Y-6816892D01*
X7522141Y-6816891D01*
X7522065Y-6816362D01*
X7521805Y-6815790D01*
X7517880Y-6807156D01*
X7516337Y-6803764D01*
X7508124Y-6794232D01*
X7507654Y-6793686D01*
X7507653Y-6793686D01*
X7507304Y-6793281D01*
X7506855Y-6792990D01*
X7496141Y-6786045D01*
X7496141Y-6786045D01*
X7495692Y-6785754D01*
X7491063Y-6784370D01*
X7482947Y-6781943D01*
X7482947Y-6781943D01*
X7482434Y-6781789D01*
X7481899Y-6781786D01*
X7481898Y-6781786D01*
X7475712Y-6781748D01*
X7468596Y-6781705D01*
X7455291Y-6785507D01*
X7443587Y-6792892D01*
X7434427Y-6803264D01*
X7434199Y-6803749D01*
X7434199Y-6803749D01*
X7432950Y-6806410D01*
X7428546Y-6815790D01*
X7426417Y-6829464D01*
X7189009Y-6829464D01*
X7189666Y-6825560D01*
X7190711Y-6819346D01*
X7191272Y-6816012D01*
X7191287Y-6814820D01*
X7191246Y-6814532D01*
X7189401Y-6801652D01*
X7189401Y-6801651D01*
X7189325Y-6801122D01*
X7189093Y-6800612D01*
X7183819Y-6789012D01*
X7183597Y-6788524D01*
X7183179Y-6788038D01*
X7183153Y-6787970D01*
X7182959Y-6787667D01*
X7183023Y-6787626D01*
X7181356Y-6783228D01*
X7182631Y-6778957D01*
X7182943Y-6778612D01*
X7183184Y-6778115D01*
X7188743Y-6766641D01*
X7188976Y-6766159D01*
X7190718Y-6755804D01*
X7340317Y-6755804D01*
X7340386Y-6756334D01*
X7340386Y-6756335D01*
X7340433Y-6756691D01*
X7342111Y-6769525D01*
X7347684Y-6782191D01*
X7356589Y-6792784D01*
X7357035Y-6793081D01*
X7357035Y-6793081D01*
X7367662Y-6800155D01*
X7367662Y-6800155D01*
X7368108Y-6800452D01*
X7381317Y-6804579D01*
X7388467Y-6804710D01*
X7394616Y-6804823D01*
X7394617Y-6804823D01*
X7395153Y-6804832D01*
X7395670Y-6804691D01*
X7395670Y-6804691D01*
X7406819Y-6801652D01*
X7408503Y-6801193D01*
X7415114Y-6797134D01*
X7419839Y-6794232D01*
X7419840Y-6794232D01*
X7420296Y-6793952D01*
X7429583Y-6783692D01*
X7429881Y-6783076D01*
X7435383Y-6771721D01*
X7435616Y-6771239D01*
X7437912Y-6757592D01*
X7437927Y-6756400D01*
X7437370Y-6752512D01*
X7436041Y-6743232D01*
X7436041Y-6743231D01*
X7435965Y-6742702D01*
X7435705Y-6742130D01*
X7431505Y-6732892D01*
X7430237Y-6730104D01*
X7425121Y-6724167D01*
X7421554Y-6720026D01*
X7421553Y-6720026D01*
X7421204Y-6719621D01*
X7420755Y-6719330D01*
X7410041Y-6712385D01*
X7410041Y-6712385D01*
X7409592Y-6712094D01*
X7399098Y-6708956D01*
X7396847Y-6708283D01*
X7396847Y-6708283D01*
X7396334Y-6708129D01*
X7395799Y-6708126D01*
X7395798Y-6708126D01*
X7389612Y-6708088D01*
X7382496Y-6708045D01*
X7369191Y-6711847D01*
X7357487Y-6719232D01*
X7348327Y-6729604D01*
X7342446Y-6742130D01*
X7340317Y-6755804D01*
X7190718Y-6755804D01*
X7191272Y-6752512D01*
X7191287Y-6751320D01*
X7190204Y-6743763D01*
X7189401Y-6738152D01*
X7189401Y-6738151D01*
X7189325Y-6737622D01*
X7189065Y-6737050D01*
X7183819Y-6725512D01*
X7183597Y-6725024D01*
X7183179Y-6724538D01*
X7183153Y-6724470D01*
X7182959Y-6724167D01*
X7183023Y-6724126D01*
X7181356Y-6719728D01*
X7182631Y-6715457D01*
X7182943Y-6715112D01*
X7183184Y-6714615D01*
X7188743Y-6703141D01*
X7188976Y-6702659D01*
X7189331Y-6700551D01*
X7191090Y-6690092D01*
X7191272Y-6689012D01*
X7191287Y-6687820D01*
X7191103Y-6686539D01*
X7189401Y-6674652D01*
X7189401Y-6674651D01*
X7189325Y-6674122D01*
X7189065Y-6673550D01*
X7183819Y-6662012D01*
X7183597Y-6661524D01*
X7177004Y-6653873D01*
X7174914Y-6651446D01*
X7174913Y-6651446D01*
X7174564Y-6651041D01*
X7174115Y-6650750D01*
X7163401Y-6643805D01*
X7163401Y-6643805D01*
X7162952Y-6643514D01*
X7158323Y-6642130D01*
X7150207Y-6639703D01*
X7150207Y-6639703D01*
X7149694Y-6639549D01*
X7149159Y-6639546D01*
X7149158Y-6639546D01*
X7142972Y-6639508D01*
X7135856Y-6639465D01*
X7122551Y-6643267D01*
X7114720Y-6648208D01*
X7109694Y-6649299D01*
X7106617Y-6648159D01*
X7099901Y-6643805D01*
X7099901Y-6643805D01*
X7099452Y-6643514D01*
X7094823Y-6642130D01*
X7086707Y-6639703D01*
X7086707Y-6639703D01*
X7086194Y-6639549D01*
X7085659Y-6639546D01*
X7085658Y-6639546D01*
X7079472Y-6639508D01*
X7072356Y-6639465D01*
X7059051Y-6643267D01*
X7051220Y-6648208D01*
X7046194Y-6649299D01*
X7043117Y-6648159D01*
X7036401Y-6643805D01*
X7036401Y-6643805D01*
X7035952Y-6643514D01*
X7031323Y-6642130D01*
X7023207Y-6639703D01*
X7023207Y-6639703D01*
X7022694Y-6639549D01*
X7022159Y-6639546D01*
X7022158Y-6639546D01*
X7015972Y-6639508D01*
X7008856Y-6639465D01*
X6995551Y-6643267D01*
X6987720Y-6648208D01*
X6982694Y-6649299D01*
X6979617Y-6648159D01*
X6972901Y-6643805D01*
X6972901Y-6643805D01*
X6972452Y-6643514D01*
X6967823Y-6642130D01*
X6959707Y-6639703D01*
X6959707Y-6639703D01*
X6959194Y-6639549D01*
X6958659Y-6639546D01*
X6958658Y-6639546D01*
X6952472Y-6639508D01*
X6945356Y-6639465D01*
X6932051Y-6643267D01*
X6920347Y-6650652D01*
X6911187Y-6661024D01*
X6905306Y-6673550D01*
X6903177Y-6687224D01*
X6903246Y-6687754D01*
X6903246Y-6687755D01*
X6903502Y-6689713D01*
X6904971Y-6700945D01*
X6910544Y-6713611D01*
X6911388Y-6714615D01*
X6913152Y-6719447D01*
X6911611Y-6723527D01*
X6911836Y-6723675D01*
X6911541Y-6724123D01*
X6911187Y-6724524D01*
X6905306Y-6737050D01*
X6903177Y-6750724D01*
X6903246Y-6751254D01*
X6903246Y-6751255D01*
X6903293Y-6751611D01*
X6904971Y-6764445D01*
X6910544Y-6777111D01*
X6911388Y-6778115D01*
X6913152Y-6782947D01*
X6911611Y-6787027D01*
X6911836Y-6787175D01*
X6911541Y-6787623D01*
X6911187Y-6788024D01*
X6905306Y-6800550D01*
X6903177Y-6814224D01*
X6903246Y-6814754D01*
X6903246Y-6814755D01*
X6903526Y-6816892D01*
X6904971Y-6827945D01*
X6910544Y-6840611D01*
X6911388Y-6841615D01*
X6913152Y-6846447D01*
X6911611Y-6850527D01*
X6911836Y-6850675D01*
X6911541Y-6851123D01*
X6911187Y-6851524D01*
X6910959Y-6852009D01*
X6910959Y-6852009D01*
X6910471Y-6853048D01*
X6905306Y-6864050D01*
X6903177Y-6877724D01*
X6810008Y-6877724D01*
X6812956Y-6871639D01*
X6815352Y-6866695D01*
X6815708Y-6864580D01*
X6817005Y-6856870D01*
X6817648Y-6853048D01*
X6817662Y-6851856D01*
X6817621Y-6851568D01*
X6815776Y-6838688D01*
X6815776Y-6838687D01*
X6815700Y-6838157D01*
X6815441Y-6837586D01*
X6811888Y-6829772D01*
X6809973Y-6825560D01*
X6805549Y-6820426D01*
X6801289Y-6815482D01*
X6801289Y-6815482D01*
X6800940Y-6815077D01*
X6800443Y-6814755D01*
X6789777Y-6807841D01*
X6789777Y-6807841D01*
X6789328Y-6807550D01*
X6784698Y-6806166D01*
X6776583Y-6803739D01*
X6776583Y-6803739D01*
X6776070Y-6803585D01*
X6775534Y-6803582D01*
X6775534Y-6803582D01*
X6769347Y-6803544D01*
X6762232Y-6803501D01*
X6748926Y-6807303D01*
X6737223Y-6814688D01*
X6728062Y-6825060D01*
X6727835Y-6825545D01*
X6727835Y-6825545D01*
X6725697Y-6830098D01*
X6722181Y-6837586D01*
X6720052Y-6851260D01*
X6596916Y-6851260D01*
X6596923Y-6850671D01*
X6596927Y-6850380D01*
X6596766Y-6849255D01*
X6595041Y-6837212D01*
X6595041Y-6837211D01*
X6594965Y-6836682D01*
X6594705Y-6836110D01*
X6589901Y-6825545D01*
X6589237Y-6824084D01*
X6585155Y-6819346D01*
X6580554Y-6814006D01*
X6580553Y-6814006D01*
X6580204Y-6813601D01*
X6574196Y-6809707D01*
X6571097Y-6805601D01*
X6571362Y-6800464D01*
X6574352Y-6796988D01*
X6578839Y-6794232D01*
X6578840Y-6794232D01*
X6579296Y-6793952D01*
X6588583Y-6783692D01*
X6588881Y-6783076D01*
X6594383Y-6771721D01*
X6594616Y-6771239D01*
X6596912Y-6757592D01*
X6596927Y-6756400D01*
X6596370Y-6752512D01*
X6595041Y-6743232D01*
X6595041Y-6743231D01*
X6594965Y-6742702D01*
X6594705Y-6742130D01*
X6590505Y-6732892D01*
X6589237Y-6730104D01*
X6584121Y-6724167D01*
X6580554Y-6720026D01*
X6580553Y-6720026D01*
X6580204Y-6719621D01*
X6579755Y-6719330D01*
X6569041Y-6712385D01*
X6569041Y-6712385D01*
X6568592Y-6712094D01*
X6558098Y-6708956D01*
X6555847Y-6708283D01*
X6555847Y-6708283D01*
X6555334Y-6708129D01*
X6554799Y-6708126D01*
X6554798Y-6708126D01*
X6548612Y-6708088D01*
X6541496Y-6708045D01*
X6528191Y-6711847D01*
X6516487Y-6719232D01*
X6507327Y-6729604D01*
X6501446Y-6742130D01*
X6499317Y-6755804D01*
X6499386Y-6756334D01*
X6499386Y-6756335D01*
X6499433Y-6756691D01*
X6501111Y-6769525D01*
X6506684Y-6782191D01*
X6515589Y-6792784D01*
X6516035Y-6793081D01*
X6516035Y-6793081D01*
X6522123Y-6797134D01*
X6525171Y-6801277D01*
X6524844Y-6806410D01*
X6521968Y-6809753D01*
X6516487Y-6813212D01*
X6507327Y-6823584D01*
X6507099Y-6824069D01*
X6507099Y-6824069D01*
X6506170Y-6826048D01*
X6501446Y-6836110D01*
X6499317Y-6849784D01*
X5823900Y-6849784D01*
X5823900Y-6694744D01*
X6717857Y-6694744D01*
X6717926Y-6695274D01*
X6717926Y-6695275D01*
X6718603Y-6700449D01*
X6719651Y-6708465D01*
X6725224Y-6721131D01*
X6734129Y-6731724D01*
X6734575Y-6732021D01*
X6734575Y-6732021D01*
X6745202Y-6739095D01*
X6745202Y-6739095D01*
X6745648Y-6739392D01*
X6758857Y-6743519D01*
X6766007Y-6743650D01*
X6772156Y-6743763D01*
X6772157Y-6743763D01*
X6772693Y-6743772D01*
X6773210Y-6743631D01*
X6773210Y-6743631D01*
X6780496Y-6741645D01*
X6786043Y-6740133D01*
X6791854Y-6736565D01*
X6797379Y-6733172D01*
X6797380Y-6733172D01*
X6797836Y-6732892D01*
X6807123Y-6722632D01*
X6807850Y-6721131D01*
X6811295Y-6714021D01*
X6813156Y-6710179D01*
X6815452Y-6696532D01*
X6815467Y-6695340D01*
X6815381Y-6694744D01*
X6813581Y-6682172D01*
X6813581Y-6682171D01*
X6813505Y-6681642D01*
X6813245Y-6681070D01*
X6807999Y-6669532D01*
X6807777Y-6669044D01*
X6803726Y-6664342D01*
X6799094Y-6658966D01*
X6799093Y-6658966D01*
X6798744Y-6658561D01*
X6798295Y-6658270D01*
X6787581Y-6651325D01*
X6787581Y-6651325D01*
X6787132Y-6651034D01*
X6782503Y-6649650D01*
X6774387Y-6647223D01*
X6774387Y-6647223D01*
X6773874Y-6647069D01*
X6773339Y-6647066D01*
X6773338Y-6647066D01*
X6767152Y-6647028D01*
X6760036Y-6646985D01*
X6746731Y-6650787D01*
X6735027Y-6658172D01*
X6725867Y-6668544D01*
X6725639Y-6669029D01*
X6725639Y-6669029D01*
X6723516Y-6673550D01*
X6719986Y-6681070D01*
X6717857Y-6694744D01*
X5823900Y-6694744D01*
X5823900Y-6608484D01*
X7342597Y-6608484D01*
X7342666Y-6609014D01*
X7342666Y-6609015D01*
X7342713Y-6609371D01*
X7344391Y-6622205D01*
X7349964Y-6634871D01*
X7358869Y-6645464D01*
X7359315Y-6645761D01*
X7359315Y-6645761D01*
X7369942Y-6652835D01*
X7369942Y-6652835D01*
X7370388Y-6653132D01*
X7383597Y-6657259D01*
X7390747Y-6657390D01*
X7396896Y-6657503D01*
X7396897Y-6657503D01*
X7397433Y-6657512D01*
X7397950Y-6657371D01*
X7397950Y-6657371D01*
X7405231Y-6655386D01*
X7410783Y-6653873D01*
X7416494Y-6650366D01*
X7422119Y-6646912D01*
X7422120Y-6646912D01*
X7422576Y-6646632D01*
X7431863Y-6636372D01*
X7432590Y-6634871D01*
X7436905Y-6625964D01*
X7437896Y-6623919D01*
X7440192Y-6610272D01*
X7440207Y-6609080D01*
X7440024Y-6607801D01*
X7438321Y-6595912D01*
X7438321Y-6595912D01*
X7438245Y-6595382D01*
X7438308Y-6595372D01*
X7438614Y-6590646D01*
X7442168Y-6586927D01*
X7447281Y-6586362D01*
X7449667Y-6587409D01*
X7456302Y-6591825D01*
X7456302Y-6591825D01*
X7456748Y-6592122D01*
X7469957Y-6596249D01*
X7477107Y-6596380D01*
X7483256Y-6596493D01*
X7483257Y-6596493D01*
X7483793Y-6596502D01*
X7484310Y-6596361D01*
X7484310Y-6596361D01*
X7491779Y-6594325D01*
X7497143Y-6592863D01*
X7502218Y-6589747D01*
X7508479Y-6585902D01*
X7508480Y-6585902D01*
X7508936Y-6585622D01*
X7518223Y-6575362D01*
X7518576Y-6574632D01*
X7523211Y-6565066D01*
X7524256Y-6562909D01*
X7524624Y-6560725D01*
X7526241Y-6551111D01*
X7526552Y-6549262D01*
X7526567Y-6548070D01*
X7526406Y-6546945D01*
X7525761Y-6542444D01*
X7685497Y-6542444D01*
X7685566Y-6542974D01*
X7685566Y-6542975D01*
X7686195Y-6547782D01*
X7687291Y-6556165D01*
X7692864Y-6568831D01*
X7701769Y-6579424D01*
X7702215Y-6579721D01*
X7702215Y-6579721D01*
X7712842Y-6586795D01*
X7712842Y-6586795D01*
X7713288Y-6587092D01*
X7726497Y-6591219D01*
X7733647Y-6591350D01*
X7739796Y-6591463D01*
X7739797Y-6591463D01*
X7740333Y-6591472D01*
X7740850Y-6591331D01*
X7740850Y-6591331D01*
X7748131Y-6589346D01*
X7753683Y-6587833D01*
X7761906Y-6582784D01*
X7765019Y-6580872D01*
X7765020Y-6580872D01*
X7765476Y-6580592D01*
X7774763Y-6570332D01*
X7775490Y-6568831D01*
X7779190Y-6561195D01*
X7780796Y-6557879D01*
X7781765Y-6552121D01*
X7782224Y-6549393D01*
X7783092Y-6544232D01*
X7783107Y-6543040D01*
X7782946Y-6541915D01*
X7781221Y-6529872D01*
X7781221Y-6529871D01*
X7781145Y-6529342D01*
X7780885Y-6528770D01*
X7775639Y-6517232D01*
X7775417Y-6516744D01*
X7771366Y-6512042D01*
X7766734Y-6506666D01*
X7766733Y-6506666D01*
X7766384Y-6506261D01*
X7765935Y-6505970D01*
X7755221Y-6499025D01*
X7755221Y-6499025D01*
X7754772Y-6498734D01*
X7750143Y-6497350D01*
X7742027Y-6494923D01*
X7742027Y-6494923D01*
X7741514Y-6494769D01*
X7740979Y-6494766D01*
X7740978Y-6494766D01*
X7734792Y-6494728D01*
X7727676Y-6494685D01*
X7714371Y-6498487D01*
X7702667Y-6505872D01*
X7693507Y-6516244D01*
X7693279Y-6516729D01*
X7693279Y-6516729D01*
X7691916Y-6519632D01*
X7687626Y-6528770D01*
X7685497Y-6542444D01*
X7525761Y-6542444D01*
X7524681Y-6534902D01*
X7524681Y-6534901D01*
X7524605Y-6534372D01*
X7524345Y-6533800D01*
X7519099Y-6522262D01*
X7518877Y-6521774D01*
X7513766Y-6515842D01*
X7510194Y-6511696D01*
X7510193Y-6511696D01*
X7509844Y-6511291D01*
X7509384Y-6510992D01*
X7498681Y-6504055D01*
X7498681Y-6504055D01*
X7498232Y-6503764D01*
X7493603Y-6502380D01*
X7485487Y-6499953D01*
X7485487Y-6499953D01*
X7484974Y-6499799D01*
X7484439Y-6499796D01*
X7484438Y-6499796D01*
X7478252Y-6499758D01*
X7471136Y-6499715D01*
X7457831Y-6503517D01*
X7446127Y-6510902D01*
X7436967Y-6521274D01*
X7436739Y-6521759D01*
X7436739Y-6521759D01*
X7434825Y-6525835D01*
X7431086Y-6533800D01*
X7428957Y-6547474D01*
X7429026Y-6548004D01*
X7429026Y-6548005D01*
X7430380Y-6558361D01*
X7430751Y-6561195D01*
X7430888Y-6561506D01*
X7430500Y-6566554D01*
X7426901Y-6570229D01*
X7421781Y-6570731D01*
X7419561Y-6569758D01*
X7412322Y-6565066D01*
X7412321Y-6565065D01*
X7411872Y-6564774D01*
X7405635Y-6562909D01*
X7399127Y-6560963D01*
X7399127Y-6560963D01*
X7398614Y-6560809D01*
X7398079Y-6560806D01*
X7398078Y-6560806D01*
X7391892Y-6560768D01*
X7384776Y-6560725D01*
X7371471Y-6564527D01*
X7359767Y-6571912D01*
X7350607Y-6582284D01*
X7350379Y-6582769D01*
X7350379Y-6582769D01*
X7348349Y-6587092D01*
X7344726Y-6594810D01*
X7344462Y-6596502D01*
X7342718Y-6607707D01*
X7342597Y-6608484D01*
X5823900Y-6608484D01*
X5823900Y-6393254D01*
X5825659Y-6388421D01*
X5830114Y-6385849D01*
X5835180Y-6386742D01*
X5837477Y-6388797D01*
X5846645Y-6401255D01*
X5846904Y-6401607D01*
X5860312Y-6412998D01*
X5875981Y-6420999D01*
X5893071Y-6425181D01*
X5893405Y-6425202D01*
X5893405Y-6425202D01*
X5893740Y-6425223D01*
X5894181Y-6425250D01*
X5966865Y-6425250D01*
X5967081Y-6425225D01*
X5967082Y-6425225D01*
X5971367Y-6424725D01*
X5979935Y-6423726D01*
X5980346Y-6423577D01*
X5980346Y-6423577D01*
X5996063Y-6417872D01*
X5996063Y-6417872D01*
X5996473Y-6417723D01*
X6011187Y-6408077D01*
X6012414Y-6406781D01*
X6022986Y-6395621D01*
X6023286Y-6395304D01*
X6025100Y-6392182D01*
X6027285Y-6388421D01*
X6032123Y-6380090D01*
X6032281Y-6379569D01*
X6037096Y-6363670D01*
X6037096Y-6363670D01*
X6037223Y-6363252D01*
X6037309Y-6361865D01*
X6037803Y-6353908D01*
X6219608Y-6353908D01*
X6222587Y-6371248D01*
X6229476Y-6387437D01*
X6234987Y-6394926D01*
X6239598Y-6401191D01*
X6239904Y-6401607D01*
X6253312Y-6412998D01*
X6268981Y-6420999D01*
X6278343Y-6423290D01*
X6282620Y-6426148D01*
X6284059Y-6431086D01*
X6281988Y-6435795D01*
X6279433Y-6437542D01*
X6272647Y-6440353D01*
X6268235Y-6442181D01*
X6256130Y-6451470D01*
X6246841Y-6463575D01*
X6241002Y-6477672D01*
X6239010Y-6492800D01*
X6241002Y-6507928D01*
X6241190Y-6508383D01*
X6241190Y-6508383D01*
X6242233Y-6510902D01*
X6246841Y-6522025D01*
X6256130Y-6534130D01*
X6268235Y-6543419D01*
X6274510Y-6546018D01*
X6281877Y-6549070D01*
X6281877Y-6549070D01*
X6282332Y-6549258D01*
X6293662Y-6550750D01*
X6301258Y-6550750D01*
X6312588Y-6549258D01*
X6313043Y-6549070D01*
X6313043Y-6549070D01*
X6320410Y-6546018D01*
X6326685Y-6543419D01*
X6336088Y-6536204D01*
X6505937Y-6536204D01*
X6506006Y-6536734D01*
X6506006Y-6536735D01*
X6506053Y-6537091D01*
X6507731Y-6549925D01*
X6513304Y-6562591D01*
X6522209Y-6573184D01*
X6522655Y-6573481D01*
X6522655Y-6573481D01*
X6533282Y-6580555D01*
X6533282Y-6580555D01*
X6533728Y-6580852D01*
X6546937Y-6584979D01*
X6554087Y-6585110D01*
X6560236Y-6585223D01*
X6560237Y-6585223D01*
X6560773Y-6585232D01*
X6561290Y-6585091D01*
X6561290Y-6585091D01*
X6569753Y-6582784D01*
X6574123Y-6581593D01*
X6584270Y-6575362D01*
X6585459Y-6574632D01*
X6585460Y-6574632D01*
X6585916Y-6574352D01*
X6595203Y-6564092D01*
X6595542Y-6563391D01*
X6601003Y-6552121D01*
X6601236Y-6551639D01*
X6601386Y-6550750D01*
X6602731Y-6542752D01*
X6603532Y-6537992D01*
X6603547Y-6536800D01*
X6603275Y-6534902D01*
X6601661Y-6523632D01*
X6601661Y-6523631D01*
X6601585Y-6523102D01*
X6601325Y-6522530D01*
X6596079Y-6510992D01*
X6595857Y-6510504D01*
X6590083Y-6503803D01*
X6587174Y-6500426D01*
X6587173Y-6500426D01*
X6586824Y-6500021D01*
X6586352Y-6499715D01*
X6575661Y-6492785D01*
X6575661Y-6492785D01*
X6575212Y-6492494D01*
X6570583Y-6491110D01*
X6562467Y-6488683D01*
X6562467Y-6488683D01*
X6561954Y-6488529D01*
X6561419Y-6488526D01*
X6561418Y-6488526D01*
X6555232Y-6488488D01*
X6548116Y-6488445D01*
X6534811Y-6492247D01*
X6523107Y-6499632D01*
X6513947Y-6510004D01*
X6513719Y-6510489D01*
X6513719Y-6510489D01*
X6513152Y-6511696D01*
X6508066Y-6522530D01*
X6505937Y-6536204D01*
X6336088Y-6536204D01*
X6338790Y-6534130D01*
X6348079Y-6522025D01*
X6352687Y-6510902D01*
X6353730Y-6508383D01*
X6353730Y-6508383D01*
X6353918Y-6507928D01*
X6355910Y-6492800D01*
X6354420Y-6481484D01*
X7906477Y-6481484D01*
X7906546Y-6482014D01*
X7906546Y-6482015D01*
X7906593Y-6482371D01*
X7908271Y-6495205D01*
X7913844Y-6507871D01*
X7922749Y-6518464D01*
X7923195Y-6518761D01*
X7923195Y-6518761D01*
X7933822Y-6525835D01*
X7933822Y-6525835D01*
X7934268Y-6526132D01*
X7947477Y-6530259D01*
X7954627Y-6530390D01*
X7960776Y-6530503D01*
X7960777Y-6530503D01*
X7961313Y-6530512D01*
X7961830Y-6530371D01*
X7961830Y-6530371D01*
X7969482Y-6528285D01*
X7974663Y-6526873D01*
X7981600Y-6522614D01*
X7985999Y-6519912D01*
X7986000Y-6519912D01*
X7986456Y-6519632D01*
X7995743Y-6509372D01*
X7996470Y-6507871D01*
X8000350Y-6499862D01*
X8001776Y-6496919D01*
X8002138Y-6494769D01*
X8004024Y-6483559D01*
X8004072Y-6483272D01*
X8004087Y-6482080D01*
X8003926Y-6480955D01*
X8002201Y-6468912D01*
X8002201Y-6468911D01*
X8002125Y-6468382D01*
X8001865Y-6467810D01*
X7996619Y-6456272D01*
X7996397Y-6455784D01*
X7991993Y-6450673D01*
X7987714Y-6445706D01*
X7987713Y-6445706D01*
X7987364Y-6445301D01*
X7986915Y-6445010D01*
X7976201Y-6438065D01*
X7976201Y-6438065D01*
X7975752Y-6437774D01*
X7970630Y-6436242D01*
X7963007Y-6433963D01*
X7963007Y-6433963D01*
X7962494Y-6433809D01*
X7961959Y-6433806D01*
X7961958Y-6433806D01*
X7955772Y-6433768D01*
X7948656Y-6433725D01*
X7935351Y-6437527D01*
X7923647Y-6444912D01*
X7914487Y-6455284D01*
X7908606Y-6467810D01*
X7906477Y-6481484D01*
X6354420Y-6481484D01*
X6353918Y-6477672D01*
X6348079Y-6463575D01*
X6338790Y-6451470D01*
X6326685Y-6442181D01*
X6320738Y-6439718D01*
X6316946Y-6436242D01*
X6316274Y-6431142D01*
X6319038Y-6426804D01*
X6323616Y-6425250D01*
X6409865Y-6425250D01*
X6410081Y-6425225D01*
X6410082Y-6425225D01*
X6414367Y-6424725D01*
X6422935Y-6423726D01*
X6423346Y-6423577D01*
X6423346Y-6423577D01*
X6439063Y-6417872D01*
X6439063Y-6417872D01*
X6439473Y-6417723D01*
X6454187Y-6408077D01*
X6455414Y-6406781D01*
X6465986Y-6395621D01*
X6466286Y-6395304D01*
X6468100Y-6392182D01*
X6470285Y-6388421D01*
X6475123Y-6380090D01*
X6475281Y-6379569D01*
X6480096Y-6363670D01*
X6480096Y-6363670D01*
X6480223Y-6363252D01*
X6480309Y-6361865D01*
X6481285Y-6346128D01*
X6481285Y-6346127D01*
X6481312Y-6345692D01*
X6478895Y-6331624D01*
X6621237Y-6331624D01*
X6621306Y-6332154D01*
X6621306Y-6332155D01*
X6621433Y-6333121D01*
X6623031Y-6345345D01*
X6628604Y-6358011D01*
X6637509Y-6368604D01*
X6637955Y-6368901D01*
X6637955Y-6368901D01*
X6648582Y-6375975D01*
X6648582Y-6375975D01*
X6649028Y-6376272D01*
X6662237Y-6380399D01*
X6669387Y-6380530D01*
X6675536Y-6380643D01*
X6675537Y-6380643D01*
X6676073Y-6380652D01*
X6676590Y-6380511D01*
X6676590Y-6380511D01*
X6683871Y-6378526D01*
X6689423Y-6377013D01*
X6694498Y-6373897D01*
X6700759Y-6370052D01*
X6700760Y-6370052D01*
X6701216Y-6369772D01*
X6710503Y-6359512D01*
X6711230Y-6358011D01*
X6715545Y-6349104D01*
X6716536Y-6347059D01*
X6718832Y-6333412D01*
X6718847Y-6332220D01*
X6718761Y-6331624D01*
X6716961Y-6319052D01*
X6716961Y-6319051D01*
X6716885Y-6318522D01*
X6716625Y-6317950D01*
X6711379Y-6306412D01*
X6711157Y-6305924D01*
X6704323Y-6297993D01*
X6702474Y-6295846D01*
X6702473Y-6295846D01*
X6702124Y-6295441D01*
X6701675Y-6295150D01*
X6690961Y-6288205D01*
X6690961Y-6288205D01*
X6690512Y-6287914D01*
X6685883Y-6286530D01*
X6677767Y-6284103D01*
X6677767Y-6284103D01*
X6677254Y-6283949D01*
X6676719Y-6283946D01*
X6676718Y-6283946D01*
X6670532Y-6283908D01*
X6663416Y-6283865D01*
X6650111Y-6287667D01*
X6638407Y-6295052D01*
X6629247Y-6305424D01*
X6623366Y-6317950D01*
X6621237Y-6331624D01*
X6478895Y-6331624D01*
X6478333Y-6328352D01*
X6473380Y-6316712D01*
X6471616Y-6312565D01*
X6471615Y-6312565D01*
X6471444Y-6312163D01*
X6461016Y-6297993D01*
X6447608Y-6286602D01*
X6431939Y-6278601D01*
X6414849Y-6274419D01*
X6414515Y-6274398D01*
X6414515Y-6274398D01*
X6414180Y-6274377D01*
X6413739Y-6274350D01*
X6291055Y-6274350D01*
X6290839Y-6274375D01*
X6290838Y-6274375D01*
X6286553Y-6274875D01*
X6277985Y-6275874D01*
X6277574Y-6276023D01*
X6277573Y-6276023D01*
X6261857Y-6281728D01*
X6261857Y-6281728D01*
X6261447Y-6281877D01*
X6258190Y-6284012D01*
X6252238Y-6287914D01*
X6246733Y-6291523D01*
X6234634Y-6304296D01*
X6225797Y-6319510D01*
X6225670Y-6319928D01*
X6225670Y-6319928D01*
X6221499Y-6333699D01*
X6220697Y-6336348D01*
X6220670Y-6336784D01*
X6220670Y-6336784D01*
X6219906Y-6349104D01*
X6219608Y-6353908D01*
X6037803Y-6353908D01*
X6038285Y-6346128D01*
X6038285Y-6346127D01*
X6038312Y-6345692D01*
X6035333Y-6328352D01*
X6030380Y-6316712D01*
X6028616Y-6312565D01*
X6028615Y-6312565D01*
X6028444Y-6312163D01*
X6018016Y-6297993D01*
X6004608Y-6286602D01*
X5988939Y-6278601D01*
X5971849Y-6274419D01*
X5971515Y-6274398D01*
X5971515Y-6274398D01*
X5971180Y-6274377D01*
X5970739Y-6274350D01*
X5898055Y-6274350D01*
X5897839Y-6274375D01*
X5897838Y-6274375D01*
X5893553Y-6274875D01*
X5884985Y-6275874D01*
X5884574Y-6276023D01*
X5884573Y-6276023D01*
X5868857Y-6281728D01*
X5868857Y-6281728D01*
X5868447Y-6281877D01*
X5865190Y-6284012D01*
X5859238Y-6287914D01*
X5853733Y-6291523D01*
X5841634Y-6304296D01*
X5837923Y-6310685D01*
X5833973Y-6313981D01*
X5828829Y-6313968D01*
X5824898Y-6310651D01*
X5823900Y-6306908D01*
X5823900Y-6150904D01*
X6415877Y-6150904D01*
X6415946Y-6151434D01*
X6415946Y-6151435D01*
X6415993Y-6151791D01*
X6417671Y-6164625D01*
X6423244Y-6177291D01*
X6432149Y-6187884D01*
X6432595Y-6188181D01*
X6432595Y-6188181D01*
X6443222Y-6195255D01*
X6443222Y-6195255D01*
X6443668Y-6195552D01*
X6456877Y-6199679D01*
X6464027Y-6199810D01*
X6470176Y-6199923D01*
X6470177Y-6199923D01*
X6470713Y-6199932D01*
X6471230Y-6199791D01*
X6471230Y-6199791D01*
X6481450Y-6197005D01*
X6484063Y-6196293D01*
X6491489Y-6191734D01*
X6495399Y-6189332D01*
X6495400Y-6189332D01*
X6495856Y-6189052D01*
X6499856Y-6184632D01*
X6502325Y-6181905D01*
X6506873Y-6179502D01*
X6511902Y-6180584D01*
X6513657Y-6182113D01*
X6516145Y-6185072D01*
X6518509Y-6187884D01*
X6518955Y-6188181D01*
X6518955Y-6188181D01*
X6529582Y-6195255D01*
X6529582Y-6195255D01*
X6530028Y-6195552D01*
X6543237Y-6199679D01*
X6550387Y-6199810D01*
X6556536Y-6199923D01*
X6556537Y-6199923D01*
X6557073Y-6199932D01*
X6557590Y-6199791D01*
X6557590Y-6199791D01*
X6567810Y-6197005D01*
X6570423Y-6196293D01*
X6577849Y-6191734D01*
X6581759Y-6189332D01*
X6581760Y-6189332D01*
X6582216Y-6189052D01*
X6591503Y-6178792D01*
X6592026Y-6177712D01*
X6596186Y-6169125D01*
X6597536Y-6166339D01*
X6599832Y-6152692D01*
X6599847Y-6151500D01*
X6599598Y-6149763D01*
X6597961Y-6138332D01*
X6597961Y-6138331D01*
X6597885Y-6137802D01*
X6597663Y-6137314D01*
X6597663Y-6137314D01*
X6593778Y-6128770D01*
X6592157Y-6125204D01*
X6587676Y-6120004D01*
X6583474Y-6115126D01*
X6583473Y-6115126D01*
X6583124Y-6114721D01*
X6582675Y-6114430D01*
X6571961Y-6107485D01*
X6571961Y-6107485D01*
X6571512Y-6107194D01*
X6564946Y-6105231D01*
X6558767Y-6103383D01*
X6558767Y-6103383D01*
X6558254Y-6103229D01*
X6557719Y-6103226D01*
X6557718Y-6103226D01*
X6551532Y-6103188D01*
X6544416Y-6103145D01*
X6531111Y-6106947D01*
X6519407Y-6114332D01*
X6519053Y-6114733D01*
X6513483Y-6121040D01*
X6508964Y-6123498D01*
X6503923Y-6122477D01*
X6502149Y-6120971D01*
X6497114Y-6115126D01*
X6497113Y-6115126D01*
X6496764Y-6114721D01*
X6496315Y-6114430D01*
X6485601Y-6107485D01*
X6485601Y-6107485D01*
X6485152Y-6107194D01*
X6478586Y-6105231D01*
X6472407Y-6103383D01*
X6472407Y-6103383D01*
X6471894Y-6103229D01*
X6471359Y-6103226D01*
X6471358Y-6103226D01*
X6465172Y-6103188D01*
X6458056Y-6103145D01*
X6444751Y-6106947D01*
X6433047Y-6114332D01*
X6423887Y-6124704D01*
X6423659Y-6125189D01*
X6423659Y-6125189D01*
X6422165Y-6128372D01*
X6418006Y-6137230D01*
X6415877Y-6150904D01*
X5823900Y-6150904D01*
X5823900Y-6135042D01*
X5824044Y-6133575D01*
X5824253Y-6132526D01*
X5824398Y-6131800D01*
X5824253Y-6131073D01*
X5824253Y-6130625D01*
X5824174Y-6129017D01*
X5824198Y-6128770D01*
X5825261Y-6117983D01*
X5825548Y-6116537D01*
X5829364Y-6103961D01*
X5829928Y-6102599D01*
X5836123Y-6091008D01*
X5836942Y-6089782D01*
X5845280Y-6079622D01*
X5846322Y-6078580D01*
X5856482Y-6070242D01*
X5857708Y-6069423D01*
X5869299Y-6063228D01*
X5870661Y-6062664D01*
X5883237Y-6058848D01*
X5884683Y-6058561D01*
X5887037Y-6058329D01*
X5895717Y-6057474D01*
X5897325Y-6057553D01*
X5897773Y-6057553D01*
X5898500Y-6057698D01*
X5900275Y-6057344D01*
X5901742Y-6057200D01*
X6719101Y-6057200D01*
X6723934Y-6058959D01*
G37*
%TD.AperFunction*%
%TD*%
M02*
