%TF.GenerationSoftware,KiCad,Pcbnew,(6.0.2)*%
%TF.CreationDate,2022-04-27T15:01:21+08:00*%
%TF.ProjectId,USBtoTTL,55534274-6f54-4544-9c2e-6b696361645f,rev?*%
%TF.SameCoordinates,Original*%
%TF.FileFunction,Copper,L2,Inr*%
%TF.FilePolarity,Positive*%
%FSLAX45Y45*%
G04 Gerber Fmt 4.5, Leading zero omitted, Abs format (unit mm)*
G04 Created by KiCad (PCBNEW (6.0.2)) date 2022-04-27 15:01:21*
%MOMM*%
%LPD*%
G01*
G04 APERTURE LIST*
%TA.AperFunction,ComponentPad*%
%ADD10O,1.600000X1.000000*%
%TD*%
%TA.AperFunction,ComponentPad*%
%ADD11O,2.100000X1.000000*%
%TD*%
%TA.AperFunction,ViaPad*%
%ADD12C,0.457200*%
%TD*%
%TA.AperFunction,Conductor*%
%ADD13C,0.508000*%
%TD*%
%TA.AperFunction,Conductor*%
%ADD14C,0.304800*%
%TD*%
%TA.AperFunction,Conductor*%
%ADD15C,0.254000*%
%TD*%
%TA.AperFunction,Conductor*%
%ADD16C,0.355600*%
%TD*%
G04 APERTURE END LIST*
D10*
%TO.N,GND*%
%TO.C,J2*%
X5932460Y-6349800D03*
X5932460Y-7213800D03*
D11*
X6350460Y-6349800D03*
X6350460Y-7213800D03*
%TD*%
D12*
%TO.N,VBUS*%
X6876800Y-6183880D03*
X6544420Y-7026800D03*
X6617970Y-7026910D03*
X6554740Y-6536800D03*
X6670040Y-6332220D03*
X6768855Y-6851856D03*
%TO.N,GND*%
X6464680Y-6151500D03*
X7015480Y-6814820D03*
X7165080Y-6101340D03*
X6951980Y-6687820D03*
X6551040Y-6151500D03*
X7538720Y-6278880D03*
X7078980Y-6814820D03*
X6888220Y-6101340D03*
X7015480Y-6687820D03*
X7015480Y-6751320D03*
X7279640Y-7358380D03*
X8077200Y-6146800D03*
X7061200Y-6278880D03*
X8229600Y-6146800D03*
X7142480Y-6878320D03*
X7332980Y-7025640D03*
X6982200Y-6101340D03*
X7078980Y-6878320D03*
X7251700Y-6090920D03*
X7078980Y-6751320D03*
X7520940Y-7160260D03*
X7228840Y-7078980D03*
X7693660Y-7160260D03*
X6570980Y-7305040D03*
X6951980Y-6814820D03*
X7477760Y-6548070D03*
X7015480Y-6878320D03*
X6951980Y-6751320D03*
X7475220Y-6830060D03*
X8148320Y-6146800D03*
X6490970Y-7303770D03*
X7485380Y-6278880D03*
X6873240Y-6278880D03*
X7073640Y-6101340D03*
X7142480Y-6751320D03*
X7078980Y-6687820D03*
X7142480Y-6814820D03*
X6761480Y-6101080D03*
X7480300Y-7287260D03*
X6951980Y-6878320D03*
X6713220Y-6982508D03*
X7152640Y-7078980D03*
X6766660Y-6695340D03*
X7142480Y-6687820D03*
%TO.N,+5V*%
X8147000Y-6398260D03*
X6906260Y-7472680D03*
X6967220Y-7305040D03*
X6813550Y-7230110D03*
X7134210Y-7266290D03*
X8232140Y-6398260D03*
X7561580Y-6939280D03*
X7270500Y-7263380D03*
X7038340Y-7472680D03*
X7278620Y-6183880D03*
X6811040Y-7407880D03*
X7633500Y-6629400D03*
X7428230Y-7072630D03*
X8074660Y-6398260D03*
%TO.N,+3V3*%
X8147000Y-7414260D03*
X8074660Y-7414260D03*
X8221980Y-7414260D03*
%TO.N,Net-(C9-Pad1)*%
X7389120Y-6756400D03*
%TO.N,Net-(D1-Pad2)*%
X7696950Y-6856800D03*
X7541260Y-6375400D03*
%TO.N,/CP_TXD*%
X8067040Y-6652260D03*
X8147000Y-6652260D03*
X8229600Y-6652260D03*
%TO.N,/CP_RXD*%
X8147000Y-6906260D03*
X8069580Y-6906260D03*
X8232140Y-6906260D03*
%TO.N,/CP_~DTR*%
X8229600Y-7160260D03*
X7955280Y-6482080D03*
X8147000Y-7160260D03*
X8074660Y-7160260D03*
%TO.N,Net-(J2-PadA6)*%
X6548120Y-6850380D03*
X6548120Y-6756400D03*
%TO.N,Net-(JP1-Pad2)*%
X6868160Y-6975480D03*
%TO.N,Net-(JP2-Pad1)*%
X7584440Y-7376160D03*
X6786880Y-7030720D03*
%TO.N,Net-(TP1-Pad1)*%
X7391400Y-6609080D03*
%TO.N,Net-(TP2-Pad1)*%
X7391400Y-6906260D03*
%TO.N,Net-(RN1-Pad4)*%
X7734300Y-6405880D03*
X7734300Y-6543040D03*
%TD*%
D13*
%TO.N,VBUS*%
X6554740Y-6536800D02*
X6670040Y-6421500D01*
D14*
X6666024Y-6851856D02*
X6617970Y-6899910D01*
D13*
X6301740Y-6969760D02*
X6358780Y-7026800D01*
X6670040Y-6421500D02*
X6670040Y-6332220D01*
X6818380Y-6183880D02*
X6876800Y-6183880D01*
X6617860Y-7026800D02*
X6617970Y-7026910D01*
X6301740Y-6969760D02*
X6228080Y-6896100D01*
X6670040Y-6332220D02*
X6818380Y-6183880D01*
X6358780Y-7026800D02*
X6544420Y-7026800D01*
X6228080Y-6896100D02*
X6228080Y-6670040D01*
X6361320Y-6536800D02*
X6554740Y-6536800D01*
X6228080Y-6670040D02*
X6299200Y-6598920D01*
D14*
X6617970Y-6899910D02*
X6617970Y-7026910D01*
D13*
X6544420Y-7026800D02*
X6617860Y-7026800D01*
X6299200Y-6598920D02*
X6361320Y-6536800D01*
D14*
X6768855Y-6851856D02*
X6666024Y-6851856D01*
D13*
%TO.N,+5V*%
X7725660Y-6183880D02*
X7940040Y-6398260D01*
X7631680Y-6183880D02*
X7725660Y-6183880D01*
X8074660Y-6398260D02*
X8147000Y-6398260D01*
X7633500Y-6185700D02*
X7631680Y-6183880D01*
X7633500Y-6629400D02*
X7633500Y-6185700D01*
X7940040Y-6398260D02*
X8074660Y-6398260D01*
X7278620Y-6183880D02*
X7631680Y-6183880D01*
D15*
%TO.N,Net-(D1-Pad2)*%
X7541260Y-6830060D02*
X7568000Y-6856800D01*
X7541260Y-6375400D02*
X7541260Y-6830060D01*
X7568000Y-6856800D02*
X7696950Y-6856800D01*
D16*
%TO.N,/CP_~DTR*%
X7955280Y-7109460D02*
X7955280Y-6482080D01*
X8229600Y-7160260D02*
X8006080Y-7160260D01*
X8229600Y-7160260D02*
X8074660Y-7160260D01*
X8006080Y-7160260D02*
X7955280Y-7109460D01*
D15*
%TO.N,Net-(JP2-Pad1)*%
X7419993Y-7155180D02*
X7584440Y-7319627D01*
X7320280Y-7155180D02*
X7419993Y-7155180D01*
X6786880Y-7030720D02*
X6786880Y-7086600D01*
X6855460Y-7155180D02*
X7320280Y-7155180D01*
X7584440Y-7319627D02*
X7584440Y-7376160D01*
X6786880Y-7086600D02*
X6830060Y-7129780D01*
X6830060Y-7129780D02*
X6855460Y-7155180D01*
%TD*%
%TA.AperFunction,Conductor*%
%TO.N,GND*%
G36*
X8270414Y-6058959D02*
G01*
X8272986Y-6063414D01*
X8273100Y-6064720D01*
X8273100Y-6353398D01*
X8271341Y-6358232D01*
X8266886Y-6360804D01*
X8261490Y-6359708D01*
X8253061Y-6354245D01*
X8253061Y-6354245D01*
X8252612Y-6353954D01*
X8247983Y-6352570D01*
X8239867Y-6350143D01*
X8239867Y-6350143D01*
X8239354Y-6349989D01*
X8238819Y-6349986D01*
X8238818Y-6349986D01*
X8232632Y-6349948D01*
X8225516Y-6349905D01*
X8212211Y-6353707D01*
X8200507Y-6361092D01*
X8197286Y-6364739D01*
X8197194Y-6364843D01*
X8192676Y-6367301D01*
X8187634Y-6366280D01*
X8186155Y-6365016D01*
X8186122Y-6364964D01*
X8175205Y-6355322D01*
X8174720Y-6355095D01*
X8174720Y-6355094D01*
X8169047Y-6352431D01*
X8162020Y-6349132D01*
X8156051Y-6348202D01*
X8151248Y-6347455D01*
X8151248Y-6347455D01*
X8150961Y-6347410D01*
X7964217Y-6347410D01*
X7959384Y-6345651D01*
X7958900Y-6345207D01*
X7766241Y-6152548D01*
X7765198Y-6151244D01*
X7764782Y-6150584D01*
X7760629Y-6146916D01*
X7760290Y-6146597D01*
X7759034Y-6145342D01*
X7758820Y-6145181D01*
X7758820Y-6145181D01*
X7758034Y-6144592D01*
X7757567Y-6144211D01*
X7754267Y-6141297D01*
X7754266Y-6141297D01*
X7753865Y-6140942D01*
X7752687Y-6140389D01*
X7751372Y-6139599D01*
X7750759Y-6139140D01*
X7750759Y-6139139D01*
X7750330Y-6138818D01*
X7745705Y-6137084D01*
X7745149Y-6136850D01*
X7741165Y-6134980D01*
X7740680Y-6134752D01*
X7740151Y-6134669D01*
X7740150Y-6134669D01*
X7739394Y-6134551D01*
X7737911Y-6134163D01*
X7737193Y-6133894D01*
X7737193Y-6133894D01*
X7736692Y-6133705D01*
X7736157Y-6133666D01*
X7736157Y-6133666D01*
X7734467Y-6133540D01*
X7731767Y-6133340D01*
X7731167Y-6133271D01*
X7730757Y-6133207D01*
X7729909Y-6133075D01*
X7729909Y-6133075D01*
X7729621Y-6133030D01*
X7727880Y-6133030D01*
X7727323Y-6133009D01*
X7722700Y-6132666D01*
X7722700Y-6132666D01*
X7722166Y-6132626D01*
X7721050Y-6132864D01*
X7719480Y-6133030D01*
X7633900Y-6133030D01*
X7633343Y-6133009D01*
X7628720Y-6132666D01*
X7628720Y-6132666D01*
X7628186Y-6132626D01*
X7627070Y-6132864D01*
X7625500Y-6133030D01*
X7274969Y-6133030D01*
X7274705Y-6133068D01*
X7274705Y-6133068D01*
X7264731Y-6134496D01*
X7264731Y-6134496D01*
X7264201Y-6134572D01*
X7263714Y-6134794D01*
X7263714Y-6134794D01*
X7252127Y-6140062D01*
X7250942Y-6140601D01*
X7250536Y-6140951D01*
X7250536Y-6140951D01*
X7240313Y-6149759D01*
X7239907Y-6150109D01*
X7231985Y-6162331D01*
X7227811Y-6176287D01*
X7227722Y-6190852D01*
X7231725Y-6204857D01*
X7239498Y-6217176D01*
X7250415Y-6226818D01*
X7250900Y-6227045D01*
X7250900Y-6227045D01*
X7256573Y-6229709D01*
X7263600Y-6233008D01*
X7268547Y-6233778D01*
X7274372Y-6234685D01*
X7274372Y-6234685D01*
X7274659Y-6234730D01*
X7575130Y-6234730D01*
X7579964Y-6236489D01*
X7582536Y-6240944D01*
X7582650Y-6242250D01*
X7582650Y-6330817D01*
X7580891Y-6335651D01*
X7576436Y-6338223D01*
X7571040Y-6337127D01*
X7562181Y-6331385D01*
X7562181Y-6331385D01*
X7561732Y-6331094D01*
X7554051Y-6328797D01*
X7548987Y-6327283D01*
X7548987Y-6327283D01*
X7548474Y-6327129D01*
X7547939Y-6327126D01*
X7547938Y-6327126D01*
X7541752Y-6327088D01*
X7534636Y-6327045D01*
X7521331Y-6330847D01*
X7509627Y-6338232D01*
X7500467Y-6348604D01*
X7500239Y-6349089D01*
X7500239Y-6349089D01*
X7497955Y-6353954D01*
X7494586Y-6361130D01*
X7492457Y-6374804D01*
X7492526Y-6375334D01*
X7492526Y-6375335D01*
X7493082Y-6379584D01*
X7494251Y-6388525D01*
X7499824Y-6401191D01*
X7500169Y-6401601D01*
X7500169Y-6401601D01*
X7501346Y-6403002D01*
X7503110Y-6407841D01*
X7503110Y-6825187D01*
X7502942Y-6826770D01*
X7502625Y-6828238D01*
X7502699Y-6828855D01*
X7503058Y-6831892D01*
X7503110Y-6832775D01*
X7503110Y-6833229D01*
X7503161Y-6833535D01*
X7503161Y-6833536D01*
X7503448Y-6835263D01*
X7503498Y-6835613D01*
X7504118Y-6840851D01*
X7504387Y-6841411D01*
X7504462Y-6841667D01*
X7504468Y-6841696D01*
X7504480Y-6841724D01*
X7504566Y-6841975D01*
X7504668Y-6842588D01*
X7507172Y-6847230D01*
X7507332Y-6847543D01*
X7509267Y-6851572D01*
X7509616Y-6852300D01*
X7509977Y-6852729D01*
X7510055Y-6852807D01*
X7510406Y-6853223D01*
X7510699Y-6853766D01*
X7511155Y-6854188D01*
X7511155Y-6854188D01*
X7514754Y-6857514D01*
X7514966Y-6857719D01*
X7537578Y-6880330D01*
X7538578Y-6881568D01*
X7539393Y-6882830D01*
X7539881Y-6883215D01*
X7540423Y-6883642D01*
X7543130Y-6888016D01*
X7542391Y-6893107D01*
X7539780Y-6895908D01*
X7533061Y-6900147D01*
X7529947Y-6902112D01*
X7520787Y-6912484D01*
X7520559Y-6912969D01*
X7520559Y-6912969D01*
X7519470Y-6915289D01*
X7514906Y-6925010D01*
X7512777Y-6938684D01*
X7512846Y-6939214D01*
X7512846Y-6939215D01*
X7513484Y-6944092D01*
X7514571Y-6952405D01*
X7520144Y-6965071D01*
X7529049Y-6975664D01*
X7529495Y-6975961D01*
X7529495Y-6975961D01*
X7540122Y-6983035D01*
X7540122Y-6983035D01*
X7540568Y-6983332D01*
X7553777Y-6987459D01*
X7560927Y-6987590D01*
X7567076Y-6987703D01*
X7567077Y-6987703D01*
X7567613Y-6987712D01*
X7568130Y-6987571D01*
X7568130Y-6987571D01*
X7578048Y-6984867D01*
X7580963Y-6984073D01*
X7586038Y-6980957D01*
X7592299Y-6977112D01*
X7592300Y-6977112D01*
X7592756Y-6976832D01*
X7602043Y-6966572D01*
X7602770Y-6965071D01*
X7607843Y-6954601D01*
X7608076Y-6954119D01*
X7608569Y-6951194D01*
X7610076Y-6942234D01*
X7610372Y-6940472D01*
X7610387Y-6939280D01*
X7610346Y-6938992D01*
X7608501Y-6926112D01*
X7608501Y-6926111D01*
X7608425Y-6925582D01*
X7608165Y-6925010D01*
X7602919Y-6913472D01*
X7602697Y-6912984D01*
X7602347Y-6912578D01*
X7602347Y-6912578D01*
X7597867Y-6907379D01*
X7596045Y-6902568D01*
X7597741Y-6897712D01*
X7602162Y-6895082D01*
X7603564Y-6894950D01*
X7664797Y-6894950D01*
X7668964Y-6896210D01*
X7675492Y-6900555D01*
X7675492Y-6900555D01*
X7675938Y-6900852D01*
X7689147Y-6904979D01*
X7696297Y-6905110D01*
X7702446Y-6905223D01*
X7702447Y-6905223D01*
X7702983Y-6905232D01*
X7703500Y-6905091D01*
X7703500Y-6905091D01*
X7713002Y-6902501D01*
X7716333Y-6901593D01*
X7722654Y-6897712D01*
X7727669Y-6894632D01*
X7727670Y-6894632D01*
X7728126Y-6894352D01*
X7737413Y-6884092D01*
X7737843Y-6883205D01*
X7742722Y-6873135D01*
X7743446Y-6871639D01*
X7743809Y-6869481D01*
X7745117Y-6861707D01*
X7745742Y-6857992D01*
X7745747Y-6857613D01*
X7745753Y-6857091D01*
X7745757Y-6856800D01*
X7745383Y-6854188D01*
X7743871Y-6843632D01*
X7743871Y-6843631D01*
X7743795Y-6843102D01*
X7743562Y-6842588D01*
X7740204Y-6835204D01*
X7738067Y-6830504D01*
X7733457Y-6825154D01*
X7729384Y-6820426D01*
X7729383Y-6820426D01*
X7729034Y-6820021D01*
X7723921Y-6816707D01*
X7717871Y-6812785D01*
X7717871Y-6812785D01*
X7717422Y-6812494D01*
X7709101Y-6810006D01*
X7704677Y-6808683D01*
X7704677Y-6808683D01*
X7704164Y-6808529D01*
X7703629Y-6808526D01*
X7703628Y-6808526D01*
X7697442Y-6808488D01*
X7690326Y-6808445D01*
X7677021Y-6812247D01*
X7672998Y-6814786D01*
X7668712Y-6817490D01*
X7664699Y-6818650D01*
X7586930Y-6818650D01*
X7582096Y-6816891D01*
X7579524Y-6812436D01*
X7579410Y-6811130D01*
X7579410Y-6664779D01*
X7581169Y-6659945D01*
X7585624Y-6657373D01*
X7590690Y-6658267D01*
X7592627Y-6659870D01*
X7599729Y-6668113D01*
X7600178Y-6668404D01*
X7609814Y-6674650D01*
X7611951Y-6676035D01*
X7625907Y-6680209D01*
X7626442Y-6680212D01*
X7626442Y-6680212D01*
X7632888Y-6680251D01*
X7640472Y-6680298D01*
X7654477Y-6676295D01*
X7666796Y-6668522D01*
X7676438Y-6657605D01*
X7676675Y-6657099D01*
X7679475Y-6651135D01*
X7682628Y-6644420D01*
X7683607Y-6638133D01*
X7684305Y-6633648D01*
X7684305Y-6633648D01*
X7684350Y-6633361D01*
X7684350Y-6579335D01*
X7686109Y-6574501D01*
X7690564Y-6571929D01*
X7695630Y-6572823D01*
X7697626Y-6574496D01*
X7700523Y-6577943D01*
X7701769Y-6579424D01*
X7702215Y-6579721D01*
X7702215Y-6579721D01*
X7712842Y-6586795D01*
X7712842Y-6586795D01*
X7713288Y-6587092D01*
X7726497Y-6591219D01*
X7733647Y-6591350D01*
X7739796Y-6591463D01*
X7739797Y-6591463D01*
X7740333Y-6591472D01*
X7740850Y-6591331D01*
X7740850Y-6591331D01*
X7748131Y-6589346D01*
X7753683Y-6587833D01*
X7760192Y-6583836D01*
X7765019Y-6580872D01*
X7765020Y-6580872D01*
X7765476Y-6580592D01*
X7774763Y-6570332D01*
X7775490Y-6568831D01*
X7777646Y-6564380D01*
X7780796Y-6557879D01*
X7783092Y-6544232D01*
X7783107Y-6543040D01*
X7781874Y-6534430D01*
X7781221Y-6529872D01*
X7781221Y-6529871D01*
X7781145Y-6529342D01*
X7780885Y-6528770D01*
X7775639Y-6517232D01*
X7775417Y-6516744D01*
X7771084Y-6511715D01*
X7766734Y-6506666D01*
X7766733Y-6506666D01*
X7766384Y-6506261D01*
X7765935Y-6505970D01*
X7755221Y-6499025D01*
X7755221Y-6499025D01*
X7754772Y-6498734D01*
X7750143Y-6497350D01*
X7742027Y-6494923D01*
X7742027Y-6494923D01*
X7741514Y-6494769D01*
X7740979Y-6494766D01*
X7740978Y-6494766D01*
X7734792Y-6494728D01*
X7727676Y-6494685D01*
X7714371Y-6498487D01*
X7708256Y-6502346D01*
X7703436Y-6505386D01*
X7702667Y-6505872D01*
X7702313Y-6506273D01*
X7697506Y-6511715D01*
X7692988Y-6514174D01*
X7687946Y-6513153D01*
X7684741Y-6509130D01*
X7684350Y-6506737D01*
X7684350Y-6442175D01*
X7686109Y-6437341D01*
X7690564Y-6434769D01*
X7695630Y-6435663D01*
X7697626Y-6437336D01*
X7699586Y-6439668D01*
X7701769Y-6442264D01*
X7702215Y-6442561D01*
X7702215Y-6442561D01*
X7712842Y-6449635D01*
X7712842Y-6449635D01*
X7713288Y-6449932D01*
X7726497Y-6454059D01*
X7733647Y-6454190D01*
X7739796Y-6454303D01*
X7739797Y-6454303D01*
X7740333Y-6454312D01*
X7740850Y-6454171D01*
X7740850Y-6454171D01*
X7751860Y-6451170D01*
X7753683Y-6450673D01*
X7759489Y-6447108D01*
X7765019Y-6443712D01*
X7765020Y-6443712D01*
X7765476Y-6443432D01*
X7766073Y-6442772D01*
X7768883Y-6439668D01*
X7774763Y-6433172D01*
X7775374Y-6431910D01*
X7777606Y-6427303D01*
X7780796Y-6420719D01*
X7783092Y-6407072D01*
X7783107Y-6405880D01*
X7783016Y-6405247D01*
X7781221Y-6392712D01*
X7781221Y-6392711D01*
X7781145Y-6392182D01*
X7780885Y-6391610D01*
X7775639Y-6380072D01*
X7775417Y-6379584D01*
X7769300Y-6372485D01*
X7766734Y-6369506D01*
X7766733Y-6369506D01*
X7766384Y-6369101D01*
X7765935Y-6368810D01*
X7755221Y-6361865D01*
X7755221Y-6361865D01*
X7754772Y-6361574D01*
X7748533Y-6359708D01*
X7742027Y-6357763D01*
X7742027Y-6357763D01*
X7741514Y-6357609D01*
X7740979Y-6357606D01*
X7740978Y-6357606D01*
X7734792Y-6357568D01*
X7727676Y-6357525D01*
X7714371Y-6361327D01*
X7702667Y-6368712D01*
X7699790Y-6371970D01*
X7697506Y-6374555D01*
X7692988Y-6377014D01*
X7687946Y-6375993D01*
X7684741Y-6371970D01*
X7684350Y-6369577D01*
X7684350Y-6242250D01*
X7686109Y-6237416D01*
X7690564Y-6234844D01*
X7691870Y-6234730D01*
X7701482Y-6234730D01*
X7706316Y-6236489D01*
X7706800Y-6236933D01*
X7899459Y-6429592D01*
X7900501Y-6430896D01*
X7900918Y-6431556D01*
X7901319Y-6431910D01*
X7905071Y-6435224D01*
X7905410Y-6435543D01*
X7906665Y-6436798D01*
X7906880Y-6436959D01*
X7906880Y-6436959D01*
X7907666Y-6437548D01*
X7908133Y-6437929D01*
X7911433Y-6440843D01*
X7911433Y-6440843D01*
X7911835Y-6441198D01*
X7913013Y-6441751D01*
X7914328Y-6442541D01*
X7914675Y-6442801D01*
X7917487Y-6447108D01*
X7916873Y-6452215D01*
X7915801Y-6453796D01*
X7914842Y-6454882D01*
X7914487Y-6455284D01*
X7914259Y-6455769D01*
X7914259Y-6455769D01*
X7912394Y-6459742D01*
X7908606Y-6467810D01*
X7906477Y-6481484D01*
X7906546Y-6482014D01*
X7906546Y-6482015D01*
X7907037Y-6485765D01*
X7908271Y-6495205D01*
X7909651Y-6498340D01*
X7911413Y-6502346D01*
X7912050Y-6505374D01*
X7912050Y-7116307D01*
X7912233Y-7116870D01*
X7912932Y-7119020D01*
X7913207Y-7120168D01*
X7913653Y-7122985D01*
X7913922Y-7123513D01*
X7913922Y-7123513D01*
X7914948Y-7125527D01*
X7915400Y-7126617D01*
X7916098Y-7128767D01*
X7916099Y-7128768D01*
X7916282Y-7129331D01*
X7916630Y-7129810D01*
X7916630Y-7129810D01*
X7917959Y-7131639D01*
X7918575Y-7132645D01*
X7919247Y-7133964D01*
X7919870Y-7135187D01*
X7922306Y-7137622D01*
X7970670Y-7185986D01*
X7970670Y-7185987D01*
X7980353Y-7195670D01*
X7980881Y-7195938D01*
X7980881Y-7195939D01*
X7982896Y-7196965D01*
X7983902Y-7197582D01*
X7986209Y-7199258D01*
X7988922Y-7200140D01*
X7990012Y-7200591D01*
X7992027Y-7201618D01*
X7992027Y-7201618D01*
X7992555Y-7201887D01*
X7995373Y-7202333D01*
X7996519Y-7202608D01*
X7999233Y-7203490D01*
X8050399Y-7203490D01*
X8053450Y-7204180D01*
X8053648Y-7204312D01*
X8066857Y-7208439D01*
X8074007Y-7208570D01*
X8080156Y-7208683D01*
X8080157Y-7208683D01*
X8080693Y-7208692D01*
X8081210Y-7208551D01*
X8081210Y-7208551D01*
X8088491Y-7206566D01*
X8094043Y-7205053D01*
X8094778Y-7204601D01*
X8098713Y-7203490D01*
X8122739Y-7203490D01*
X8125790Y-7204180D01*
X8125988Y-7204312D01*
X8139197Y-7208439D01*
X8146347Y-7208570D01*
X8152496Y-7208683D01*
X8152497Y-7208683D01*
X8153033Y-7208692D01*
X8153550Y-7208551D01*
X8153550Y-7208551D01*
X8160831Y-7206566D01*
X8166383Y-7205053D01*
X8167118Y-7204601D01*
X8171053Y-7203490D01*
X8205339Y-7203490D01*
X8208390Y-7204180D01*
X8208588Y-7204312D01*
X8221797Y-7208439D01*
X8228947Y-7208570D01*
X8235096Y-7208683D01*
X8235097Y-7208683D01*
X8235633Y-7208692D01*
X8236150Y-7208551D01*
X8236150Y-7208551D01*
X8243431Y-7206566D01*
X8248983Y-7205053D01*
X8260776Y-7197812D01*
X8260908Y-7197666D01*
X8265619Y-7195979D01*
X8270444Y-7197763D01*
X8272992Y-7202231D01*
X8273100Y-7203499D01*
X8273100Y-7379325D01*
X8271341Y-7384159D01*
X8266886Y-7386731D01*
X8261820Y-7385838D01*
X8259883Y-7384234D01*
X8254414Y-7377886D01*
X8254413Y-7377886D01*
X8254064Y-7377481D01*
X8253615Y-7377190D01*
X8242901Y-7370245D01*
X8242901Y-7370245D01*
X8242452Y-7369954D01*
X8237823Y-7368570D01*
X8229707Y-7366143D01*
X8229707Y-7366143D01*
X8229194Y-7365989D01*
X8228659Y-7365986D01*
X8228658Y-7365986D01*
X8222472Y-7365948D01*
X8215356Y-7365905D01*
X8202051Y-7369707D01*
X8190347Y-7377092D01*
X8189993Y-7377493D01*
X8189585Y-7377840D01*
X8189458Y-7377692D01*
X8185631Y-7379774D01*
X8180589Y-7378753D01*
X8179569Y-7378005D01*
X8179434Y-7377887D01*
X8179084Y-7377481D01*
X8169260Y-7371113D01*
X8167921Y-7370245D01*
X8167921Y-7370245D01*
X8167472Y-7369954D01*
X8162843Y-7368570D01*
X8154727Y-7366143D01*
X8154727Y-7366143D01*
X8154214Y-7365989D01*
X8153679Y-7365986D01*
X8153678Y-7365986D01*
X8147492Y-7365948D01*
X8140376Y-7365905D01*
X8127071Y-7369707D01*
X8115367Y-7377092D01*
X8115334Y-7377039D01*
X8110889Y-7378692D01*
X8106909Y-7377227D01*
X8106744Y-7377481D01*
X8095581Y-7370245D01*
X8095581Y-7370245D01*
X8095132Y-7369954D01*
X8090503Y-7368570D01*
X8082387Y-7366143D01*
X8082387Y-7366143D01*
X8081874Y-7365989D01*
X8081339Y-7365986D01*
X8081338Y-7365986D01*
X8075152Y-7365948D01*
X8068036Y-7365905D01*
X8054731Y-7369707D01*
X8043027Y-7377092D01*
X8033867Y-7387464D01*
X8033639Y-7387949D01*
X8033639Y-7387949D01*
X8031981Y-7391481D01*
X8027986Y-7399990D01*
X8025857Y-7413664D01*
X8025926Y-7414194D01*
X8025926Y-7414195D01*
X8026091Y-7415452D01*
X8027651Y-7427385D01*
X8033224Y-7440051D01*
X8042129Y-7450644D01*
X8042575Y-7450941D01*
X8042575Y-7450941D01*
X8053202Y-7458015D01*
X8053202Y-7458015D01*
X8053648Y-7458312D01*
X8066857Y-7462439D01*
X8074007Y-7462570D01*
X8080156Y-7462683D01*
X8080157Y-7462683D01*
X8080693Y-7462692D01*
X8081210Y-7462551D01*
X8081210Y-7462551D01*
X8089292Y-7460348D01*
X8094043Y-7459053D01*
X8105836Y-7451812D01*
X8106125Y-7451493D01*
X8110926Y-7449774D01*
X8115054Y-7451034D01*
X8116404Y-7451932D01*
X8125542Y-7458015D01*
X8125542Y-7458015D01*
X8125988Y-7458312D01*
X8139197Y-7462439D01*
X8146347Y-7462570D01*
X8152496Y-7462683D01*
X8152497Y-7462683D01*
X8153033Y-7462692D01*
X8153550Y-7462551D01*
X8153550Y-7462551D01*
X8161632Y-7460348D01*
X8166383Y-7459053D01*
X8171520Y-7455899D01*
X8177719Y-7452092D01*
X8177720Y-7452092D01*
X8178176Y-7451812D01*
X8178838Y-7451081D01*
X8183386Y-7448678D01*
X8188415Y-7449761D01*
X8189208Y-7450358D01*
X8189449Y-7450644D01*
X8189895Y-7450941D01*
X8189895Y-7450941D01*
X8200522Y-7458015D01*
X8200522Y-7458015D01*
X8200968Y-7458312D01*
X8214177Y-7462439D01*
X8221327Y-7462570D01*
X8227476Y-7462683D01*
X8227477Y-7462683D01*
X8228013Y-7462692D01*
X8228530Y-7462551D01*
X8228530Y-7462551D01*
X8236612Y-7460348D01*
X8241363Y-7459053D01*
X8246500Y-7455899D01*
X8252699Y-7452092D01*
X8252700Y-7452092D01*
X8253156Y-7451812D01*
X8260005Y-7444246D01*
X8264553Y-7441843D01*
X8269582Y-7442925D01*
X8272738Y-7446987D01*
X8273100Y-7449292D01*
X8273100Y-7498880D01*
X8271341Y-7503714D01*
X8266886Y-7506286D01*
X8265580Y-7506400D01*
X7087688Y-7506400D01*
X7082854Y-7504641D01*
X7080282Y-7500186D01*
X7080921Y-7495601D01*
X7084603Y-7488001D01*
X7084603Y-7488001D01*
X7084836Y-7487519D01*
X7085336Y-7484550D01*
X7087084Y-7474159D01*
X7087132Y-7473872D01*
X7087147Y-7472680D01*
X7086707Y-7469608D01*
X7085261Y-7459512D01*
X7085261Y-7459511D01*
X7085185Y-7458982D01*
X7084953Y-7458472D01*
X7080500Y-7448678D01*
X7079457Y-7446384D01*
X7074001Y-7440051D01*
X7070774Y-7436306D01*
X7070773Y-7436306D01*
X7070424Y-7435901D01*
X7069913Y-7435570D01*
X7059261Y-7428665D01*
X7059261Y-7428665D01*
X7058812Y-7428374D01*
X7053727Y-7426853D01*
X7046067Y-7424563D01*
X7046067Y-7424563D01*
X7045554Y-7424409D01*
X7045019Y-7424406D01*
X7045018Y-7424406D01*
X7038832Y-7424368D01*
X7031716Y-7424325D01*
X7018411Y-7428127D01*
X7006707Y-7435512D01*
X6997547Y-7445884D01*
X6997319Y-7446369D01*
X6997319Y-7446369D01*
X6994906Y-7451508D01*
X6991666Y-7458410D01*
X6989537Y-7472084D01*
X6989606Y-7472614D01*
X6989606Y-7472615D01*
X6989653Y-7472971D01*
X6991331Y-7485805D01*
X6995641Y-7495601D01*
X6995752Y-7495851D01*
X6996088Y-7500984D01*
X6993046Y-7505133D01*
X6988868Y-7506400D01*
X6955608Y-7506400D01*
X6950774Y-7504641D01*
X6948202Y-7500186D01*
X6948841Y-7495601D01*
X6952523Y-7488001D01*
X6952523Y-7488001D01*
X6952756Y-7487519D01*
X6953256Y-7484550D01*
X6955004Y-7474159D01*
X6955052Y-7473872D01*
X6955067Y-7472680D01*
X6954627Y-7469608D01*
X6953181Y-7459512D01*
X6953181Y-7459511D01*
X6953105Y-7458982D01*
X6952873Y-7458472D01*
X6948420Y-7448678D01*
X6947377Y-7446384D01*
X6941921Y-7440051D01*
X6938694Y-7436306D01*
X6938693Y-7436306D01*
X6938344Y-7435901D01*
X6937833Y-7435570D01*
X6927181Y-7428665D01*
X6927181Y-7428665D01*
X6926732Y-7428374D01*
X6921647Y-7426853D01*
X6913987Y-7424563D01*
X6913987Y-7424563D01*
X6913474Y-7424409D01*
X6912939Y-7424406D01*
X6912938Y-7424406D01*
X6906752Y-7424368D01*
X6899636Y-7424325D01*
X6886331Y-7428127D01*
X6874627Y-7435512D01*
X6865467Y-7445884D01*
X6865239Y-7446369D01*
X6865239Y-7446369D01*
X6862826Y-7451508D01*
X6859586Y-7458410D01*
X6857457Y-7472084D01*
X6857526Y-7472614D01*
X6857526Y-7472615D01*
X6857573Y-7472971D01*
X6859251Y-7485805D01*
X6863561Y-7495601D01*
X6863672Y-7495851D01*
X6864008Y-7500984D01*
X6860966Y-7505133D01*
X6856788Y-7506400D01*
X5901742Y-7506400D01*
X5900275Y-7506255D01*
X5900173Y-7506235D01*
X5898500Y-7505902D01*
X5897773Y-7506047D01*
X5897325Y-7506047D01*
X5895717Y-7506126D01*
X5885633Y-7505133D01*
X5884683Y-7505039D01*
X5883237Y-7504752D01*
X5870661Y-7500936D01*
X5869299Y-7500372D01*
X5857708Y-7494177D01*
X5856482Y-7493358D01*
X5846322Y-7485020D01*
X5845280Y-7483978D01*
X5836942Y-7473818D01*
X5836123Y-7472592D01*
X5829928Y-7461001D01*
X5829364Y-7459639D01*
X5825548Y-7447062D01*
X5825261Y-7445617D01*
X5824237Y-7435226D01*
X5824174Y-7434583D01*
X5824253Y-7432975D01*
X5824253Y-7432526D01*
X5824398Y-7431800D01*
X5824044Y-7430025D01*
X5823900Y-7428558D01*
X5823900Y-7407284D01*
X6762237Y-7407284D01*
X6762306Y-7407814D01*
X6762306Y-7407815D01*
X6762353Y-7408171D01*
X6764031Y-7421005D01*
X6769604Y-7433671D01*
X6778509Y-7444264D01*
X6778955Y-7444561D01*
X6778955Y-7444561D01*
X6789582Y-7451635D01*
X6789582Y-7451635D01*
X6790028Y-7451932D01*
X6803237Y-7456059D01*
X6810387Y-7456190D01*
X6816536Y-7456303D01*
X6816537Y-7456303D01*
X6817073Y-7456312D01*
X6817590Y-7456171D01*
X6817590Y-7456171D01*
X6824871Y-7454186D01*
X6830423Y-7452673D01*
X6836929Y-7448678D01*
X6841759Y-7445712D01*
X6841760Y-7445712D01*
X6842216Y-7445432D01*
X6851503Y-7435172D01*
X6852230Y-7433671D01*
X6856687Y-7424472D01*
X6857536Y-7422719D01*
X6857810Y-7421094D01*
X6859784Y-7409359D01*
X6859832Y-7409072D01*
X6859847Y-7407880D01*
X6859270Y-7403850D01*
X6857961Y-7394712D01*
X6857961Y-7394711D01*
X6857885Y-7394182D01*
X6857625Y-7393610D01*
X6853137Y-7383739D01*
X6852157Y-7381584D01*
X6846514Y-7375035D01*
X6843474Y-7371506D01*
X6843473Y-7371506D01*
X6843124Y-7371101D01*
X6842675Y-7370810D01*
X6831961Y-7363865D01*
X6831961Y-7363865D01*
X6831512Y-7363574D01*
X6826883Y-7362190D01*
X6818767Y-7359763D01*
X6818767Y-7359763D01*
X6818254Y-7359609D01*
X6817719Y-7359606D01*
X6817718Y-7359606D01*
X6811532Y-7359568D01*
X6804416Y-7359525D01*
X6791111Y-7363327D01*
X6779407Y-7370712D01*
X6770247Y-7381084D01*
X6764366Y-7393610D01*
X6762237Y-7407284D01*
X5823900Y-7407284D01*
X5823900Y-7304444D01*
X6918417Y-7304444D01*
X6918486Y-7304974D01*
X6918486Y-7304975D01*
X6918991Y-7308836D01*
X6920211Y-7318165D01*
X6925784Y-7330831D01*
X6934689Y-7341424D01*
X6935135Y-7341721D01*
X6935135Y-7341721D01*
X6945762Y-7348795D01*
X6945762Y-7348795D01*
X6946208Y-7349092D01*
X6959417Y-7353219D01*
X6966567Y-7353350D01*
X6972716Y-7353463D01*
X6972717Y-7353463D01*
X6973253Y-7353472D01*
X6973770Y-7353331D01*
X6973770Y-7353331D01*
X6984697Y-7350352D01*
X6986603Y-7349833D01*
X6992241Y-7346371D01*
X6997939Y-7342872D01*
X6997940Y-7342872D01*
X6998396Y-7342592D01*
X7007683Y-7332332D01*
X7008410Y-7330831D01*
X7012244Y-7322918D01*
X7013716Y-7319879D01*
X7014292Y-7316458D01*
X7015470Y-7309453D01*
X7016012Y-7306232D01*
X7016027Y-7305040D01*
X7015866Y-7303915D01*
X7014141Y-7291872D01*
X7014141Y-7291871D01*
X7014065Y-7291342D01*
X7013805Y-7290770D01*
X7008559Y-7279232D01*
X7008337Y-7278744D01*
X7002765Y-7272277D01*
X6999654Y-7268666D01*
X6999653Y-7268666D01*
X6999304Y-7268261D01*
X6998813Y-7267942D01*
X6995343Y-7265694D01*
X7085407Y-7265694D01*
X7085476Y-7266224D01*
X7085476Y-7266225D01*
X7086268Y-7272277D01*
X7087201Y-7279415D01*
X7092774Y-7292081D01*
X7101679Y-7302674D01*
X7102125Y-7302971D01*
X7102125Y-7302971D01*
X7112752Y-7310045D01*
X7112752Y-7310045D01*
X7113198Y-7310342D01*
X7126407Y-7314469D01*
X7133557Y-7314600D01*
X7139706Y-7314713D01*
X7139707Y-7314713D01*
X7140243Y-7314722D01*
X7140760Y-7314581D01*
X7140760Y-7314581D01*
X7148041Y-7312596D01*
X7153593Y-7311083D01*
X7160082Y-7307099D01*
X7164929Y-7304122D01*
X7164930Y-7304122D01*
X7165386Y-7303842D01*
X7174673Y-7293582D01*
X7175400Y-7292081D01*
X7180473Y-7281611D01*
X7180706Y-7281129D01*
X7181165Y-7278401D01*
X7182195Y-7272277D01*
X7183002Y-7267482D01*
X7183017Y-7266290D01*
X7182856Y-7265165D01*
X7182515Y-7262784D01*
X7221697Y-7262784D01*
X7221766Y-7263314D01*
X7221766Y-7263315D01*
X7222371Y-7267942D01*
X7223491Y-7276505D01*
X7229064Y-7289171D01*
X7237969Y-7299764D01*
X7238415Y-7300061D01*
X7238415Y-7300061D01*
X7249042Y-7307135D01*
X7249042Y-7307135D01*
X7249488Y-7307432D01*
X7262697Y-7311559D01*
X7269847Y-7311690D01*
X7275996Y-7311803D01*
X7275997Y-7311803D01*
X7276533Y-7311812D01*
X7277050Y-7311671D01*
X7277050Y-7311671D01*
X7284331Y-7309686D01*
X7289883Y-7308173D01*
X7295957Y-7304444D01*
X7301219Y-7301212D01*
X7301220Y-7301212D01*
X7301676Y-7300932D01*
X7310963Y-7290672D01*
X7311690Y-7289171D01*
X7315353Y-7281611D01*
X7316996Y-7278219D01*
X7317256Y-7276674D01*
X7318737Y-7267872D01*
X7319292Y-7264572D01*
X7319307Y-7263380D01*
X7318928Y-7260734D01*
X7317421Y-7250212D01*
X7317421Y-7250211D01*
X7317345Y-7249682D01*
X7317085Y-7249110D01*
X7311839Y-7237572D01*
X7311617Y-7237084D01*
X7305552Y-7230045D01*
X7302934Y-7227006D01*
X7302933Y-7227006D01*
X7302584Y-7226601D01*
X7302135Y-7226310D01*
X7291421Y-7219365D01*
X7291421Y-7219365D01*
X7290972Y-7219074D01*
X7281929Y-7216370D01*
X7278227Y-7215263D01*
X7278227Y-7215263D01*
X7277714Y-7215109D01*
X7277179Y-7215106D01*
X7277178Y-7215106D01*
X7270992Y-7215068D01*
X7263876Y-7215025D01*
X7250571Y-7218827D01*
X7238867Y-7226212D01*
X7229707Y-7236584D01*
X7229479Y-7237069D01*
X7229479Y-7237069D01*
X7227877Y-7240482D01*
X7223826Y-7249110D01*
X7221697Y-7262784D01*
X7182515Y-7262784D01*
X7181131Y-7253122D01*
X7181131Y-7253121D01*
X7181055Y-7252592D01*
X7180795Y-7252020D01*
X7175549Y-7240482D01*
X7175327Y-7239994D01*
X7170854Y-7234803D01*
X7166644Y-7229916D01*
X7166643Y-7229916D01*
X7166294Y-7229511D01*
X7165845Y-7229220D01*
X7155131Y-7222275D01*
X7155131Y-7222275D01*
X7154682Y-7221984D01*
X7145925Y-7219365D01*
X7141937Y-7218173D01*
X7141937Y-7218173D01*
X7141424Y-7218019D01*
X7140889Y-7218016D01*
X7140888Y-7218016D01*
X7134702Y-7217978D01*
X7127586Y-7217935D01*
X7114281Y-7221737D01*
X7102577Y-7229122D01*
X7093417Y-7239494D01*
X7093189Y-7239979D01*
X7093189Y-7239979D01*
X7090856Y-7244949D01*
X7087536Y-7252020D01*
X7085407Y-7265694D01*
X6995343Y-7265694D01*
X6988141Y-7261025D01*
X6988141Y-7261025D01*
X6987692Y-7260734D01*
X6983063Y-7259350D01*
X6974947Y-7256923D01*
X6974947Y-7256923D01*
X6974434Y-7256769D01*
X6973899Y-7256766D01*
X6973898Y-7256766D01*
X6967712Y-7256728D01*
X6960596Y-7256685D01*
X6947291Y-7260487D01*
X6935587Y-7267872D01*
X6926427Y-7278244D01*
X6926199Y-7278729D01*
X6926199Y-7278729D01*
X6925647Y-7279906D01*
X6920546Y-7290770D01*
X6918417Y-7304444D01*
X5823900Y-7304444D01*
X5823900Y-7257170D01*
X5825659Y-7252336D01*
X5830114Y-7249764D01*
X5835180Y-7250658D01*
X5837477Y-7252713D01*
X5846681Y-7265221D01*
X5847273Y-7265855D01*
X5860007Y-7276674D01*
X5860728Y-7277155D01*
X5875610Y-7284753D01*
X5876423Y-7285056D01*
X5892751Y-7289051D01*
X5893412Y-7289152D01*
X5894071Y-7289193D01*
X5894302Y-7289200D01*
X5913354Y-7289200D01*
X5914370Y-7288830D01*
X5914680Y-7288293D01*
X5914680Y-7287874D01*
X5950240Y-7287874D01*
X5950610Y-7288890D01*
X5951147Y-7289200D01*
X5966645Y-7289200D01*
X5967079Y-7289175D01*
X5979490Y-7287728D01*
X5980335Y-7287528D01*
X5996040Y-7281827D01*
X5996816Y-7281439D01*
X6010789Y-7272277D01*
X6011455Y-7271721D01*
X6022946Y-7259591D01*
X6023466Y-7258896D01*
X6031858Y-7244448D01*
X6032204Y-7243653D01*
X6035476Y-7232849D01*
X6035444Y-7232279D01*
X6222128Y-7232279D01*
X6222561Y-7234803D01*
X6222806Y-7235636D01*
X6229348Y-7251010D01*
X6229778Y-7251764D01*
X6239681Y-7265221D01*
X6240273Y-7265855D01*
X6253007Y-7276674D01*
X6253728Y-7277155D01*
X6268610Y-7284753D01*
X6269423Y-7285056D01*
X6285751Y-7289051D01*
X6286412Y-7289152D01*
X6287071Y-7289193D01*
X6287302Y-7289200D01*
X6331354Y-7289200D01*
X6332370Y-7288830D01*
X6332680Y-7288293D01*
X6332680Y-7287874D01*
X6368240Y-7287874D01*
X6368610Y-7288890D01*
X6369147Y-7289200D01*
X6409645Y-7289200D01*
X6410079Y-7289175D01*
X6422490Y-7287728D01*
X6423335Y-7287528D01*
X6439040Y-7281827D01*
X6439816Y-7281439D01*
X6453789Y-7272277D01*
X6454455Y-7271721D01*
X6465946Y-7259591D01*
X6466466Y-7258896D01*
X6474858Y-7244448D01*
X6475204Y-7243653D01*
X6478476Y-7232849D01*
X6478416Y-7231770D01*
X6478314Y-7231661D01*
X6477975Y-7231580D01*
X6369566Y-7231580D01*
X6368550Y-7231950D01*
X6368240Y-7232487D01*
X6368240Y-7287874D01*
X6332680Y-7287874D01*
X6332680Y-7232906D01*
X6332310Y-7231890D01*
X6331773Y-7231580D01*
X6223333Y-7231580D01*
X6222318Y-7231950D01*
X6222128Y-7232279D01*
X6035444Y-7232279D01*
X6035416Y-7231770D01*
X6035314Y-7231661D01*
X6034975Y-7231580D01*
X5951566Y-7231580D01*
X5950550Y-7231950D01*
X5950240Y-7232487D01*
X5950240Y-7287874D01*
X5914680Y-7287874D01*
X5914680Y-7194694D01*
X5950240Y-7194694D01*
X5950610Y-7195710D01*
X5951147Y-7196020D01*
X6034587Y-7196020D01*
X6035602Y-7195650D01*
X6035792Y-7195321D01*
X6035359Y-7192797D01*
X6035113Y-7191964D01*
X6028572Y-7176590D01*
X6028142Y-7175836D01*
X6018238Y-7162379D01*
X6017647Y-7161744D01*
X6004913Y-7150926D01*
X6004191Y-7150445D01*
X5989310Y-7142846D01*
X5988497Y-7142544D01*
X5972169Y-7138548D01*
X5971508Y-7138448D01*
X5970849Y-7138407D01*
X5970618Y-7138400D01*
X5951566Y-7138400D01*
X5950550Y-7138770D01*
X5950240Y-7139307D01*
X5950240Y-7194694D01*
X5914680Y-7194694D01*
X5914680Y-7139726D01*
X5914310Y-7138710D01*
X5913773Y-7138400D01*
X5898275Y-7138400D01*
X5897841Y-7138425D01*
X5885430Y-7139872D01*
X5884585Y-7140072D01*
X5868880Y-7145773D01*
X5868104Y-7146161D01*
X5854130Y-7155323D01*
X5853465Y-7155879D01*
X5841974Y-7168009D01*
X5841455Y-7168703D01*
X5837923Y-7174784D01*
X5833973Y-7178080D01*
X5828829Y-7178067D01*
X5824898Y-7174750D01*
X5823900Y-7171007D01*
X5823900Y-6673534D01*
X6176826Y-6673534D01*
X6176938Y-6674058D01*
X6177064Y-6674650D01*
X6177230Y-6676220D01*
X6177230Y-6889560D01*
X6177045Y-6891220D01*
X6176873Y-6891980D01*
X6177066Y-6895101D01*
X6177216Y-6897509D01*
X6177230Y-6897974D01*
X6177230Y-6899751D01*
X6177407Y-6900989D01*
X6177469Y-6901589D01*
X6177774Y-6906518D01*
X6177956Y-6907021D01*
X6177956Y-6907022D01*
X6178216Y-6907742D01*
X6178587Y-6909229D01*
X6178696Y-6909988D01*
X6178772Y-6910519D01*
X6178993Y-6911006D01*
X6178994Y-6911006D01*
X6180816Y-6915015D01*
X6181044Y-6915574D01*
X6182720Y-6920218D01*
X6183489Y-6921270D01*
X6184262Y-6922593D01*
X6184801Y-6923778D01*
X6185150Y-6924184D01*
X6185150Y-6924184D01*
X6186319Y-6925540D01*
X6187889Y-6927363D01*
X6188024Y-6927519D01*
X6188399Y-6927991D01*
X6189322Y-6929255D01*
X6190553Y-6930486D01*
X6190932Y-6930894D01*
X6194309Y-6934813D01*
X6194758Y-6935104D01*
X6194758Y-6935104D01*
X6195267Y-6935434D01*
X6196494Y-6936427D01*
X6268365Y-7008298D01*
X6268366Y-7008298D01*
X6268969Y-7008902D01*
X6271143Y-7013564D01*
X6269812Y-7018532D01*
X6268230Y-7020185D01*
X6256130Y-7029470D01*
X6255830Y-7029860D01*
X6255220Y-7030655D01*
X6246841Y-7041575D01*
X6241002Y-7055672D01*
X6239010Y-7070800D01*
X6241002Y-7085928D01*
X6241190Y-7086383D01*
X6241190Y-7086383D01*
X6242313Y-7089094D01*
X6246841Y-7100025D01*
X6247254Y-7100563D01*
X6253870Y-7109186D01*
X6256130Y-7112130D01*
X6268235Y-7121419D01*
X6278152Y-7125527D01*
X6278792Y-7125792D01*
X6282585Y-7129267D01*
X6283256Y-7134367D01*
X6280492Y-7138706D01*
X6277986Y-7139896D01*
X6277996Y-7139923D01*
X6277711Y-7140026D01*
X6277644Y-7140058D01*
X6277585Y-7140072D01*
X6261880Y-7145773D01*
X6261104Y-7146161D01*
X6247130Y-7155323D01*
X6246465Y-7155879D01*
X6234974Y-7168009D01*
X6234454Y-7168704D01*
X6226062Y-7183152D01*
X6225716Y-7183947D01*
X6222444Y-7194751D01*
X6222504Y-7195830D01*
X6222606Y-7195939D01*
X6222945Y-7196020D01*
X6331354Y-7196020D01*
X6332370Y-7195650D01*
X6332680Y-7195113D01*
X6332680Y-7194694D01*
X6368240Y-7194694D01*
X6368610Y-7195710D01*
X6369147Y-7196020D01*
X6477587Y-7196020D01*
X6478602Y-7195650D01*
X6478792Y-7195321D01*
X6478359Y-7192797D01*
X6478113Y-7191964D01*
X6471572Y-7176590D01*
X6471142Y-7175836D01*
X6461238Y-7162379D01*
X6460647Y-7161744D01*
X6447913Y-7150926D01*
X6447191Y-7150445D01*
X6432310Y-7142846D01*
X6431497Y-7142544D01*
X6415169Y-7138548D01*
X6414508Y-7138448D01*
X6413849Y-7138407D01*
X6413618Y-7138400D01*
X6369566Y-7138400D01*
X6368550Y-7138770D01*
X6368240Y-7139307D01*
X6368240Y-7194694D01*
X6332680Y-7194694D01*
X6332680Y-7139726D01*
X6332310Y-7138710D01*
X6331773Y-7138400D01*
X6323495Y-7138400D01*
X6318662Y-7136641D01*
X6316090Y-7132186D01*
X6316983Y-7127120D01*
X6320618Y-7123932D01*
X6326685Y-7121419D01*
X6338790Y-7112130D01*
X6341050Y-7109186D01*
X6347666Y-7100563D01*
X6348079Y-7100025D01*
X6352607Y-7089094D01*
X6353730Y-7086383D01*
X6353730Y-7086383D01*
X6353918Y-7085928D01*
X6353983Y-7085440D01*
X6353983Y-7085439D01*
X6354098Y-7084560D01*
X6356473Y-7079997D01*
X6361226Y-7078028D01*
X6361476Y-7078032D01*
X6361739Y-7078014D01*
X6362274Y-7078054D01*
X6363390Y-7077816D01*
X6364960Y-7077650D01*
X6614269Y-7077650D01*
X6614826Y-7077671D01*
X6620930Y-7078124D01*
X6620930Y-7078124D01*
X6621464Y-7078164D01*
X6628433Y-7076676D01*
X6628936Y-7076587D01*
X6632279Y-7076108D01*
X6632767Y-7075886D01*
X6633280Y-7075736D01*
X6633281Y-7075739D01*
X6634124Y-7075461D01*
X6635185Y-7075235D01*
X6635185Y-7075235D01*
X6635709Y-7075123D01*
X6642256Y-7071591D01*
X6642714Y-7071363D01*
X6643953Y-7070800D01*
X6645538Y-7070079D01*
X6645944Y-7069729D01*
X6646395Y-7069441D01*
X6646402Y-7069452D01*
X6647063Y-7068997D01*
X6647112Y-7068970D01*
X6648528Y-7068206D01*
X6653918Y-7062882D01*
X6654294Y-7062535D01*
X6656167Y-7060921D01*
X6656167Y-7060920D01*
X6656573Y-7060571D01*
X6656864Y-7060122D01*
X6657216Y-7059718D01*
X6657228Y-7059729D01*
X6657716Y-7059130D01*
X6658509Y-7058346D01*
X6658509Y-7058346D01*
X6658890Y-7057970D01*
X6659150Y-7057502D01*
X6659150Y-7057501D01*
X6662548Y-7051384D01*
X6662812Y-7050946D01*
X6664204Y-7048798D01*
X6664495Y-7048348D01*
X6664649Y-7047835D01*
X6664873Y-7047349D01*
X6664885Y-7047354D01*
X6665196Y-7046618D01*
X6665963Y-7045237D01*
X6667576Y-7038108D01*
X6667706Y-7037613D01*
X6668515Y-7034907D01*
X6668515Y-7034906D01*
X6668669Y-7034393D01*
X6668672Y-7033858D01*
X6668751Y-7033328D01*
X6668755Y-7033328D01*
X6668856Y-7032451D01*
X6669059Y-7031552D01*
X6669177Y-7031030D01*
X6669121Y-7030124D01*
X6738077Y-7030124D01*
X6738146Y-7030654D01*
X6738146Y-7030655D01*
X6739056Y-7037613D01*
X6739871Y-7043845D01*
X6742050Y-7048798D01*
X6745075Y-7055672D01*
X6745444Y-7056511D01*
X6745789Y-7056921D01*
X6745789Y-7056921D01*
X6746966Y-7058322D01*
X6748730Y-7063161D01*
X6748730Y-7081727D01*
X6748562Y-7083310D01*
X6748245Y-7084778D01*
X6748651Y-7088207D01*
X6748678Y-7088432D01*
X6748730Y-7089315D01*
X6748730Y-7089769D01*
X6748781Y-7090075D01*
X6748781Y-7090076D01*
X6749068Y-7091803D01*
X6749118Y-7092153D01*
X6749738Y-7097391D01*
X6750007Y-7097951D01*
X6750082Y-7098207D01*
X6750088Y-7098236D01*
X6750100Y-7098264D01*
X6750186Y-7098515D01*
X6750288Y-7099128D01*
X6752792Y-7103770D01*
X6752952Y-7104083D01*
X6755236Y-7108840D01*
X6755597Y-7109269D01*
X6755675Y-7109347D01*
X6756026Y-7109763D01*
X6756319Y-7110306D01*
X6756775Y-7110728D01*
X6756775Y-7110728D01*
X6760373Y-7114054D01*
X6760586Y-7114258D01*
X6805325Y-7158997D01*
X6805325Y-7158997D01*
X6815263Y-7168936D01*
X6817437Y-7173598D01*
X6816106Y-7178566D01*
X6811892Y-7181517D01*
X6809900Y-7181773D01*
X6806926Y-7181755D01*
X6793621Y-7185557D01*
X6781917Y-7192942D01*
X6772757Y-7203314D01*
X6772529Y-7203799D01*
X6772529Y-7203799D01*
X6771874Y-7205194D01*
X6766876Y-7215840D01*
X6764747Y-7229514D01*
X6764816Y-7230044D01*
X6764816Y-7230045D01*
X6765065Y-7231950D01*
X6766541Y-7243235D01*
X6772114Y-7255901D01*
X6781019Y-7266494D01*
X6781465Y-7266791D01*
X6781465Y-7266791D01*
X6792092Y-7273865D01*
X6792092Y-7273865D01*
X6792538Y-7274162D01*
X6805747Y-7278289D01*
X6812897Y-7278420D01*
X6819046Y-7278533D01*
X6819047Y-7278533D01*
X6819583Y-7278542D01*
X6820100Y-7278401D01*
X6820100Y-7278401D01*
X6829006Y-7275973D01*
X6832933Y-7274903D01*
X6838115Y-7271721D01*
X6844269Y-7267942D01*
X6844270Y-7267942D01*
X6844726Y-7267662D01*
X6854013Y-7257402D01*
X6854319Y-7256769D01*
X6859813Y-7245431D01*
X6860046Y-7244949D01*
X6862342Y-7231302D01*
X6862357Y-7230110D01*
X6862316Y-7229822D01*
X6860471Y-7216942D01*
X6860471Y-7216941D01*
X6860395Y-7216412D01*
X6860135Y-7215840D01*
X6854735Y-7203962D01*
X6854336Y-7198834D01*
X6857326Y-7194649D01*
X6861580Y-7193330D01*
X7401076Y-7193330D01*
X7405910Y-7195089D01*
X7406393Y-7195533D01*
X7544087Y-7333227D01*
X7546261Y-7337889D01*
X7546290Y-7338544D01*
X7546290Y-7343526D01*
X7544406Y-7348504D01*
X7544002Y-7348962D01*
X7544002Y-7348962D01*
X7543647Y-7349364D01*
X7543419Y-7349849D01*
X7543419Y-7349849D01*
X7540901Y-7355212D01*
X7537766Y-7361890D01*
X7535637Y-7375564D01*
X7535706Y-7376094D01*
X7535706Y-7376095D01*
X7536187Y-7379774D01*
X7537431Y-7389285D01*
X7543004Y-7401951D01*
X7551909Y-7412544D01*
X7552355Y-7412841D01*
X7552355Y-7412841D01*
X7562982Y-7419915D01*
X7562982Y-7419915D01*
X7563428Y-7420212D01*
X7576637Y-7424339D01*
X7583787Y-7424470D01*
X7589936Y-7424583D01*
X7589937Y-7424583D01*
X7590473Y-7424592D01*
X7590990Y-7424451D01*
X7590990Y-7424451D01*
X7601831Y-7421496D01*
X7603823Y-7420953D01*
X7612781Y-7415452D01*
X7615159Y-7413992D01*
X7615160Y-7413992D01*
X7615616Y-7413712D01*
X7624903Y-7403452D01*
X7625630Y-7401951D01*
X7627746Y-7397583D01*
X7630936Y-7390999D01*
X7631599Y-7387062D01*
X7632520Y-7381584D01*
X7633232Y-7377352D01*
X7633236Y-7377039D01*
X7633243Y-7376451D01*
X7633247Y-7376160D01*
X7633086Y-7375035D01*
X7631361Y-7362992D01*
X7631361Y-7362991D01*
X7631285Y-7362462D01*
X7631025Y-7361890D01*
X7625779Y-7350352D01*
X7625557Y-7349864D01*
X7625207Y-7349458D01*
X7625207Y-7349458D01*
X7624413Y-7348536D01*
X7622590Y-7343627D01*
X7622590Y-7324500D01*
X7622758Y-7322918D01*
X7622944Y-7322057D01*
X7622944Y-7322056D01*
X7623075Y-7321449D01*
X7622642Y-7317795D01*
X7622590Y-7316911D01*
X7622590Y-7316458D01*
X7622484Y-7315821D01*
X7622252Y-7314426D01*
X7622202Y-7314076D01*
X7621864Y-7311224D01*
X7621582Y-7308836D01*
X7621313Y-7308276D01*
X7621238Y-7308020D01*
X7621232Y-7307991D01*
X7621220Y-7307963D01*
X7621134Y-7307712D01*
X7621032Y-7307099D01*
X7618528Y-7302457D01*
X7618368Y-7302144D01*
X7616289Y-7297813D01*
X7616288Y-7297813D01*
X7616084Y-7297387D01*
X7615723Y-7296958D01*
X7615645Y-7296879D01*
X7615294Y-7296464D01*
X7615001Y-7295921D01*
X7611949Y-7293100D01*
X7610948Y-7292174D01*
X7610735Y-7291970D01*
X7450415Y-7131650D01*
X7449415Y-7130411D01*
X7448937Y-7129672D01*
X7448600Y-7129150D01*
X7448112Y-7128765D01*
X7447694Y-7128305D01*
X7447831Y-7128180D01*
X7445564Y-7124516D01*
X7446303Y-7119425D01*
X7448992Y-7116576D01*
X7458949Y-7110462D01*
X7458950Y-7110462D01*
X7459406Y-7110182D01*
X7468693Y-7099922D01*
X7469077Y-7099128D01*
X7474257Y-7088439D01*
X7474726Y-7087469D01*
X7474986Y-7085928D01*
X7476746Y-7075461D01*
X7477022Y-7073822D01*
X7477037Y-7072630D01*
X7476871Y-7071469D01*
X7475151Y-7059462D01*
X7475151Y-7059461D01*
X7475075Y-7058932D01*
X7474845Y-7058426D01*
X7471444Y-7050946D01*
X7469347Y-7046334D01*
X7462260Y-7038108D01*
X7460664Y-7036256D01*
X7460663Y-7036256D01*
X7460314Y-7035851D01*
X7459865Y-7035560D01*
X7449151Y-7028615D01*
X7449151Y-7028615D01*
X7448702Y-7028324D01*
X7442808Y-7026562D01*
X7435957Y-7024513D01*
X7435957Y-7024513D01*
X7435444Y-7024359D01*
X7434909Y-7024356D01*
X7434908Y-7024356D01*
X7428722Y-7024318D01*
X7421606Y-7024275D01*
X7408301Y-7028077D01*
X7396597Y-7035462D01*
X7387437Y-7045834D01*
X7387209Y-7046319D01*
X7387209Y-7046319D01*
X7386256Y-7048348D01*
X7381556Y-7058360D01*
X7379427Y-7072034D01*
X7379496Y-7072564D01*
X7379496Y-7072565D01*
X7379543Y-7072921D01*
X7381221Y-7085755D01*
X7384742Y-7093756D01*
X7386069Y-7096774D01*
X7386794Y-7098421D01*
X7390451Y-7102771D01*
X7392048Y-7104671D01*
X7393811Y-7109503D01*
X7392056Y-7114339D01*
X7387604Y-7116915D01*
X7386291Y-7117030D01*
X6874377Y-7117030D01*
X6869543Y-7115271D01*
X6869060Y-7114827D01*
X6862646Y-7108413D01*
X6854795Y-7100563D01*
X6854795Y-7100563D01*
X6841173Y-7086941D01*
X6827232Y-7073000D01*
X6825059Y-7068338D01*
X6825030Y-7067683D01*
X6825030Y-7063465D01*
X6826782Y-7058920D01*
X6826684Y-7058854D01*
X6826972Y-7058426D01*
X6826975Y-7058419D01*
X6827343Y-7058012D01*
X6827590Y-7057501D01*
X6833143Y-7046041D01*
X6833376Y-7045559D01*
X6835672Y-7031912D01*
X6835687Y-7030720D01*
X6835091Y-7026561D01*
X6836147Y-7021527D01*
X6840193Y-7018350D01*
X6845334Y-7018516D01*
X6846701Y-7019235D01*
X6846702Y-7019235D01*
X6847148Y-7019532D01*
X6860357Y-7023659D01*
X6867507Y-7023790D01*
X6873656Y-7023903D01*
X6873657Y-7023903D01*
X6874193Y-7023912D01*
X6874710Y-7023771D01*
X6874710Y-7023771D01*
X6881991Y-7021786D01*
X6887543Y-7020273D01*
X6893424Y-7016662D01*
X6898879Y-7013312D01*
X6898880Y-7013312D01*
X6899336Y-7013032D01*
X6908623Y-7002772D01*
X6909350Y-7001271D01*
X6914423Y-6990801D01*
X6914656Y-6990319D01*
X6915097Y-6987703D01*
X6916904Y-6976959D01*
X6916952Y-6976672D01*
X6916967Y-6975480D01*
X6916719Y-6973747D01*
X6915081Y-6962312D01*
X6915081Y-6962311D01*
X6915005Y-6961782D01*
X6914745Y-6961210D01*
X6910742Y-6952405D01*
X6909277Y-6949184D01*
X6904306Y-6943415D01*
X6900594Y-6939106D01*
X6900593Y-6939106D01*
X6900244Y-6938701D01*
X6899795Y-6938410D01*
X6889081Y-6931465D01*
X6889081Y-6931465D01*
X6888632Y-6931174D01*
X6882215Y-6929255D01*
X6875887Y-6927363D01*
X6875887Y-6927363D01*
X6875374Y-6927209D01*
X6874839Y-6927206D01*
X6874838Y-6927206D01*
X6868652Y-6927168D01*
X6861536Y-6927125D01*
X6848231Y-6930927D01*
X6836527Y-6938312D01*
X6827367Y-6948684D01*
X6827139Y-6949169D01*
X6827139Y-6949169D01*
X6824815Y-6954119D01*
X6821486Y-6961210D01*
X6819357Y-6974884D01*
X6819426Y-6975414D01*
X6819426Y-6975415D01*
X6820006Y-6979846D01*
X6818888Y-6984867D01*
X6814804Y-6987995D01*
X6809665Y-6987766D01*
X6808459Y-6987132D01*
X6807352Y-6986414D01*
X6798585Y-6983792D01*
X6794607Y-6982603D01*
X6794607Y-6982603D01*
X6794094Y-6982449D01*
X6793559Y-6982446D01*
X6793558Y-6982446D01*
X6787372Y-6982408D01*
X6780256Y-6982365D01*
X6766951Y-6986167D01*
X6755247Y-6993552D01*
X6746087Y-7003924D01*
X6745859Y-7004409D01*
X6745859Y-7004409D01*
X6744033Y-7008297D01*
X6740206Y-7016450D01*
X6738077Y-7030124D01*
X6669121Y-7030124D01*
X6668773Y-7024513D01*
X6668749Y-7024121D01*
X6668734Y-7023610D01*
X6668754Y-7020364D01*
X6668758Y-7019828D01*
X6668610Y-7019312D01*
X6668578Y-7019080D01*
X6668355Y-7017782D01*
X6668309Y-7017027D01*
X6668309Y-7017027D01*
X6668275Y-7016492D01*
X6666100Y-7010465D01*
X6665943Y-7009979D01*
X6664902Y-7006338D01*
X6664902Y-7006338D01*
X6664755Y-7005823D01*
X6664417Y-7005287D01*
X6663704Y-7003828D01*
X6663512Y-7003296D01*
X6663511Y-7003296D01*
X6663330Y-7002792D01*
X6660108Y-6998382D01*
X6658660Y-6993946D01*
X6658660Y-6919879D01*
X6660419Y-6915045D01*
X6660863Y-6914562D01*
X6669761Y-6905664D01*
X7342597Y-6905664D01*
X7342666Y-6906194D01*
X7342666Y-6906195D01*
X7343436Y-6912082D01*
X7344391Y-6919385D01*
X7349964Y-6932051D01*
X7358869Y-6942644D01*
X7359315Y-6942941D01*
X7359315Y-6942941D01*
X7369942Y-6950015D01*
X7369942Y-6950015D01*
X7370388Y-6950312D01*
X7383597Y-6954439D01*
X7390747Y-6954570D01*
X7396896Y-6954683D01*
X7396897Y-6954683D01*
X7397433Y-6954692D01*
X7397950Y-6954551D01*
X7397950Y-6954551D01*
X7405231Y-6952566D01*
X7410783Y-6951053D01*
X7418592Y-6946258D01*
X7422119Y-6944092D01*
X7422120Y-6944092D01*
X7422576Y-6943812D01*
X7431863Y-6933552D01*
X7432590Y-6932051D01*
X7434786Y-6927519D01*
X7437896Y-6921099D01*
X7440192Y-6907452D01*
X7440207Y-6906260D01*
X7440121Y-6905664D01*
X7438321Y-6893092D01*
X7438321Y-6893091D01*
X7438245Y-6892562D01*
X7437985Y-6891990D01*
X7432739Y-6880452D01*
X7432517Y-6879964D01*
X7428466Y-6875262D01*
X7423834Y-6869886D01*
X7423833Y-6869886D01*
X7423484Y-6869481D01*
X7423035Y-6869190D01*
X7412321Y-6862245D01*
X7412321Y-6862245D01*
X7411872Y-6861954D01*
X7407243Y-6860570D01*
X7399127Y-6858143D01*
X7399127Y-6858143D01*
X7398614Y-6857989D01*
X7398079Y-6857986D01*
X7398078Y-6857986D01*
X7391892Y-6857948D01*
X7384776Y-6857905D01*
X7371471Y-6861707D01*
X7359767Y-6869092D01*
X7350607Y-6879464D01*
X7350379Y-6879949D01*
X7350379Y-6879949D01*
X7349619Y-6881568D01*
X7344726Y-6891990D01*
X7342597Y-6905664D01*
X6669761Y-6905664D01*
X6680676Y-6894748D01*
X6685338Y-6892574D01*
X6685993Y-6892546D01*
X6740518Y-6892546D01*
X6744685Y-6893806D01*
X6747397Y-6895611D01*
X6747398Y-6895611D01*
X6747844Y-6895908D01*
X6761052Y-6900035D01*
X6768203Y-6900166D01*
X6774352Y-6900279D01*
X6774352Y-6900279D01*
X6774888Y-6900288D01*
X6775405Y-6900147D01*
X6775405Y-6900147D01*
X6784338Y-6897712D01*
X6788239Y-6896649D01*
X6794895Y-6892562D01*
X6799575Y-6889688D01*
X6799575Y-6889688D01*
X6800032Y-6889408D01*
X6809318Y-6879148D01*
X6815352Y-6866695D01*
X6815806Y-6863996D01*
X6816968Y-6857091D01*
X6817648Y-6853048D01*
X6817653Y-6852646D01*
X6817655Y-6852473D01*
X6817662Y-6851856D01*
X6817621Y-6851568D01*
X6815776Y-6838688D01*
X6815776Y-6838687D01*
X6815700Y-6838157D01*
X6814549Y-6835625D01*
X6810195Y-6826048D01*
X6809973Y-6825560D01*
X6804019Y-6818650D01*
X6801289Y-6815482D01*
X6801289Y-6815482D01*
X6800940Y-6815077D01*
X6799288Y-6814006D01*
X6789777Y-6807841D01*
X6789777Y-6807841D01*
X6789328Y-6807550D01*
X6784698Y-6806166D01*
X6776583Y-6803739D01*
X6776583Y-6803739D01*
X6776070Y-6803585D01*
X6775534Y-6803582D01*
X6775534Y-6803582D01*
X6769347Y-6803544D01*
X6762232Y-6803501D01*
X6748926Y-6807303D01*
X6748474Y-6807589D01*
X6748473Y-6807589D01*
X6744643Y-6810006D01*
X6740630Y-6811166D01*
X6659579Y-6811166D01*
X6657058Y-6811985D01*
X6655912Y-6812260D01*
X6653293Y-6812675D01*
X6652766Y-6812944D01*
X6652766Y-6812944D01*
X6650931Y-6813878D01*
X6649841Y-6814330D01*
X6647321Y-6815149D01*
X6645176Y-6816707D01*
X6644171Y-6817323D01*
X6643844Y-6817490D01*
X6641809Y-6818527D01*
X6609189Y-6851147D01*
X6604527Y-6853321D01*
X6599558Y-6851989D01*
X6596608Y-6847775D01*
X6596428Y-6846898D01*
X6594965Y-6836682D01*
X6594705Y-6836110D01*
X6591126Y-6828238D01*
X6589237Y-6824084D01*
X6583555Y-6817490D01*
X6580554Y-6814006D01*
X6580553Y-6814006D01*
X6580204Y-6813601D01*
X6574196Y-6809707D01*
X6571097Y-6805601D01*
X6571362Y-6800464D01*
X6574352Y-6796988D01*
X6578839Y-6794232D01*
X6578840Y-6794232D01*
X6579296Y-6793952D01*
X6588583Y-6783692D01*
X6589310Y-6782191D01*
X6594383Y-6771721D01*
X6594616Y-6771239D01*
X6596912Y-6757592D01*
X6596927Y-6756400D01*
X6596841Y-6755804D01*
X7340317Y-6755804D01*
X7340386Y-6756334D01*
X7340386Y-6756335D01*
X7340433Y-6756691D01*
X7342111Y-6769525D01*
X7347684Y-6782191D01*
X7356589Y-6792784D01*
X7357035Y-6793081D01*
X7357035Y-6793081D01*
X7367662Y-6800155D01*
X7367662Y-6800155D01*
X7368108Y-6800452D01*
X7381317Y-6804579D01*
X7388467Y-6804710D01*
X7394616Y-6804823D01*
X7394617Y-6804823D01*
X7395153Y-6804832D01*
X7395670Y-6804691D01*
X7395670Y-6804691D01*
X7402951Y-6802706D01*
X7408503Y-6801193D01*
X7415114Y-6797134D01*
X7419839Y-6794232D01*
X7419840Y-6794232D01*
X7420296Y-6793952D01*
X7429583Y-6783692D01*
X7430310Y-6782191D01*
X7435383Y-6771721D01*
X7435616Y-6771239D01*
X7437912Y-6757592D01*
X7437927Y-6756400D01*
X7437766Y-6755275D01*
X7436041Y-6743232D01*
X7436041Y-6743231D01*
X7435965Y-6742702D01*
X7435705Y-6742130D01*
X7430459Y-6730592D01*
X7430237Y-6730104D01*
X7426186Y-6725402D01*
X7421554Y-6720026D01*
X7421553Y-6720026D01*
X7421204Y-6719621D01*
X7420755Y-6719330D01*
X7410041Y-6712385D01*
X7410041Y-6712385D01*
X7409592Y-6712094D01*
X7404963Y-6710710D01*
X7396847Y-6708283D01*
X7396847Y-6708283D01*
X7396334Y-6708129D01*
X7395799Y-6708126D01*
X7395798Y-6708126D01*
X7389612Y-6708088D01*
X7382496Y-6708045D01*
X7369191Y-6711847D01*
X7357487Y-6719232D01*
X7348327Y-6729604D01*
X7342446Y-6742130D01*
X7340317Y-6755804D01*
X6596841Y-6755804D01*
X6596766Y-6755275D01*
X6595041Y-6743232D01*
X6595041Y-6743231D01*
X6594965Y-6742702D01*
X6594705Y-6742130D01*
X6589459Y-6730592D01*
X6589237Y-6730104D01*
X6585186Y-6725402D01*
X6580554Y-6720026D01*
X6580553Y-6720026D01*
X6580204Y-6719621D01*
X6579755Y-6719330D01*
X6569041Y-6712385D01*
X6569041Y-6712385D01*
X6568592Y-6712094D01*
X6563963Y-6710710D01*
X6555847Y-6708283D01*
X6555847Y-6708283D01*
X6555334Y-6708129D01*
X6554799Y-6708126D01*
X6554798Y-6708126D01*
X6548612Y-6708088D01*
X6541496Y-6708045D01*
X6528191Y-6711847D01*
X6516487Y-6719232D01*
X6507327Y-6729604D01*
X6501446Y-6742130D01*
X6499317Y-6755804D01*
X6499386Y-6756334D01*
X6499386Y-6756335D01*
X6499433Y-6756691D01*
X6501111Y-6769525D01*
X6506684Y-6782191D01*
X6515589Y-6792784D01*
X6516035Y-6793081D01*
X6516035Y-6793081D01*
X6522123Y-6797134D01*
X6525171Y-6801277D01*
X6524844Y-6806410D01*
X6521968Y-6809753D01*
X6516487Y-6813212D01*
X6507327Y-6823584D01*
X6507099Y-6824069D01*
X6507099Y-6824069D01*
X6505142Y-6828238D01*
X6501446Y-6836110D01*
X6499317Y-6849784D01*
X6499386Y-6850314D01*
X6499386Y-6850315D01*
X6499706Y-6852757D01*
X6501111Y-6863505D01*
X6506684Y-6876171D01*
X6515589Y-6886764D01*
X6516035Y-6887061D01*
X6516035Y-6887061D01*
X6526662Y-6894135D01*
X6526662Y-6894135D01*
X6527108Y-6894432D01*
X6540317Y-6898559D01*
X6547467Y-6898690D01*
X6553616Y-6898803D01*
X6553617Y-6898803D01*
X6554153Y-6898812D01*
X6554670Y-6898671D01*
X6554670Y-6898671D01*
X6567503Y-6895173D01*
X6567554Y-6895359D01*
X6571909Y-6895101D01*
X6576038Y-6898168D01*
X6577280Y-6902307D01*
X6577280Y-6968430D01*
X6575521Y-6973264D01*
X6571066Y-6975836D01*
X6569760Y-6975950D01*
X6382958Y-6975950D01*
X6378124Y-6974191D01*
X6377640Y-6973747D01*
X6335114Y-6931222D01*
X6281133Y-6877240D01*
X6278959Y-6872578D01*
X6278930Y-6871922D01*
X6278930Y-6694217D01*
X6280689Y-6689384D01*
X6281133Y-6688900D01*
X6337738Y-6632294D01*
X6337739Y-6632294D01*
X6361549Y-6608484D01*
X7342597Y-6608484D01*
X7342666Y-6609014D01*
X7342666Y-6609015D01*
X7342713Y-6609371D01*
X7344391Y-6622205D01*
X7349964Y-6634871D01*
X7358869Y-6645464D01*
X7359315Y-6645761D01*
X7359315Y-6645761D01*
X7369942Y-6652835D01*
X7369942Y-6652835D01*
X7370388Y-6653132D01*
X7383597Y-6657259D01*
X7390747Y-6657390D01*
X7396896Y-6657503D01*
X7396897Y-6657503D01*
X7397433Y-6657512D01*
X7397950Y-6657371D01*
X7397950Y-6657371D01*
X7405231Y-6655386D01*
X7410783Y-6653873D01*
X7417099Y-6649995D01*
X7422119Y-6646912D01*
X7422120Y-6646912D01*
X7422576Y-6646632D01*
X7423265Y-6645871D01*
X7424578Y-6644420D01*
X7431863Y-6636372D01*
X7432590Y-6634871D01*
X7436905Y-6625964D01*
X7437896Y-6623919D01*
X7440192Y-6610272D01*
X7440207Y-6609080D01*
X7440046Y-6607954D01*
X7438321Y-6595912D01*
X7438321Y-6595911D01*
X7438245Y-6595382D01*
X7437985Y-6594810D01*
X7434341Y-6586795D01*
X7432517Y-6582784D01*
X7427086Y-6576480D01*
X7423834Y-6572706D01*
X7423833Y-6572706D01*
X7423484Y-6572301D01*
X7423035Y-6572010D01*
X7412321Y-6565065D01*
X7412321Y-6565065D01*
X7411872Y-6564774D01*
X7407243Y-6563390D01*
X7399127Y-6560963D01*
X7399127Y-6560963D01*
X7398614Y-6560809D01*
X7398079Y-6560806D01*
X7398078Y-6560806D01*
X7391892Y-6560768D01*
X7384776Y-6560725D01*
X7371471Y-6564527D01*
X7359767Y-6571912D01*
X7350607Y-6582284D01*
X7350379Y-6582769D01*
X7350379Y-6582769D01*
X7347920Y-6588007D01*
X7344726Y-6594810D01*
X7344554Y-6595912D01*
X7342718Y-6607707D01*
X7342597Y-6608484D01*
X6361549Y-6608484D01*
X6380180Y-6589853D01*
X6384842Y-6587679D01*
X6385498Y-6587650D01*
X6548200Y-6587650D01*
X6549860Y-6587835D01*
X6550620Y-6588007D01*
X6556149Y-6587664D01*
X6556614Y-6587650D01*
X6558391Y-6587650D01*
X6559629Y-6587473D01*
X6560229Y-6587411D01*
X6565158Y-6587105D01*
X6565661Y-6586924D01*
X6565662Y-6586924D01*
X6566382Y-6586663D01*
X6567869Y-6586293D01*
X6568628Y-6586184D01*
X6568628Y-6586184D01*
X6569159Y-6586108D01*
X6569646Y-6585886D01*
X6569646Y-6585886D01*
X6573655Y-6584064D01*
X6574214Y-6583836D01*
X6574690Y-6583664D01*
X6578858Y-6582160D01*
X6579910Y-6581391D01*
X6581233Y-6580618D01*
X6582418Y-6580079D01*
X6583654Y-6579014D01*
X6586159Y-6576856D01*
X6586631Y-6576481D01*
X6587895Y-6575557D01*
X6589126Y-6574327D01*
X6589534Y-6573947D01*
X6593047Y-6570921D01*
X6593047Y-6570921D01*
X6593453Y-6570571D01*
X6593744Y-6570122D01*
X6594074Y-6569613D01*
X6595067Y-6568386D01*
X6701372Y-6462081D01*
X6702676Y-6461038D01*
X6703336Y-6460622D01*
X6707004Y-6456469D01*
X6707323Y-6456130D01*
X6708578Y-6454874D01*
X6708739Y-6454660D01*
X6709328Y-6453874D01*
X6709709Y-6453407D01*
X6712623Y-6450107D01*
X6712623Y-6450106D01*
X6712978Y-6449705D01*
X6713531Y-6448527D01*
X6714321Y-6447212D01*
X6714780Y-6446599D01*
X6714780Y-6446599D01*
X6715102Y-6446170D01*
X6716835Y-6441545D01*
X6717070Y-6440989D01*
X6718940Y-6437005D01*
X6718941Y-6437005D01*
X6719168Y-6436520D01*
X6719368Y-6435233D01*
X6719757Y-6433751D01*
X6720026Y-6433033D01*
X6720214Y-6432532D01*
X6720580Y-6427608D01*
X6720649Y-6427009D01*
X6720845Y-6425749D01*
X6720845Y-6425748D01*
X6720890Y-6425461D01*
X6720890Y-6423720D01*
X6720911Y-6423162D01*
X6721254Y-6418540D01*
X6721254Y-6418540D01*
X6721294Y-6418006D01*
X6721056Y-6416890D01*
X6720890Y-6415320D01*
X6720890Y-6356397D01*
X6722649Y-6351564D01*
X6723093Y-6351080D01*
X6837240Y-6236933D01*
X6841902Y-6234759D01*
X6842557Y-6234730D01*
X6880451Y-6234730D01*
X6880715Y-6234692D01*
X6880715Y-6234692D01*
X6890689Y-6233264D01*
X6890689Y-6233264D01*
X6891219Y-6233188D01*
X6904478Y-6227159D01*
X6915513Y-6217651D01*
X6923435Y-6205428D01*
X6927609Y-6191473D01*
X6927698Y-6176908D01*
X6923695Y-6162903D01*
X6915922Y-6150584D01*
X6905005Y-6140942D01*
X6904520Y-6140715D01*
X6904520Y-6140714D01*
X6898847Y-6138051D01*
X6891820Y-6134752D01*
X6885428Y-6133757D01*
X6881048Y-6133075D01*
X6881048Y-6133075D01*
X6880761Y-6133030D01*
X6824920Y-6133030D01*
X6823260Y-6132845D01*
X6823022Y-6132791D01*
X6823022Y-6132791D01*
X6822500Y-6132673D01*
X6817144Y-6133005D01*
X6816971Y-6133016D01*
X6816505Y-6133030D01*
X6814729Y-6133030D01*
X6813491Y-6133207D01*
X6812891Y-6133269D01*
X6811748Y-6133340D01*
X6808497Y-6133541D01*
X6808497Y-6133541D01*
X6807962Y-6133574D01*
X6807458Y-6133757D01*
X6807458Y-6133757D01*
X6806738Y-6134016D01*
X6805250Y-6134387D01*
X6803961Y-6134572D01*
X6799464Y-6136617D01*
X6798907Y-6136844D01*
X6794262Y-6138520D01*
X6793830Y-6138836D01*
X6793211Y-6139288D01*
X6791887Y-6140062D01*
X6790702Y-6140601D01*
X6790296Y-6140951D01*
X6786961Y-6143824D01*
X6786489Y-6144199D01*
X6785225Y-6145122D01*
X6783994Y-6146354D01*
X6783585Y-6146733D01*
X6779667Y-6150109D01*
X6779376Y-6150558D01*
X6779376Y-6150558D01*
X6779046Y-6151066D01*
X6778053Y-6152294D01*
X6638708Y-6291639D01*
X6637404Y-6292681D01*
X6636744Y-6293098D01*
X6636390Y-6293499D01*
X6633076Y-6297251D01*
X6632757Y-6297590D01*
X6631502Y-6298845D01*
X6631341Y-6299060D01*
X6631341Y-6299060D01*
X6630752Y-6299846D01*
X6630371Y-6300313D01*
X6627457Y-6303613D01*
X6627457Y-6303613D01*
X6627102Y-6304015D01*
X6626549Y-6305193D01*
X6625759Y-6306507D01*
X6625300Y-6307121D01*
X6625299Y-6307121D01*
X6624978Y-6307549D01*
X6624790Y-6308051D01*
X6623244Y-6312175D01*
X6623010Y-6312731D01*
X6620912Y-6317200D01*
X6620829Y-6317729D01*
X6620829Y-6317730D01*
X6620711Y-6318486D01*
X6620323Y-6319969D01*
X6620054Y-6320687D01*
X6619865Y-6321188D01*
X6619826Y-6321722D01*
X6619826Y-6321723D01*
X6619500Y-6326113D01*
X6619431Y-6326713D01*
X6619190Y-6328259D01*
X6619190Y-6330000D01*
X6619169Y-6330557D01*
X6618786Y-6335714D01*
X6618898Y-6336238D01*
X6619024Y-6336830D01*
X6619190Y-6338400D01*
X6619190Y-6397322D01*
X6617431Y-6402156D01*
X6616987Y-6402640D01*
X6535880Y-6483747D01*
X6531218Y-6485921D01*
X6530562Y-6485950D01*
X6367860Y-6485950D01*
X6366200Y-6485765D01*
X6365962Y-6485711D01*
X6365962Y-6485711D01*
X6365440Y-6485593D01*
X6363604Y-6485706D01*
X6362051Y-6485803D01*
X6357118Y-6484346D01*
X6354275Y-6480059D01*
X6354130Y-6479279D01*
X6353983Y-6478161D01*
X6353983Y-6478160D01*
X6353918Y-6477672D01*
X6348079Y-6463575D01*
X6338790Y-6451470D01*
X6335666Y-6449072D01*
X6330569Y-6445161D01*
X6326685Y-6442181D01*
X6320618Y-6439668D01*
X6316825Y-6436192D01*
X6316154Y-6431092D01*
X6318917Y-6426754D01*
X6323495Y-6425200D01*
X6331354Y-6425200D01*
X6332370Y-6424830D01*
X6332680Y-6424293D01*
X6332680Y-6423874D01*
X6368240Y-6423874D01*
X6368610Y-6424890D01*
X6369147Y-6425200D01*
X6409645Y-6425200D01*
X6410079Y-6425175D01*
X6422490Y-6423728D01*
X6423335Y-6423528D01*
X6439040Y-6417827D01*
X6439816Y-6417439D01*
X6453789Y-6408277D01*
X6454455Y-6407721D01*
X6465946Y-6395591D01*
X6466466Y-6394896D01*
X6474858Y-6380448D01*
X6475204Y-6379653D01*
X6478476Y-6368849D01*
X6478416Y-6367770D01*
X6478314Y-6367661D01*
X6477975Y-6367580D01*
X6369566Y-6367580D01*
X6368550Y-6367950D01*
X6368240Y-6368487D01*
X6368240Y-6423874D01*
X6332680Y-6423874D01*
X6332680Y-6368906D01*
X6332310Y-6367890D01*
X6331773Y-6367580D01*
X6223333Y-6367580D01*
X6222318Y-6367950D01*
X6222128Y-6368279D01*
X6222561Y-6370803D01*
X6222806Y-6371636D01*
X6229348Y-6387010D01*
X6229778Y-6387764D01*
X6239681Y-6401221D01*
X6240273Y-6401855D01*
X6253007Y-6412674D01*
X6253728Y-6413155D01*
X6268610Y-6420753D01*
X6269423Y-6421056D01*
X6278421Y-6423258D01*
X6282698Y-6426116D01*
X6284138Y-6431054D01*
X6282066Y-6435762D01*
X6279511Y-6437510D01*
X6268235Y-6442181D01*
X6264350Y-6445161D01*
X6259254Y-6449072D01*
X6256130Y-6451470D01*
X6246841Y-6463575D01*
X6241002Y-6477672D01*
X6239010Y-6492800D01*
X6241002Y-6507928D01*
X6241190Y-6508383D01*
X6241190Y-6508383D01*
X6243166Y-6513153D01*
X6246841Y-6522025D01*
X6256130Y-6534130D01*
X6256520Y-6534430D01*
X6267844Y-6543119D01*
X6267844Y-6543119D01*
X6268235Y-6543419D01*
X6268691Y-6543608D01*
X6269021Y-6543799D01*
X6272328Y-6547739D01*
X6272328Y-6552883D01*
X6270579Y-6555629D01*
X6196748Y-6629459D01*
X6195444Y-6630501D01*
X6194784Y-6630918D01*
X6194430Y-6631319D01*
X6191116Y-6635071D01*
X6190797Y-6635410D01*
X6189542Y-6636665D01*
X6189381Y-6636880D01*
X6189381Y-6636880D01*
X6188792Y-6637666D01*
X6188411Y-6638133D01*
X6185497Y-6641433D01*
X6185497Y-6641433D01*
X6185142Y-6641835D01*
X6184589Y-6643013D01*
X6183799Y-6644327D01*
X6183340Y-6644941D01*
X6183339Y-6644941D01*
X6183018Y-6645369D01*
X6182440Y-6646912D01*
X6181284Y-6649995D01*
X6181050Y-6650551D01*
X6178952Y-6655020D01*
X6178869Y-6655549D01*
X6178869Y-6655550D01*
X6178751Y-6656306D01*
X6178363Y-6657789D01*
X6178281Y-6658006D01*
X6177905Y-6659008D01*
X6177866Y-6659542D01*
X6177866Y-6659543D01*
X6177540Y-6663933D01*
X6177471Y-6664533D01*
X6177230Y-6666079D01*
X6177230Y-6667820D01*
X6177209Y-6668377D01*
X6176826Y-6673534D01*
X5823900Y-6673534D01*
X5823900Y-6393170D01*
X5825659Y-6388336D01*
X5830114Y-6385764D01*
X5835180Y-6386658D01*
X5837477Y-6388713D01*
X5846681Y-6401221D01*
X5847273Y-6401855D01*
X5860007Y-6412674D01*
X5860728Y-6413155D01*
X5875610Y-6420753D01*
X5876423Y-6421056D01*
X5892751Y-6425051D01*
X5893412Y-6425152D01*
X5894071Y-6425193D01*
X5894302Y-6425200D01*
X5913354Y-6425200D01*
X5914370Y-6424830D01*
X5914680Y-6424293D01*
X5914680Y-6423874D01*
X5950240Y-6423874D01*
X5950610Y-6424890D01*
X5951147Y-6425200D01*
X5966645Y-6425200D01*
X5967079Y-6425175D01*
X5979490Y-6423728D01*
X5980335Y-6423528D01*
X5996040Y-6417827D01*
X5996816Y-6417439D01*
X6010789Y-6408277D01*
X6011455Y-6407721D01*
X6022946Y-6395591D01*
X6023466Y-6394896D01*
X6031858Y-6380448D01*
X6032204Y-6379653D01*
X6035476Y-6368849D01*
X6035416Y-6367770D01*
X6035314Y-6367661D01*
X6034975Y-6367580D01*
X5951566Y-6367580D01*
X5950550Y-6367950D01*
X5950240Y-6368487D01*
X5950240Y-6423874D01*
X5914680Y-6423874D01*
X5914680Y-6330694D01*
X5950240Y-6330694D01*
X5950610Y-6331710D01*
X5951147Y-6332020D01*
X6034587Y-6332020D01*
X6035602Y-6331650D01*
X6035792Y-6331321D01*
X6035694Y-6330751D01*
X6222444Y-6330751D01*
X6222504Y-6331830D01*
X6222606Y-6331939D01*
X6222945Y-6332020D01*
X6331354Y-6332020D01*
X6332370Y-6331650D01*
X6332680Y-6331113D01*
X6332680Y-6330694D01*
X6368240Y-6330694D01*
X6368610Y-6331710D01*
X6369147Y-6332020D01*
X6477587Y-6332020D01*
X6478602Y-6331650D01*
X6478792Y-6331321D01*
X6478359Y-6328797D01*
X6478113Y-6327964D01*
X6471572Y-6312590D01*
X6471142Y-6311836D01*
X6461238Y-6298379D01*
X6460647Y-6297744D01*
X6447913Y-6286926D01*
X6447191Y-6286445D01*
X6432310Y-6278846D01*
X6431497Y-6278544D01*
X6415169Y-6274548D01*
X6414508Y-6274448D01*
X6413849Y-6274407D01*
X6413618Y-6274400D01*
X6369566Y-6274400D01*
X6368550Y-6274770D01*
X6368240Y-6275307D01*
X6368240Y-6330694D01*
X6332680Y-6330694D01*
X6332680Y-6275726D01*
X6332310Y-6274710D01*
X6331773Y-6274400D01*
X6291275Y-6274400D01*
X6290841Y-6274425D01*
X6278430Y-6275872D01*
X6277585Y-6276072D01*
X6261880Y-6281773D01*
X6261104Y-6282161D01*
X6247130Y-6291323D01*
X6246465Y-6291879D01*
X6234974Y-6304009D01*
X6234454Y-6304704D01*
X6226062Y-6319152D01*
X6225716Y-6319947D01*
X6222444Y-6330751D01*
X6035694Y-6330751D01*
X6035359Y-6328797D01*
X6035113Y-6327964D01*
X6028572Y-6312590D01*
X6028142Y-6311836D01*
X6018238Y-6298379D01*
X6017647Y-6297744D01*
X6004913Y-6286926D01*
X6004191Y-6286445D01*
X5989310Y-6278846D01*
X5988497Y-6278544D01*
X5972169Y-6274548D01*
X5971508Y-6274448D01*
X5970849Y-6274407D01*
X5970618Y-6274400D01*
X5951566Y-6274400D01*
X5950550Y-6274770D01*
X5950240Y-6275307D01*
X5950240Y-6330694D01*
X5914680Y-6330694D01*
X5914680Y-6275726D01*
X5914310Y-6274710D01*
X5913773Y-6274400D01*
X5898275Y-6274400D01*
X5897841Y-6274425D01*
X5885430Y-6275872D01*
X5884585Y-6276072D01*
X5868880Y-6281773D01*
X5868104Y-6282161D01*
X5854130Y-6291323D01*
X5853465Y-6291879D01*
X5841974Y-6304009D01*
X5841455Y-6304703D01*
X5837923Y-6310784D01*
X5833973Y-6314080D01*
X5828829Y-6314067D01*
X5824898Y-6310750D01*
X5823900Y-6307007D01*
X5823900Y-6135042D01*
X5824044Y-6133575D01*
X5824253Y-6132526D01*
X5824398Y-6131800D01*
X5824253Y-6131073D01*
X5824253Y-6130625D01*
X5824174Y-6129017D01*
X5825261Y-6117983D01*
X5825548Y-6116537D01*
X5829364Y-6103961D01*
X5829928Y-6102599D01*
X5836123Y-6091008D01*
X5836942Y-6089782D01*
X5845280Y-6079622D01*
X5846322Y-6078580D01*
X5856482Y-6070242D01*
X5857708Y-6069423D01*
X5869299Y-6063228D01*
X5870661Y-6062664D01*
X5883237Y-6058848D01*
X5884683Y-6058561D01*
X5887037Y-6058329D01*
X5895717Y-6057474D01*
X5897325Y-6057553D01*
X5897773Y-6057553D01*
X5898500Y-6057698D01*
X5900275Y-6057344D01*
X5901742Y-6057200D01*
X8265580Y-6057200D01*
X8270414Y-6058959D01*
G37*
%TD.AperFunction*%
%TD*%
M02*
