%TF.GenerationSoftware,KiCad,Pcbnew,(6.0.2)*%
%TF.CreationDate,2022-04-27T15:01:22+08:00*%
%TF.ProjectId,USBtoTTL,55534274-6f54-4544-9c2e-6b696361645f,rev?*%
%TF.SameCoordinates,Original*%
%TF.FileFunction,Legend,Top*%
%TF.FilePolarity,Positive*%
%FSLAX45Y45*%
G04 Gerber Fmt 4.5, Leading zero omitted, Abs format (unit mm)*
G04 Created by KiCad (PCBNEW (6.0.2)) date 2022-04-27 15:01:22*
%MOMM*%
%LPD*%
G01*
G04 APERTURE LIST*
%ADD10C,0.152400*%
%ADD11C,0.150000*%
%ADD12C,0.120000*%
%ADD13C,0.100000*%
%ADD14R,6.000000X0.760000*%
G04 APERTURE END LIST*
D10*
X7999669Y-7236702D02*
X8062565Y-7236702D01*
X8028698Y-7275407D01*
X8043212Y-7275407D01*
X8052888Y-7280245D01*
X8057727Y-7285083D01*
X8062565Y-7294759D01*
X8062565Y-7318949D01*
X8057727Y-7328626D01*
X8052888Y-7333464D01*
X8043212Y-7338302D01*
X8014184Y-7338302D01*
X8004508Y-7333464D01*
X7999669Y-7328626D01*
X8091593Y-7236702D02*
X8125460Y-7338302D01*
X8159327Y-7236702D01*
X8183517Y-7236702D02*
X8246412Y-7236702D01*
X8212546Y-7275407D01*
X8227060Y-7275407D01*
X8236736Y-7280245D01*
X8241574Y-7285083D01*
X8246412Y-7294759D01*
X8246412Y-7318949D01*
X8241574Y-7328626D01*
X8236736Y-7333464D01*
X8227060Y-7338302D01*
X8198031Y-7338302D01*
X8188355Y-7333464D01*
X8183517Y-7328626D01*
D11*
X8011969Y-6478118D02*
X8069112Y-6478118D01*
X8040541Y-6578118D02*
X8040541Y-6478118D01*
X8092922Y-6478118D02*
X8159588Y-6578118D01*
X8159588Y-6478118D02*
X8092922Y-6578118D01*
X8197684Y-6578118D02*
X8197684Y-6478118D01*
X8221493Y-6478118D01*
X8235779Y-6482880D01*
X8245303Y-6492404D01*
X8250065Y-6501928D01*
X8254827Y-6520975D01*
X8254827Y-6535261D01*
X8250065Y-6554308D01*
X8245303Y-6563832D01*
X8235779Y-6573356D01*
X8221493Y-6578118D01*
X8197684Y-6578118D01*
D10*
X7748330Y-6096000D02*
X7738654Y-6091162D01*
X7724140Y-6091162D01*
X7709626Y-6096000D01*
X7699949Y-6105676D01*
X7695111Y-6115352D01*
X7690273Y-6134705D01*
X7690273Y-6149219D01*
X7695111Y-6168571D01*
X7699949Y-6178248D01*
X7709626Y-6187924D01*
X7724140Y-6192762D01*
X7733816Y-6192762D01*
X7748330Y-6187924D01*
X7753168Y-6183086D01*
X7753168Y-6149219D01*
X7733816Y-6149219D01*
X7796711Y-6192762D02*
X7796711Y-6091162D01*
X7854768Y-6192762D01*
X7854768Y-6091162D01*
X7903149Y-6192762D02*
X7903149Y-6091162D01*
X7927340Y-6091162D01*
X7941854Y-6096000D01*
X7951530Y-6105676D01*
X7956368Y-6115352D01*
X7961207Y-6134705D01*
X7961207Y-6149219D01*
X7956368Y-6168571D01*
X7951530Y-6178248D01*
X7941854Y-6187924D01*
X7927340Y-6192762D01*
X7903149Y-6192762D01*
X7984671Y-6283597D02*
X8062081Y-6283597D01*
X8023376Y-6322302D02*
X8023376Y-6244892D01*
X8158843Y-6220702D02*
X8110462Y-6220702D01*
X8105624Y-6269083D01*
X8110462Y-6264245D01*
X8120138Y-6259407D01*
X8144328Y-6259407D01*
X8154005Y-6264245D01*
X8158843Y-6269083D01*
X8163681Y-6278759D01*
X8163681Y-6302949D01*
X8158843Y-6312626D01*
X8154005Y-6317464D01*
X8144328Y-6322302D01*
X8120138Y-6322302D01*
X8110462Y-6317464D01*
X8105624Y-6312626D01*
X8192709Y-6220702D02*
X8226576Y-6322302D01*
X8260443Y-6220702D01*
X8057485Y-6832842D02*
X8023618Y-6784461D01*
X7999428Y-6832842D02*
X7999428Y-6731242D01*
X8038132Y-6731242D01*
X8047808Y-6736080D01*
X8052647Y-6740918D01*
X8057485Y-6750594D01*
X8057485Y-6765108D01*
X8052647Y-6774785D01*
X8047808Y-6779623D01*
X8038132Y-6784461D01*
X7999428Y-6784461D01*
X8091351Y-6731242D02*
X8159085Y-6832842D01*
X8159085Y-6731242D02*
X8091351Y-6832842D01*
X8197789Y-6832842D02*
X8197789Y-6731242D01*
X8221980Y-6731242D01*
X8236494Y-6736080D01*
X8246170Y-6745756D01*
X8251008Y-6755432D01*
X8255847Y-6774785D01*
X8255847Y-6789299D01*
X8251008Y-6808651D01*
X8246170Y-6818328D01*
X8236494Y-6828004D01*
X8221980Y-6832842D01*
X8197789Y-6832842D01*
X8009346Y-7079222D02*
X8009346Y-6977622D01*
X8033536Y-6977622D01*
X8048050Y-6982460D01*
X8057727Y-6992136D01*
X8062565Y-7001812D01*
X8067403Y-7021165D01*
X8067403Y-7035679D01*
X8062565Y-7055031D01*
X8057727Y-7064708D01*
X8048050Y-7074384D01*
X8033536Y-7079222D01*
X8009346Y-7079222D01*
X8096431Y-6977622D02*
X8154488Y-6977622D01*
X8125460Y-7079222D02*
X8125460Y-6977622D01*
X8246412Y-7079222D02*
X8212546Y-7030841D01*
X8188355Y-7079222D02*
X8188355Y-6977622D01*
X8227060Y-6977622D01*
X8236736Y-6982460D01*
X8241574Y-6987298D01*
X8246412Y-6996974D01*
X8246412Y-7011488D01*
X8241574Y-7021165D01*
X8236736Y-7026003D01*
X8227060Y-7030841D01*
X8188355Y-7030841D01*
D12*
%TO.C,R6*%
X6647256Y-6962040D02*
X6677984Y-6962040D01*
X6647256Y-6886040D02*
X6677984Y-6886040D01*
%TO.C,C1*%
X6576540Y-6517500D02*
X6763540Y-6517500D01*
X6763540Y-6517500D02*
X6763540Y-6126500D01*
X6576540Y-6126500D02*
X6576540Y-6517500D01*
%TO.C,R1*%
X7167756Y-7434680D02*
X7198484Y-7434680D01*
X7167756Y-7510680D02*
X7198484Y-7510680D01*
%TO.C,C4*%
X6984376Y-7147120D02*
X7005944Y-7147120D01*
X6984376Y-7219120D02*
X7005944Y-7219120D01*
%TO.C,U3*%
X6885000Y-6570800D02*
X6837500Y-6570800D01*
X7212000Y-6570800D02*
X7259500Y-6570800D01*
X7259500Y-6570800D02*
X7259500Y-6618300D01*
X7212000Y-6992800D02*
X7259500Y-6992800D01*
X6837500Y-6992800D02*
X6837500Y-6945300D01*
X7259500Y-6992800D02*
X7259500Y-6945300D01*
X6885000Y-6992800D02*
X6837500Y-6992800D01*
%TO.C,C9*%
X7426336Y-6792400D02*
X7447904Y-6792400D01*
X7426336Y-6720400D02*
X7447904Y-6720400D01*
%TO.C,F1*%
X6759398Y-7208400D02*
X6707682Y-7208400D01*
X6759398Y-7066400D02*
X6707682Y-7066400D01*
%TO.C,RN1*%
X7658500Y-6895800D02*
X7708500Y-6895800D01*
X7658500Y-6667800D02*
X7708500Y-6667800D01*
%TO.C,J1*%
X8304000Y-6100260D02*
X8515000Y-6100260D01*
X8304000Y-6442260D02*
X8515000Y-6442260D01*
X8789000Y-6862260D02*
X9389000Y-6862260D01*
X9389000Y-6354260D02*
X9389000Y-6442260D01*
X8789000Y-7553260D02*
X8515000Y-7553260D01*
X9389000Y-6442260D02*
X8789000Y-6442260D01*
X7990000Y-6144260D02*
X7990000Y-6062260D01*
X8304000Y-6950260D02*
X8515000Y-6950260D01*
X8789000Y-6354260D02*
X9389000Y-6354260D01*
X9389000Y-7116260D02*
X9389000Y-7204260D01*
X8304000Y-7204260D02*
X8515000Y-7204260D01*
X8304000Y-7116260D02*
X8515000Y-7116260D01*
X8789000Y-6005260D02*
X8789000Y-7553260D01*
X8304000Y-6188260D02*
X8515000Y-6188260D01*
X9389000Y-6862260D02*
X9389000Y-6950260D01*
X8789000Y-6608260D02*
X9389000Y-6608260D01*
X8515000Y-6005260D02*
X8789000Y-6005260D01*
X9389000Y-7204260D02*
X8789000Y-7204260D01*
X8789000Y-6100260D02*
X9389000Y-6100260D01*
X8304000Y-7458260D02*
X8515000Y-7458260D01*
X8789000Y-7370260D02*
X9389000Y-7370260D01*
X8304000Y-6862260D02*
X8515000Y-6862260D01*
X8515000Y-7553260D02*
X8515000Y-6005260D01*
X8304000Y-6608260D02*
X8515000Y-6608260D01*
X9389000Y-7458260D02*
X8789000Y-7458260D01*
X7990000Y-6062260D02*
X8147000Y-6062260D01*
X9389000Y-6100260D02*
X9389000Y-6188260D01*
X9389000Y-6608260D02*
X9389000Y-6696260D01*
X8304000Y-6354260D02*
X8515000Y-6354260D01*
X9389000Y-6950260D02*
X8789000Y-6950260D01*
X8789000Y-7116260D02*
X9389000Y-7116260D01*
X8304000Y-6696260D02*
X8515000Y-6696260D01*
X9389000Y-7370260D02*
X9389000Y-7458260D01*
X8304000Y-7370260D02*
X8515000Y-7370260D01*
X9389000Y-6696260D02*
X8789000Y-6696260D01*
X9389000Y-6188260D02*
X8789000Y-6188260D01*
%TO.C,R3*%
X7358256Y-6240880D02*
X7388984Y-6240880D01*
X7358256Y-6316880D02*
X7388984Y-6316880D01*
%TO.C,C2*%
X6786440Y-6160124D02*
X6786440Y-6138556D01*
X6858440Y-6160124D02*
X6858440Y-6138556D01*
%TO.C,U1*%
X7482840Y-7514380D02*
X7402840Y-7514380D01*
X7482840Y-7202380D02*
X7562840Y-7202380D01*
X7482840Y-7202380D02*
X7302840Y-7202380D01*
X7482840Y-7514380D02*
X7562840Y-7514380D01*
D13*
%TO.C,D4*%
X7269620Y-6090920D02*
G75*
G03*
X7269620Y-6090920I-5000J0D01*
G01*
%TO.C,D3*%
X7991490Y-6906260D02*
G75*
G03*
X7991490Y-6906260I-5000J0D01*
G01*
D12*
%TO.C,U4*%
X6707340Y-6696800D02*
X6607340Y-6696800D01*
X6607340Y-6696800D02*
X6607340Y-6866800D01*
X6607340Y-6866800D02*
X6707340Y-6866800D01*
X6707340Y-6866800D02*
X6707340Y-6696800D01*
%TO.C,C8*%
X7364836Y-6148900D02*
X7386404Y-6148900D01*
X7364836Y-6220900D02*
X7386404Y-6220900D01*
%TO.C,R5*%
X6644516Y-6601560D02*
X6675244Y-6601560D01*
X6644516Y-6677560D02*
X6675244Y-6677560D01*
%TO.C,R4*%
X6979796Y-7051140D02*
X7010524Y-7051140D01*
X6979796Y-7127140D02*
X7010524Y-7127140D01*
%TO.C,C3*%
X7152440Y-7260502D02*
X7152440Y-7288618D01*
X7254440Y-7260502D02*
X7254440Y-7288618D01*
%TO.C,C5*%
X7802880Y-7349578D02*
X7802880Y-7321462D01*
X7904880Y-7349578D02*
X7904880Y-7321462D01*
%TO.C,C7*%
X6747598Y-7356040D02*
X6719482Y-7356040D01*
X6747598Y-7254040D02*
X6719482Y-7254040D01*
%TO.C,U2*%
X7073900Y-6122880D02*
X7153900Y-6122880D01*
X7073900Y-6434880D02*
X7153900Y-6434880D01*
X7073900Y-6122880D02*
X6893900Y-6122880D01*
X7073900Y-6434880D02*
X6993900Y-6434880D01*
%TO.C,C6*%
X7698500Y-7290424D02*
X7698500Y-7268856D01*
X7770500Y-7290424D02*
X7770500Y-7268856D01*
%TO.C,J2*%
X5647460Y-6311800D02*
X5647460Y-7251800D01*
X6227460Y-7251800D02*
X6027460Y-7251800D01*
X5837460Y-6311800D02*
X5647460Y-6311800D01*
X6227460Y-6311800D02*
X6027460Y-6311800D01*
X5837460Y-7251800D02*
X5647460Y-7251800D01*
D13*
%TO.C,D1*%
X7269620Y-6375400D02*
G75*
G03*
X7269620Y-6375400I-5000J0D01*
G01*
%TO.C,D2*%
X7991490Y-6652260D02*
G75*
G03*
X7991490Y-6652260I-5000J0D01*
G01*
D12*
%TO.C,R2*%
X6784440Y-6372984D02*
X6784440Y-6342256D01*
X6860440Y-6372984D02*
X6860440Y-6342256D01*
%TD*%
D14*
%TO.C,J1*%
X9089000Y-6144260D03*
%TD*%
M02*
