M48
; DRILL file {KiCad (6.0.2)} date Wed Apr 27 15:01:27 2022
; FORMAT={-:-/ absolute / metric / decimal}
; #@! TF.CreationDate,2022-04-27T15:01:27+08:00
; #@! TF.GenerationSoftware,Kicad,Pcbnew,(6.0.2)
; #@! TF.FileFunction,Plated,1,4,PTH
FMAT,2
METRIC
; #@! TA.AperFunction,Plated,PTH,ViaDrill
T1C0.254
; #@! TA.AperFunction,Plated,PTH,ComponentDrill
T2C0.600
%
G90
G05
T1
X64.647Y-61.515
X64.91Y-73.038
X65.444Y-70.268
X65.481Y-67.564
X65.481Y-68.504
X65.51Y-61.515
X65.547Y-65.368
X65.71Y-73.05
X66.18Y-70.269
X66.7Y-63.322
X67.132Y-69.825
X67.615Y-61.011
X67.667Y-66.953
X67.689Y-68.519
X67.869Y-70.307
X68.11Y-74.079
X68.135Y-72.301
X68.682Y-69.755
X68.732Y-62.789
X68.768Y-61.839
X68.882Y-61.013
X69.063Y-74.727
X69.52Y-66.878
X69.52Y-67.513
X69.52Y-68.148
X69.52Y-68.783
X69.672Y-73.05
X69.822Y-61.013
X70.155Y-66.878
X70.155Y-67.513
X70.155Y-68.148
X70.155Y-68.783
X70.383Y-74.727
X70.612Y-62.789
X70.736Y-61.013
X70.79Y-66.878
X70.79Y-67.513
X70.79Y-68.148
X70.79Y-68.783
X71.342Y-72.663
X71.425Y-66.878
X71.425Y-67.513
X71.425Y-68.148
X71.425Y-68.783
X71.526Y-70.79
X71.651Y-61.013
X72.288Y-70.79
X72.517Y-60.909
X72.705Y-72.634
X72.786Y-61.839
X72.796Y-73.584
X73.33Y-70.256
X73.891Y-67.564
X73.914Y-66.091
X73.914Y-69.063
X74.282Y-70.726
X74.752Y-68.301
X74.778Y-65.481
X74.803Y-72.873
X74.854Y-62.789
X75.209Y-71.603
X75.387Y-62.789
X75.413Y-63.754
X75.616Y-69.393
X75.844Y-73.762
X76.335Y-66.294
X76.937Y-71.603
X76.969Y-68.568
X77.343Y-64.059
X77.343Y-65.43
X79.553Y-64.821
X80.67Y-66.523
X80.696Y-69.063
X80.747Y-63.983
X80.747Y-71.603
X80.747Y-74.143
X80.772Y-61.468
X81.47Y-63.983
X81.47Y-66.523
X81.47Y-69.063
X81.47Y-71.603
X81.47Y-74.143
X81.483Y-61.468
X82.22Y-74.143
X82.296Y-61.468
X82.296Y-66.523
X82.296Y-71.603
X82.321Y-63.983
X82.321Y-69.063
T2
G00X59.625Y-63.498
M15
G01X59.025Y-63.498
M16
G05
G00X59.625Y-72.138
M15
G01X59.025Y-72.138
M16
G05
G00X64.055Y-63.498
M15
G01X62.955Y-63.498
M16
G05
G00X64.055Y-72.138
M15
G01X62.955Y-72.138
M16
G05
T0
M30
